<svg width="40" height="41" viewBox="0 0 40 41" fill="none" xmlns="http://www.w3.org/2000/svg">
<path d="M14.2464 0.783261C14.0433 0.907267 13.9651 1.04781 13.8401 1.5025C10.9019 11.9603 8.28418 21.4592 8.28418 21.6659C8.28418 21.8312 8.35451 22.0296 8.47172 22.1701L8.65926 22.4016L14.1449 22.4264L19.6305 22.443L19.5836 22.691C19.5601 22.8315 18.8178 26.6674 17.927 31.2226C17.0439 35.786 16.3172 39.655 16.3172 39.8286C16.3094 40.2419 16.5829 40.5396 17.0127 40.6057C17.2784 40.6388 17.3565 40.614 17.5597 40.4156C17.8566 40.1179 31.6644 14.9778 31.7113 14.6554C31.766 14.2834 31.6644 14.0188 31.3909 13.8452C31.1486 13.6881 30.9767 13.6799 26.0459 13.6799C23.2406 13.6799 20.9432 13.6551 20.9432 13.6303C20.9432 13.6055 21.1386 13.0846 21.373 12.4812C21.6075 11.8694 21.8028 11.2742 21.8028 11.1584C21.8028 11.051 21.7012 10.836 21.5762 10.6872C21.3808 10.4557 21.2949 10.4144 20.9745 10.4144C20.6619 10.4144 20.5838 10.4475 20.4509 10.6459C20.3572 10.7699 19.9743 11.6792 19.5992 12.6713C18.8568 14.6058 18.8412 14.6967 19.2085 15.1018L19.4117 15.3333H24.4831C29.281 15.3333 29.5545 15.3416 29.5077 15.4738C29.4295 15.6805 18.8881 34.8518 18.8647 34.827C18.8568 34.8105 19.4273 31.8261 20.1306 28.1968C20.8338 24.5676 21.3887 21.5088 21.3652 21.4096C21.3418 21.3021 21.2324 21.1285 21.123 21.021L20.9276 20.8309L15.5202 20.7896L10.1049 20.7482L12.6836 11.5056L15.2701 2.27133H19.4429C22.7483 2.27133 23.6079 2.29613 23.5766 2.37054C23.5532 2.42841 23.3891 2.86656 23.2094 3.33778C22.8421 4.30503 22.8343 4.61918 23.1859 4.91679C23.4594 5.14827 23.9205 5.14 24.1783 4.89199C24.4128 4.67705 25.5536 1.80011 25.5536 1.42809C25.5536 1.09741 25.4364 0.890733 25.1629 0.741925C24.9676 0.634454 24.2174 0.61792 19.7164 0.61792C14.684 0.61792 14.4887 0.626187 14.2464 0.783261Z" fill="white" fill-opacity="0.8"/>
<path d="M21.8342 7.18211C21.5372 7.49626 21.4981 7.76081 21.6857 8.14109C21.8342 8.44697 22.0217 8.55444 22.389 8.55444C23.1548 8.55444 23.4126 7.38879 22.7328 7.01677C22.3812 6.82663 22.1233 6.87623 21.8342 7.18211Z" fill="white" fill-opacity="0.8"/>
<path d="M2.97846 9.7448C2.61119 9.95974 2.48616 10.4392 2.68933 10.8526C2.8378 11.1585 5.89317 13.0186 6.24481 13.0186C6.4011 13.0186 6.57301 12.9359 6.73711 12.7788C7.07312 12.4647 7.09656 11.9686 6.79962 11.6628C6.47142 11.3155 3.61923 9.62906 3.3848 9.62906C3.26759 9.63733 3.08004 9.68693 2.97846 9.7448Z" fill="white" fill-opacity="0.8"/>
<path d="M34.8918 10.5466C34.0791 11.0509 33.3211 11.5469 33.2117 11.6627C32.9148 11.9686 32.9382 12.4646 33.2742 12.7787C33.6884 13.1756 33.8369 13.126 35.6107 12.043C37.2126 11.0757 37.4314 10.8856 37.4314 10.464C37.4314 10.0093 37.0485 9.62072 36.5953 9.63725C36.4624 9.63725 35.7826 10.001 34.8918 10.5466Z" fill="white" fill-opacity="0.8"/>
<path d="M0.344988 19.9463C-0.0769808 20.3018 -0.108238 20.773 0.266846 21.1698L0.53253 21.4509H2.37669C4.33806 21.4509 4.58031 21.4096 4.76785 21.0458C4.92413 20.7234 4.86162 20.2935 4.61938 20.0373L4.39276 19.7975H2.44702C0.727886 19.7975 0.493459 19.814 0.344988 19.9463Z" fill="white" fill-opacity="0.8"/>
<path d="M35.3918 20.0373C35.1495 20.2935 35.087 20.7234 35.2433 21.0458C35.4309 21.4096 35.6731 21.4509 37.6345 21.4509H39.4786L39.7443 21.1698C40.1194 20.773 40.0881 20.3018 39.6662 19.9463C39.5177 19.814 39.2833 19.7975 37.5641 19.7975H35.6184L35.3918 20.0373Z" fill="white" fill-opacity="0.8"/>
<path d="M4.79908 28.9409C4.15831 29.3294 3.44721 29.7676 3.2206 29.8998C2.79082 30.1644 2.57983 30.4703 2.57983 30.8423C2.57983 31.1399 3.04087 31.6194 3.33782 31.6194C3.47847 31.6194 4.13487 31.2722 5.15853 30.6439C6.54947 29.8089 6.77608 29.6353 6.90111 29.3707C7.06521 29.0153 7.01832 28.7342 6.74482 28.4366C6.39318 28.0728 6.11968 28.139 4.79908 28.9409Z" fill="white" fill-opacity="0.8"/>
<path d="M33.3133 28.3787C33.2195 28.4531 33.1023 28.6432 33.0476 28.7838C32.9773 29.007 32.9851 29.1062 33.1101 29.3625C33.2351 29.6353 33.4539 29.7924 34.8527 30.6439C35.8685 31.2639 36.5327 31.6194 36.6812 31.6194C36.9781 31.6194 37.4314 31.1399 37.4314 30.8257C37.4314 30.3463 37.2126 30.1478 35.595 29.1723C33.9462 28.172 33.6727 28.0811 33.3133 28.3787Z" fill="white" fill-opacity="0.8"/>
</svg>
