<svg width="50" height="42" viewBox="0 0 50 42" fill="none" xmlns="http://www.w3.org/2000/svg">
<path d="M10.9375 0.824219C9.9512 1.09766 9.77542 1.24414 5.05862 5.94141C-0.0585635 11.0391 -0.0683289 11.0488 0.0195617 12.0547C0.0488586 12.3281 0.136749 12.709 0.22464 12.8945C0.419952 13.3047 22.7344 39.9844 23.4278 40.6289C24.3946 41.5469 25.6055 41.5469 26.5723 40.6289C27.2657 39.9844 49.5801 13.3047 49.7754 12.8945C49.8633 12.709 49.9512 12.3281 49.9805 12.0547C50.0684 11.0488 50.0586 11.0391 44.9414 5.94141C40.0977 1.11719 40 1.0293 38.9453 0.785156C38.2813 0.638672 11.5039 0.667969 10.9375 0.824219ZM18.9453 6.40039C16.6114 8.73438 14.6973 10.6289 14.6875 10.6191C14.6582 10.5996 13.0664 6.18555 12.0606 3.34375L11.6309 2.15234H17.4121H23.1934L18.9453 6.40039ZM37.9395 3.34375C36.9336 6.18555 35.3418 10.5996 35.3125 10.6191C35.3028 10.6289 33.3887 8.73438 31.0547 6.40039L26.8067 2.15234H32.5879H38.3692L37.9395 3.34375ZM29.3457 6.83984L33.6426 11.1367H25H16.3575L20.6543 6.83984C23.0176 4.47656 24.9707 2.54297 25 2.54297C25.0293 2.54297 26.9825 4.47656 29.3457 6.83984ZM16.5821 20.2383C20.0293 29.8086 22.8321 37.6504 22.8223 37.6699C22.7832 37.6992 1.92386 12.8164 1.87503 12.6895C1.8555 12.6406 3.79886 12.6016 6.24026 12.6016C9.24808 12.6016 10.7129 12.5723 10.8692 12.4941C11.1035 12.3867 11.3282 12.0352 11.3282 11.7812C11.3282 11.7129 11.2403 11.5371 11.1231 11.3906L10.9278 11.1367H6.41605H1.90433L6.05472 6.98633C8.33987 4.70117 10.2246 2.83594 10.2539 2.83594C10.2832 2.83594 13.1348 10.668 16.5821 20.2383ZM43.9453 6.98633L48.0957 11.1367H42.3926C37.8809 11.1367 36.709 11.1074 36.7383 11.0098C36.7676 10.9512 37.4414 9.07617 38.2325 6.85938C39.0332 4.65234 39.7071 2.83594 39.7364 2.83594C39.7754 2.83594 41.6602 4.70117 43.9453 6.98633ZM34.541 12.7676C34.5215 12.8652 33.4375 15.8828 32.1387 19.4766C30.8496 23.0703 29.7852 26.1367 29.7852 26.293C29.7852 26.8594 30.4981 27.1621 30.9375 26.7812C31.0743 26.6738 31.9825 24.252 33.6524 19.6035L36.1719 12.6016H42.168C45.4981 12.6016 48.1446 12.6406 48.125 12.6895C48.0762 12.8164 27.2168 37.6992 27.1778 37.6699C27.168 37.6504 27.8125 35.8145 28.6133 33.5879C29.6875 30.6289 30.0586 29.4766 30.0196 29.2812C29.961 28.9688 29.6485 28.7148 29.3262 28.7148C28.8184 28.7148 28.7012 28.9883 26.8457 34.1543C25.8594 36.9082 25.0293 39.1641 25 39.1641C24.9512 39.1641 15.4297 12.7969 15.4297 12.6602C15.4297 12.6309 19.7461 12.6016 25.0098 12.6016C34.0918 12.6016 34.5899 12.6113 34.541 12.7676Z" fill="white" fill-opacity="0.8"/>
</svg>
