<svg width="41" height="40" viewBox="0 0 41 40" fill="none" xmlns="http://www.w3.org/2000/svg">
<g clip-path="url(#clip0_1196_641)">
<path d="M30.0355 -0.0119925C30.152 -0.0130003 30.152 -0.0130003 30.2708 -0.0140285C30.3551 -0.0143614 30.4394 -0.0146942 30.5263 -0.0150371C30.6605 -0.0159954 30.6605 -0.0159954 30.7974 -0.016973C31.0931 -0.0189095 31.3887 -0.0202033 31.6844 -0.0213313C31.7853 -0.0217472 31.8863 -0.0221631 31.9903 -0.0225916C32.4144 -0.0242485 32.8384 -0.0257432 33.2624 -0.0266246C33.8695 -0.0278951 34.4766 -0.0304937 35.0836 -0.0349372C35.5625 -0.0383226 36.0413 -0.0395731 36.5201 -0.0400725C36.7238 -0.0405985 36.9274 -0.0417917 37.131 -0.0436577C37.4153 -0.0461158 37.6995 -0.0461356 37.9838 -0.0455546C38.1105 -0.0474771 38.1105 -0.0474771 38.2398 -0.0494385C38.8085 -0.0446657 38.8085 -0.0446657 39.0686 0.183811C39.2672 0.581627 39.1791 0.982917 39.0938 1.40628C38.9851 1.7057 38.8551 1.98589 38.7031 2.26566C38.7954 2.26676 38.8876 2.26787 38.9827 2.26901C39.1043 2.27268 39.226 2.27645 39.3477 2.2803C39.4084 2.28076 39.4691 2.28121 39.5317 2.28168C39.8434 2.29367 39.9864 2.30542 40.2296 2.51346C40.4403 2.9214 40.3581 3.31306 40.2656 3.75003C39.9297 4.65997 39.4265 5.28913 38.5469 5.70316C38.3831 5.75123 38.218 5.79482 38.0519 5.83377C37.9687 5.85359 37.8854 5.8734 37.7997 5.89382C37.7055 5.91545 37.7055 5.91545 37.6094 5.93753C37.6392 5.99252 37.6691 6.0475 37.6999 6.10416C38.0364 6.72458 38.3707 7.34613 38.7031 7.96878C38.7376 8.03312 38.772 8.09746 38.8075 8.16375C39.4841 9.43724 39.9517 10.781 40.2656 12.1875C40.285 12.2701 40.285 12.2701 40.3047 12.3543C40.7563 14.3622 40.6707 16.7615 40.1875 18.75C40.1716 18.8184 40.1557 18.8867 40.1393 18.9572C39.5413 21.4645 38.2705 23.6217 36.5938 25.5469C36.543 25.6073 36.4922 25.6678 36.4399 25.73C36.1756 26.0424 35.8967 26.3164 35.5842 26.5805C35.4757 26.6729 35.3691 26.7676 35.2644 26.8644C32.7202 29.2153 29.1322 30.61 25.6825 30.6443C25.5044 30.6468 25.3263 30.6494 25.1481 30.652C24.8705 30.6557 24.5928 30.6592 24.3151 30.6623C22.2186 30.6866 20.759 30.8023 19.2145 32.3553C19.1475 32.424 19.0804 32.4926 19.0114 32.5632C18.9374 32.6381 18.8634 32.7128 18.7893 32.7875C18.6314 32.9469 18.474 33.1066 18.3168 33.2666C18.0675 33.5202 17.8171 33.7728 17.5666 34.0252C16.8548 34.7425 16.1445 35.4613 15.4352 36.181C15.0423 36.5798 14.6484 36.9777 14.2537 37.3747C14.0051 37.6248 13.7577 37.8758 13.511 38.1277C13.3566 38.2849 13.2012 38.441 13.0456 38.5969C12.9408 38.7025 12.8372 38.8092 12.7336 38.9159C11.9649 39.681 11.1822 40.0189 10.1086 40.0257C9.61367 40.0193 9.21757 39.93 8.78125 39.6875C8.72969 39.6618 8.67813 39.636 8.625 39.6094C8.49317 39.6694 8.36329 39.7338 8.23438 39.7998C7.45287 40.1352 6.55288 40.1409 5.75879 39.834C5.36157 39.6404 4.92292 39.3927 4.71875 38.9844C4.67969 38.7793 4.67969 38.7793 4.71875 38.5157C4.8208 38.3749 4.8208 38.3749 4.9566 38.2253C5.0065 38.1703 5.0564 38.1153 5.10782 38.0586C5.35855 37.7918 5.61471 37.5311 5.87416 37.2727C5.96243 37.1844 5.96243 37.1844 6.05249 37.0942C6.24818 36.8984 6.44415 36.7028 6.64012 36.5073C6.78107 36.3664 6.922 36.2254 7.06292 36.0845C7.36556 35.7818 7.66831 35.4793 7.97117 35.1769C8.40905 34.7396 8.84671 34.3022 9.28432 33.8646C9.99445 33.1547 10.7048 32.4449 11.4152 31.7352C12.105 31.0462 12.7947 30.357 13.4843 29.6677C13.5268 29.6252 13.5694 29.5827 13.6132 29.5388C13.8268 29.3254 14.0403 29.112 14.2538 28.8985C16.0231 27.13 17.7927 25.3618 19.5625 23.5938C19.4994 23.5693 19.4362 23.5447 19.3712 23.5195C19.2459 23.4694 19.2459 23.4694 19.1182 23.4183C19.0357 23.3857 18.9532 23.3531 18.8683 23.3195C18.4565 23.1225 18.1614 22.8222 17.8438 22.5C17.7695 22.4255 17.6953 22.351 17.621 22.2766C17.3427 21.9958 17.0659 21.7136 16.7918 21.4288C15.6603 20.2558 14.4918 19.6251 12.832 19.5907C12.6682 19.5901 12.5043 19.5902 12.3405 19.5908C12.1594 19.5896 11.9783 19.5883 11.7972 19.587C11.5167 19.5857 11.2363 19.585 10.9559 19.5855C10.6817 19.5858 10.4076 19.5835 10.1335 19.581C10.0509 19.5818 9.96839 19.5826 9.88334 19.5834C9.02042 19.5723 8.30223 19.2816 7.68018 18.6798C7.26688 18.2242 7.07843 17.794 6.98438 17.1875C6.93614 17.1761 6.8879 17.1646 6.8382 17.1527C6.01436 16.9346 5.38127 16.5153 4.93604 15.7804C4.76926 15.4677 4.69123 15.197 4.64062 14.8438C4.58833 14.8454 4.53603 14.8471 4.48215 14.8487C4.24039 14.8553 3.99865 14.8593 3.75684 14.8633C3.67461 14.8659 3.59238 14.8686 3.50766 14.8712C2.60247 14.8824 1.95105 14.6494 1.29926 14.0183C0.664513 13.3257 0.485712 12.7207 0.471619 11.7884C0.5 11.5625 0.500001 11.5625 0.593901 11.433C0.782543 11.2922 0.900988 11.299 1.13535 11.2993C1.21882 11.2989 1.30229 11.2984 1.38829 11.2979C1.52633 11.2989 1.52633 11.2989 1.66717 11.3C1.76467 11.2998 1.86218 11.2996 1.96263 11.2994C2.23379 11.2988 2.50493 11.2998 2.77608 11.301C3.06829 11.302 3.36049 11.3016 3.6527 11.3014C4.15915 11.3013 4.66559 11.3021 5.17203 11.3034C5.90426 11.3053 6.63649 11.3059 7.36873 11.3062C8.55666 11.3067 9.7446 11.3083 10.9325 11.3105C12.0867 11.3126 13.2408 11.3143 14.3949 11.3153C14.466 11.3153 14.5371 11.3154 14.6104 11.3155C14.9671 11.3158 15.3239 11.3161 15.6806 11.3164C18.6413 11.3188 21.6019 11.323 24.5625 11.3282C24.5625 10.5547 24.5625 9.78128 24.5625 8.98441C24.0984 8.94573 24.0984 8.94573 23.625 8.90628C23.3778 8.8458 23.1504 8.78434 22.9121 8.7012C22.852 8.68067 22.7919 8.66013 22.73 8.63897C22.2401 8.46273 21.834 8.23085 21.4375 7.89066C21.3935 7.85692 21.3495 7.82318 21.3041 7.78842C21.0938 7.61168 21.0467 7.49897 20.998 7.22659C21.0584 6.88842 21.1764 6.76272 21.4375 6.56253C21.512 6.49863 21.512 6.49863 21.588 6.43344C22.4147 5.7809 23.5318 5.50787 24.5625 5.39066C24.5749 5.31694 24.5873 5.24322 24.6 5.16727C24.9094 3.46511 25.7231 2.03878 27.1406 1.01566C27.9781 0.443943 29.0063 -0.00532696 30.0355 -0.0119925ZM27.1406 2.73441C27.0906 2.78254 27.0405 2.83068 26.989 2.88028C25.9431 3.97055 25.7747 5.377 25.7896 6.81552C25.7901 6.94194 25.7904 7.06835 25.7906 7.19476C25.7915 7.52394 25.7938 7.8531 25.7964 8.18227C25.7988 8.51958 25.7999 8.8569 25.8011 9.19421C25.8036 9.85346 25.8075 10.5127 25.8125 11.1719C25.8991 11.1241 25.9857 11.0762 26.075 11.0269C26.1237 11 26.1724 10.9731 26.2226 10.9454C26.5995 10.7084 26.7618 10.3278 26.9062 9.92191C26.9219 9.81157 26.9349 9.70083 26.9453 9.58988C26.9844 9.29691 26.9844 9.29691 27.0705 9.16337C27.2955 9.01036 27.4853 9.03232 27.7552 9.03123C27.8095 9.03069 27.8638 9.03014 27.9197 9.02958C28.0995 9.02802 28.2792 9.02806 28.459 9.02805C28.5845 9.02713 28.7099 9.02608 28.8354 9.02492C29.1664 9.02209 29.4975 9.02051 29.8285 9.01933C30.3561 9.0174 30.8837 9.01426 31.4112 9.00981C31.5945 9.00854 31.7777 9.00824 31.961 9.00801C33.0809 9.00252 34.1265 8.90328 34.9849 8.10764C35.5523 7.47487 35.8529 6.67138 35.8125 5.82034C35.7016 5.00461 35.2739 4.30506 34.857 3.61148C34.5277 3.01107 34.5277 3.01107 34.626 2.67093C34.7188 2.50003 34.7188 2.50003 34.7969 2.42191C35.0185 2.40724 35.2391 2.39642 35.4609 2.38773C36.546 2.34555 36.546 2.34555 37.4531 1.79691C37.6886 1.51772 37.6886 1.51772 37.7656 1.17191C36.8474 1.16827 35.9291 1.1655 35.0109 1.16381C34.5844 1.163 34.1579 1.1619 33.7315 1.16012C33.3191 1.15841 32.9068 1.15748 32.4945 1.15708C32.3379 1.1568 32.1814 1.15624 32.0249 1.15539C30.1196 1.14546 28.5539 1.34699 27.1406 2.73441ZM36.2812 3.51566C36.39 3.84178 36.4769 4.07753 36.6426 4.36527C36.6774 4.42629 36.7123 4.48732 36.7482 4.5502C36.7746 4.59552 36.8009 4.64084 36.8281 4.68753C37.4774 4.67649 38.0293 4.64163 38.5469 4.21878C38.8357 3.90983 38.8357 3.90983 38.9375 3.51566C38.0609 3.51566 37.1844 3.51566 36.2812 3.51566ZM22.7656 7.18753C23.2564 7.63562 23.9292 7.68981 24.5625 7.73441C24.5625 7.39925 24.5625 7.06409 24.5625 6.71878C23.9378 6.71878 23.3264 6.91988 22.7656 7.18753ZM36.8281 7.34378C36.77 7.4598 36.77 7.4598 36.7106 7.57816C36.0845 8.80515 35.3609 9.55401 34.0156 10C33.7274 10.0906 33.4523 10.0905 33.1513 10.0942C33.0964 10.095 33.0415 10.0957 32.9849 10.0965C32.804 10.099 32.6231 10.1009 32.4421 10.1029C32.3165 10.1045 32.1908 10.1061 32.0651 10.1078C31.7348 10.1121 31.4045 10.116 31.0741 10.1197C30.7369 10.1237 30.3996 10.128 30.0624 10.1323C29.401 10.1407 28.7395 10.1486 28.0781 10.1563C28.0571 10.2156 28.0361 10.2748 28.0144 10.3359C27.9866 10.4135 27.9588 10.4911 27.9302 10.5711C27.9027 10.6481 27.8753 10.7251 27.847 10.8045C27.7593 11.0321 27.6544 11.2232 27.5117 11.4209C27.471 11.4784 27.4303 11.5359 27.3884 11.5952C27.3431 11.6564 27.3431 11.6564 27.2969 11.7188C27.3611 11.7557 27.4254 11.7927 27.4916 11.8308C28.8752 12.6504 29.8483 13.7041 30.3013 15.2774C30.4368 15.8884 30.437 16.4886 30.4405 17.1128C30.4408 17.1654 30.4411 17.218 30.4415 17.2722C30.4431 17.5509 30.4442 17.8296 30.4449 18.1083C30.4458 18.3934 30.4485 18.6785 30.4516 18.9637C30.4536 19.1853 30.4543 19.407 30.4546 19.6287C30.4551 19.7841 30.4572 19.9395 30.4593 20.0949C30.4572 20.9732 30.2965 21.7414 29.7175 22.4243C29.0642 23.0726 28.2858 23.3569 27.375 23.3594C26.5645 23.3067 25.8722 22.991 25.3096 22.4024C24.859 21.8532 24.6952 21.2328 24.5625 20.5469C23.474 21.4582 22.4771 22.4649 21.4753 23.4688C21.2719 23.6725 21.0684 23.8759 20.8649 24.0794C20.5134 24.4308 20.1621 24.7824 19.8108 25.1341C19.303 25.6425 18.795 26.1507 18.287 26.6589C17.4624 27.4836 16.638 28.3085 15.8137 29.1335C15.0137 29.9343 14.2135 30.735 13.4132 31.5356C13.3638 31.5851 13.3144 31.6346 13.2634 31.6855C13.0154 31.9337 12.7673 32.1818 12.5193 32.43C10.4657 34.4843 8.41245 36.539 6.35938 38.5938C6.56526 38.7997 6.66809 38.7757 6.95508 38.7793C7.03343 38.7815 7.11178 38.7838 7.1925 38.786C7.91776 38.6858 8.35293 38.2044 8.84171 37.7032C8.91616 37.628 8.99068 37.5529 9.06527 37.4779C9.22501 37.3169 9.38427 37.1555 9.54315 36.9936C9.79529 36.7368 10.0487 36.4813 10.3023 36.226C10.9322 35.5914 11.5605 34.9552 12.1885 34.3186C12.6763 33.8241 13.1646 33.3301 13.6542 32.8374C13.8646 32.6256 14.0746 32.4135 14.2836 32.2003C16.8954 29.5377 16.8954 29.5377 18.843 29.5183C18.9013 29.5181 18.9595 29.5179 19.0195 29.5177C19.0818 29.5172 19.1441 29.5167 19.2084 29.5161C19.3436 29.515 19.4789 29.5141 19.6141 29.5133C19.8303 29.512 20.0465 29.5102 20.2627 29.5083C20.8775 29.5028 21.4923 29.4981 22.107 29.494C26.9425 29.4611 31.2194 28.9473 34.875 25.4688C34.917 25.4289 34.959 25.389 35.0023 25.3479C36.0654 24.332 36.8807 23.2286 37.6094 21.9532C37.6386 21.9021 37.6678 21.8511 37.6979 21.7985C39.4418 18.6931 39.7028 14.8152 38.7797 11.4182C38.4484 10.2713 37.9316 9.21637 37.3848 8.15921C37.3289 8.05099 37.3289 8.05099 37.2719 7.94057C37.2369 7.87405 37.2018 7.80752 37.1656 7.73898C37.1344 7.67961 37.1032 7.62024 37.0711 7.55906C36.993 7.40939 36.993 7.40939 36.8281 7.34378ZM1.82812 12.5C2.03009 12.9287 2.03009 12.9287 2.33105 13.2227C2.37607 13.2602 2.42109 13.2976 2.46747 13.3362C3.06728 13.7645 3.80599 13.687 4.51337 13.6966C4.61317 13.6982 4.71297 13.6999 4.8158 13.7015C5.07947 13.7058 5.34314 13.7097 5.60682 13.7135C5.87655 13.7174 6.14627 13.7218 6.41599 13.7261C6.94399 13.7344 7.47199 13.7424 8 13.75C8.11115 14.3767 8.11115 14.3767 7.99289 14.6504C7.7926 14.8052 7.66271 14.8079 7.41071 14.8133C7.32687 14.8158 7.24303 14.8183 7.15665 14.8209C7.02545 14.8226 7.02545 14.8226 6.8916 14.8243C6.80323 14.8266 6.71486 14.8289 6.62381 14.8313C6.40545 14.8368 6.18716 14.8409 5.96875 14.8438C6.10113 15.3107 6.28229 15.5094 6.67188 15.7813C7.09375 15.9974 7.54386 16.0255 8.01175 16.0251C8.15372 16.0252 8.15372 16.0252 8.29855 16.0254C8.40133 16.0251 8.50411 16.0248 8.61001 16.0245C8.72014 16.0245 8.83028 16.0245 8.94042 16.0246C9.23851 16.0246 9.53661 16.0241 9.83471 16.0236C10.1466 16.0231 10.4584 16.023 10.7703 16.023C11.3605 16.0227 11.9506 16.0221 12.5408 16.0213C13.2128 16.0204 13.8849 16.02 14.5569 16.0196C15.939 16.0188 17.3211 16.0174 18.7031 16.0157C18.5227 15.6289 18.3422 15.2422 18.1563 14.8438C18.0491 14.8433 17.942 14.8429 17.8316 14.8424C16.8234 14.8379 15.8151 14.8322 14.8069 14.8254C14.2886 14.8219 13.7702 14.8188 13.2518 14.8167C12.7519 14.8147 12.2519 14.8115 11.7519 14.8076C11.5609 14.8063 11.3698 14.8054 11.1788 14.8049C10.9118 14.8042 10.6449 14.802 10.378 14.7994C10.2985 14.7995 10.219 14.7997 10.137 14.7998C10.0644 14.7988 9.99177 14.7978 9.91694 14.7968C9.8222 14.7963 9.8222 14.7963 9.72555 14.7957C9.52005 14.7578 9.45022 14.6991 9.32812 14.5313C9.30731 14.2399 9.31371 14.0277 9.40625 13.75C12.1391 13.7243 14.8719 13.6985 17.6875 13.6719C17.6553 13.0765 17.6553 13.0765 17.5313 12.5C12.3492 12.5 7.16719 12.5 1.82812 12.5ZM18.7813 12.5C18.8164 12.6977 18.8521 12.8952 18.8881 13.0927C18.8979 13.148 18.9076 13.2032 18.9177 13.2602C19.1932 14.762 20.0852 16.1163 21.291 17.0459C22.4407 17.8345 23.6712 18.2806 25.0668 18.3705C25.4657 18.4035 25.4657 18.4035 25.6326 18.5692C25.7591 18.7939 25.7621 18.9404 25.7606 19.1974C25.7621 19.3281 25.7621 19.3281 25.7637 19.4614C25.7637 19.6429 25.7631 19.8244 25.7618 20.0058C25.7708 20.6574 25.8834 21.177 26.3075 21.6884C26.6493 22.009 27.0905 22.1664 27.5517 22.2007C28.0459 22.1774 28.4179 21.9688 28.7812 21.6407C29.1077 21.2287 29.2591 20.8672 29.2626 20.3393C29.2633 20.2485 29.2641 20.1576 29.2649 20.0641C29.2652 19.9657 29.2655 19.8673 29.2659 19.766C29.2663 19.6645 29.2668 19.563 29.2672 19.4584C29.268 19.2431 29.2685 19.0277 29.2688 18.8124C29.2692 18.539 29.2711 18.2656 29.2733 17.9922C29.2751 17.7289 29.2753 17.4657 29.2756 17.2025C29.2771 17.057 29.2771 17.057 29.2786 16.9087C29.2753 15.6344 28.9139 14.6244 28.0327 13.6945C26.7822 12.5107 25.3067 12.4748 23.6793 12.4848C23.5373 12.4851 23.3952 12.4853 23.2531 12.4854C22.883 12.486 22.5128 12.4876 22.1427 12.4893C21.7635 12.4909 21.3843 12.4916 21.0051 12.4924C20.2638 12.4941 19.5225 12.4967 18.7813 12.5ZM8.3125 17.1875C8.45816 17.653 8.6207 17.8494 9.01562 18.125C9.42119 18.3328 9.8572 18.3686 10.3078 18.3717C10.3907 18.3725 10.4737 18.3733 10.5592 18.3742C10.6921 18.375 10.6921 18.375 10.8278 18.3759C11.0178 18.3781 11.2078 18.3803 11.3978 18.3826C11.6956 18.3858 11.9933 18.3887 12.2911 18.3908C12.5797 18.3929 12.8683 18.3965 13.1569 18.4003C13.2884 18.4007 13.2884 18.4007 13.4226 18.4011C14.2139 18.4132 14.9518 18.5592 15.6611 18.916C15.7442 18.9565 15.8273 18.997 15.9129 19.0387C16.8247 19.5666 17.5438 20.3915 18.2648 21.1451C19.0775 22.0244 19.0775 22.0244 20.1875 22.3828C20.8793 22.3296 21.3556 21.9352 21.8187 21.4539C21.9004 21.3713 21.9004 21.3713 21.9838 21.2871C22.1558 21.1129 22.3265 20.9374 22.4971 20.7618C22.6142 20.6426 22.7315 20.5236 22.8488 20.4047C23.1346 20.1146 23.4193 19.8234 23.7031 19.5313C23.6773 19.4797 23.6516 19.4282 23.625 19.375C23.4301 19.3161 23.2363 19.264 23.0391 19.2139C22.0002 18.9287 20.8675 18.4093 20.1379 17.5912C19.8269 17.2611 19.5897 17.1495 19.1354 17.1218C18.933 17.1202 18.732 17.1215 18.5298 17.1254C18.4181 17.1256 18.3064 17.1255 18.1947 17.1252C17.893 17.125 17.5914 17.1283 17.2898 17.1321C16.974 17.1355 16.6581 17.1358 16.3423 17.1365C15.7449 17.1382 15.1476 17.1427 14.5503 17.1481C13.8699 17.1543 13.1896 17.1573 12.5092 17.16C11.1103 17.1657 9.71138 17.1753 8.3125 17.1875ZM14.5692 33.6576C14.4267 33.8002 14.2842 33.9428 14.1417 34.0854C13.8068 34.4206 13.472 34.756 13.1374 35.0914C12.7559 35.4738 12.3741 35.8559 11.9924 36.2381C11.2082 37.0231 10.4243 37.8083 9.64062 38.5938C9.84651 38.7997 9.94934 38.7757 10.2363 38.7793C10.3147 38.7815 10.393 38.7838 10.4738 38.786C11.2001 38.6857 11.6407 38.2 12.1331 37.7005C12.2086 37.6251 12.2841 37.5497 12.3597 37.4744C12.5634 37.2711 12.7662 37.0669 12.9688 36.8624C13.1811 36.6484 13.3944 36.4352 13.6075 36.2219C13.9647 35.8642 14.3214 35.5059 14.6776 35.1471C15.1355 34.6861 15.5942 34.2261 16.0533 33.7663C16.4478 33.371 16.842 32.9755 17.2362 32.5798C17.363 32.4525 17.4899 32.3252 17.6168 32.1979C17.8156 31.9985 18.0141 31.7988 18.2124 31.599C18.3204 31.4904 18.4285 31.3819 18.5367 31.2734C18.6002 31.2093 18.6637 31.1453 18.7292 31.0792C18.7848 31.0233 18.8405 30.9673 18.8978 30.9096C19.0244 30.8007 19.0244 30.8007 19.0156 30.7032C17.14 30.631 15.7638 32.4594 14.5692 33.6576Z" fill="white" fill-opacity="0.8"/>
<path d="M29.6016 4.41404C30.0494 4.68408 30.3363 5.13741 30.5 5.62497C30.5903 6.24373 30.4795 6.75916 30.1094 7.2656C29.5857 7.76688 29.1456 7.84162 28.4312 7.83353C27.9831 7.79921 27.7015 7.68285 27.3952 7.35379C27.0176 6.87593 26.8633 6.46336 26.8773 5.85263C26.9463 5.31031 27.1891 4.89869 27.6192 4.5654C28.1659 4.18988 28.9927 4.14565 29.6016 4.41404ZM28.2783 5.66892C28.1301 5.8614 28.1301 5.8614 28.1611 6.14255C28.209 6.42616 28.209 6.42616 28.4688 6.56247C28.75 6.59838 28.8873 6.59469 29.1279 6.4404C29.2761 6.24792 29.2761 6.24792 29.2451 5.96677C29.1973 5.68316 29.1973 5.68316 28.9375 5.54685C28.6563 5.51095 28.519 5.51463 28.2783 5.66892Z" fill="white" fill-opacity="0.8"/>
</g>
<defs>
<clipPath id="clip0_1196_641">
<rect width="40" height="40" fill="white" transform="translate(0.5)"/>
</clipPath>
</defs>
</svg>
