<svg width="41" height="40" viewBox="0 0 41 40" fill="none" xmlns="http://www.w3.org/2000/svg">
<g clip-path="url(#clip0_1196_628)">
<path d="M9.95315 0.390632C10.1753 0.545133 10.3908 0.706635 10.6068 0.869453C11.2738 1.34344 11.9671 1.41028 12.7656 1.32813C13.2483 1.24336 13.7169 1.09951 14.1865 0.961921C14.315 0.925581 14.4436 0.889419 14.5722 0.853431C14.8224 0.783315 15.0724 0.712629 15.3223 0.641372C15.7299 0.525534 16.139 0.416318 16.5498 0.312507C16.604 0.298238 16.6581 0.283969 16.7139 0.269267C16.8815 0.227043 17.0494 0.190599 17.2188 0.156257C17.2875 0.141938 17.3562 0.127618 17.427 0.112865C18.3398 -0.0472733 19.2632 -0.0262852 20.187 -0.024655C20.4787 -0.0244085 20.7704 -0.0262443 21.0622 -0.0282217C22.0971 -0.0310148 23.0823 0.00835948 24.0938 0.234382C24.2116 0.260676 24.2116 0.260676 24.3319 0.287502C24.5337 0.335912 24.7336 0.388968 24.9336 0.444343C25.0065 0.463692 25.0793 0.48304 25.1544 0.502975C25.5479 0.60788 25.9401 0.716843 26.3317 0.828818C26.5375 0.887402 26.7435 0.944816 26.9497 1.00214C27.0965 1.0435 27.2429 1.08656 27.3893 1.12967C28.3178 1.38801 29.226 1.48643 30.1222 1.06477C30.4327 0.886404 30.7118 0.673928 30.9975 0.458686C31.6662 -0.0165771 32.3471 -0.0977573 33.1563 7.03335e-06C33.7717 0.172306 34.2122 0.56832 34.5625 1.09376C35.7218 3.31578 35.2978 6.39036 34.6006 8.68592C34.5077 8.99844 34.4495 9.22075 34.5625 9.53126C34.6541 9.69655 34.7508 9.85907 34.8506 10.0195C35.6745 11.4104 36.1793 13.2993 35.8101 14.902C35.6208 15.7514 35.6309 16.2266 36.1031 16.9699C36.1785 17.0866 36.254 17.2034 36.3295 17.32C37.9562 20.0309 38.3071 23.9877 37.6094 27.0313C37.596 27.0917 37.5826 27.1521 37.5688 27.2143C37.2461 28.6334 36.7353 29.9697 36.0469 31.25C36.0105 31.3193 36.0105 31.3193 35.9735 31.3899C35.4148 32.4503 34.6964 33.3946 33.8774 34.267C33.7225 34.4325 33.5756 34.6019 33.4297 34.7754C32.9256 35.3504 32.3335 35.8228 31.7305 36.2891C31.6739 36.3331 31.6173 36.377 31.559 36.4224C31.2892 36.628 31.0232 36.8169 30.7237 36.9769C30.169 37.2594 30.169 37.2594 29.8619 37.7817C29.8383 37.9858 29.8215 38.1908 29.8119 38.396C29.7846 38.8987 29.5897 39.2194 29.2256 39.5557C28.6199 40.0227 28.0556 40.0961 27.2969 40C27.0619 39.9053 26.8446 39.7938 26.6206 39.6759C26.4197 39.5785 26.4197 39.5785 26.1641 39.7363C26.0996 39.7976 26.0352 39.8588 25.9688 39.9219C25.6896 40.0149 25.4574 40.016 25.1631 40.0195C25.0113 40.0226 25.0113 40.0226 24.8564 40.0256C24.5625 40 24.5625 40 24.3407 39.8752C23.9734 39.7122 23.6806 39.8018 23.293 39.8682C22.3607 40.0025 21.4405 40.0296 20.5 40.0293C20.3936 40.0293 20.3936 40.0293 20.2849 40.0294C19.3377 40.0271 18.4109 39.9887 17.4751 39.8285C17.0354 39.7567 16.835 39.7732 16.4375 40C15.7611 40.0818 15.2213 40.0449 14.6406 39.6875C14.3889 39.6875 14.3218 39.7263 14.1084 39.8438C13.5618 40.0921 12.9549 40.1048 12.382 39.931C11.8193 39.6747 11.436 39.3125 11.2178 38.7305C11.1512 38.5212 11.1235 38.3762 11.1433 38.1564C11.1632 37.8907 11.1553 37.7467 11.0469 37.5C10.6836 37.1609 10.2358 36.9205 9.81097 36.6672C9.24333 36.3183 8.75333 35.8501 8.26339 35.4022C8.09864 35.253 7.93066 35.1091 7.76076 34.9658C6.34316 33.7244 5.26829 32.0112 4.4844 30.3125C4.4428 30.2237 4.40121 30.1349 4.35836 30.0433C3.63289 28.4275 3.15721 26.6214 3.13766 24.8441C3.13689 24.7861 3.13613 24.7281 3.13534 24.6683C3.10895 22.1457 3.37168 19.3259 4.78438 17.1442C5.25891 16.4095 5.41551 15.9678 5.23362 15.098C5.20488 14.969 5.17569 14.8401 5.14602 14.7113C4.84153 13.2145 5.3408 11.3019 6.15594 10.0347C6.23636 9.91589 6.32093 9.79988 6.40578 9.68415C6.61768 9.23857 6.42729 8.76018 6.30361 8.30519C5.70262 6.09418 5.31168 3.20541 6.43752 1.09376C7.29908 -0.143263 8.6427 -0.36206 9.95315 0.390632ZM14.0867 2.4493C12.7787 2.82071 11.4645 2.95982 10.2113 2.31324C10.0159 2.19966 9.8281 2.07945 9.64065 1.95313C9.54215 1.88802 9.54215 1.88802 9.44167 1.8216C9.32039 1.74107 9.19949 1.65996 9.07912 1.57807C8.78075 1.38065 8.50722 1.3596 8.15627 1.40626C7.69261 1.65916 7.52949 2.09515 7.38174 2.5763C6.94925 4.36688 7.23497 6.28802 7.68752 8.04688C7.96306 7.92456 8.17559 7.75643 8.41018 7.56837C10.1103 6.26297 12.2841 5.82205 14.3864 6.08983C16.407 6.3856 18.3171 7.52583 19.5625 9.14063C19.8818 9.61865 20.1699 10.1078 20.4219 10.625C20.4735 10.625 20.525 10.625 20.5781 10.625C20.6151 10.5504 20.6521 10.4758 20.6901 10.3989C21.0291 9.73 21.3975 9.15081 21.9063 8.59376C21.9598 8.53384 22.0134 8.47392 22.0686 8.41218C23.5291 6.86242 25.5108 6.13639 27.6012 6.00098C29.496 5.95553 31.3324 6.56031 32.8084 7.74354C32.9744 7.87094 33.1252 7.95739 33.3125 8.04688C33.3766 7.74915 33.4398 7.45125 33.503 7.15333C33.5209 7.06979 33.5389 6.98625 33.5574 6.90018C33.8909 5.31998 34.1489 3.14428 33.2344 1.71876C33.0088 1.46812 32.8894 1.41398 32.5557 1.35743C32.0526 1.38391 31.6582 1.72112 31.259 1.99952C30.2595 2.69051 29.1997 2.89032 28 2.73438C27.1233 2.56338 26.2633 2.30219 25.4048 2.05823C25.0142 1.94765 24.6223 1.84191 24.2299 1.73798C24.1693 1.72178 24.1086 1.70557 24.0462 1.68887C23.5455 1.55706 23.0463 1.46276 22.5313 1.40626C22.4523 1.3976 22.3734 1.38894 22.292 1.38001C19.4165 1.12426 16.8281 1.66692 14.0867 2.4493ZM8.2344 9.49952C7.2634 10.6677 6.60359 12.0614 6.51565 13.5938C6.51152 13.6557 6.50739 13.7176 6.50313 13.7814C6.43991 15.6095 7.19041 17.2878 8.40316 18.6234C9.53309 19.8011 11.1198 20.5788 12.7653 20.6409C14.2266 20.6669 15.6109 20.3759 16.8281 19.5313C16.7268 19.2025 16.5998 18.9114 16.4375 18.6084C16.0792 17.8979 15.9271 17.2462 16.1812 16.4688C16.472 15.8108 16.9848 15.5077 17.6353 15.2521C18.1091 15.0937 18.5917 14.9727 19.0764 14.8526C19.326 14.7897 19.5608 14.7138 19.7969 14.6094C19.8685 12.5912 19.2698 10.8881 17.935 9.36829C16.8144 8.17451 15.1763 7.43961 13.5469 7.34376C13.4937 7.34053 13.4405 7.33731 13.3858 7.33399C11.4501 7.27706 9.56364 8.10381 8.2344 9.49952ZM23.3906 9.06251C23.3313 9.11447 23.272 9.16644 23.2109 9.21998C22.6949 9.70118 22.3394 10.2559 21.9844 10.8594C21.9448 10.9263 21.9052 10.9931 21.8645 11.062C21.3757 11.9589 21.1862 13.006 21.1983 14.0186C21.1986 14.0757 21.199 14.1329 21.1993 14.1917C21.2002 14.331 21.2016 14.4702 21.2031 14.6094C21.495 14.7815 21.8086 14.8375 22.1358 14.9072C23.1365 15.1322 24.0905 15.3949 24.7188 16.25C24.9894 16.7371 25.0105 17.3806 24.8762 17.9138C24.7416 18.2721 24.5619 18.6096 24.3794 18.9457C24.3048 19.086 24.2377 19.2303 24.1719 19.375C24.2678 19.6626 24.3849 19.7029 24.6459 19.8364C24.7005 19.863 24.7552 19.8896 24.8115 19.917C24.8675 19.9445 24.9234 19.9721 24.9811 20.0005C26.5711 20.7595 28.3833 20.854 30.0484 20.2808C31.8059 19.6324 33.1042 18.3592 33.9229 16.6846C34.2314 15.9618 34.4505 15.1622 34.4844 14.375C34.4875 14.3164 34.4906 14.2578 34.4939 14.1974C34.5442 12.3667 33.8402 10.7046 32.6094 9.37501C31.3536 8.08559 29.6676 7.37564 27.8731 7.32911C26.1978 7.35469 24.641 7.94827 23.3906 9.06251ZM17.4531 16.9531C17.3133 17.5823 17.6786 18.1478 18 18.6719C18.1923 18.9487 18.3995 19.2029 18.625 19.4531C18.6682 19.5027 18.7114 19.5522 18.7559 19.6033C19.1865 20.0677 19.7525 20.5254 20.3877 20.6445C21.0873 20.6644 21.626 20.1793 22.1089 19.7268C22.7758 19.0743 23.5256 18.204 23.5957 17.2315C23.5742 16.9476 23.5742 16.9476 23.3791 16.792C21.8712 15.7675 18.8393 15.6348 17.4531 16.9531ZM6.0469 17.8125C5.30376 19.1565 4.88373 20.5976 4.64065 22.1094C4.62564 22.2023 4.61064 22.2953 4.59518 22.3911C4.41079 23.9714 4.516 25.6435 4.87502 27.1875C4.88882 27.2474 4.90262 27.3072 4.91683 27.3689C5.12306 28.2253 5.4614 29.0309 5.81344 29.8364C5.83959 29.8963 5.86574 29.9562 5.89269 30.0179C5.95926 30.17 5.95925 30.17 6.12502 30.2344C6.17145 30.1663 6.21787 30.0982 6.26571 30.0281C6.72104 29.37 7.21035 28.7785 7.76565 28.2031C7.82637 28.1375 7.8871 28.0718 7.94967 28.0042C10.968 24.8291 15.754 23.4896 20.0001 23.3371C24.714 23.2368 29.5343 24.6907 33 27.9688C33.1021 28.0633 33.1021 28.0633 33.2063 28.1598C33.7803 28.7092 34.2452 29.3145 34.7067 29.9593C34.8016 30.0899 34.8016 30.0899 34.9531 30.2344C35.6963 28.8904 36.1163 27.4492 36.3594 25.9375C36.3744 25.8446 36.3894 25.7516 36.4049 25.6558C36.5893 24.0755 36.484 22.4033 36.125 20.8594C36.1112 20.7995 36.0974 20.7397 36.0832 20.678C35.877 19.8216 35.5387 19.016 35.1866 18.2105C35.1605 18.1506 35.1343 18.0907 35.1074 18.029C35.0408 17.8769 35.0408 17.8769 34.875 17.8125C34.8342 17.8806 34.7934 17.9487 34.7514 18.0188C33.5064 20.0511 31.7088 21.2618 29.413 21.8558C27.4947 22.251 25.3887 21.8793 23.7276 20.8594C23.6547 20.811 23.5819 20.7627 23.5069 20.7129C23.3206 20.6034 23.3206 20.6034 23.1474 20.6726C22.9952 20.7848 22.862 20.9033 22.7266 21.0352C22.0971 21.5977 21.227 22.0058 20.3688 21.9772C19.3699 21.8444 18.5141 21.3678 17.8438 20.625C17.5635 20.7295 17.3023 20.8579 17.0379 20.9974C15.1378 21.9921 12.939 22.2907 10.8659 21.6641C9.01085 21.0722 7.55452 19.9709 6.45034 18.3701C6.31966 18.1806 6.18672 17.9952 6.0469 17.8125ZM9.01565 28.9063C8.97859 28.9408 8.94153 28.9753 8.90334 29.0109C8.06541 29.7948 7.37013 30.6592 6.90627 31.7188C7.32817 32.2807 7.7559 32.8261 8.23287 33.3432C8.37026 33.4934 8.50066 33.6466 8.6299 33.8037C8.88835 34.1055 9.17832 34.3569 9.4844 34.6094C9.52895 34.6463 9.5735 34.6831 9.6194 34.7211C9.77244 34.8473 9.92615 34.9726 10.0801 35.0977C10.1296 35.1383 10.1791 35.1789 10.2301 35.2207C10.5148 35.4496 10.7892 35.6304 11.125 35.7813C11.1478 35.7341 11.1705 35.687 11.194 35.6384C11.4541 35.1312 11.6656 34.8719 12.2188 34.6875C12.3566 34.6802 12.4946 34.6773 12.6326 34.6771C12.714 34.677 12.7953 34.6769 12.8792 34.6768C12.9642 34.6771 13.0492 34.6774 13.1367 34.6777C13.2205 34.6774 13.3043 34.6771 13.3906 34.6768C14.0798 34.6777 14.0798 34.6777 14.4075 34.7321C14.6394 34.7655 14.7334 34.743 14.9531 34.6875C15.2475 34.6682 15.542 34.6694 15.8369 34.668C15.9166 34.6664 15.9964 34.6648 16.0785 34.6631C16.5511 34.6606 16.8776 34.7026 17.2969 34.9219C17.3742 34.9477 17.4516 34.9734 17.5313 35C17.6192 35.1904 17.6192 35.1904 17.6875 35.3906C17.7133 35.4422 17.7391 35.4938 17.7656 35.5469C17.7779 35.7632 17.7858 35.9779 17.7904 36.1945C17.7928 36.2904 17.7928 36.2904 17.7953 36.3882C17.8004 36.5928 17.805 36.7974 17.8096 37.002C17.813 37.1405 17.8164 37.2791 17.8198 37.4176C17.8282 37.7576 17.8361 38.0975 17.8438 38.4375C18.6534 38.5834 19.437 38.6182 20.2574 38.6141C20.4555 38.6133 20.6536 38.6141 20.8517 38.6151C21.6334 38.6157 22.3845 38.5651 23.1563 38.4375C23.1574 38.3105 23.1574 38.3105 23.1585 38.1808C23.1616 37.8647 23.1668 37.5486 23.1725 37.2325C23.1747 37.0961 23.1763 36.9596 23.1774 36.8231C23.1791 36.6263 23.1828 36.4295 23.1868 36.2326C23.1869 36.1722 23.187 36.1118 23.1871 36.0496C23.1986 35.6158 23.2996 35.3583 23.5469 35C23.9008 34.7346 24.2171 34.6777 24.6516 34.6771C24.7675 34.677 24.7675 34.677 24.8857 34.6768C25.0061 34.6773 25.0061 34.6773 25.1289 34.6777C25.208 34.6774 25.287 34.6771 25.3685 34.6768C25.7171 34.6773 26.0566 34.6829 26.4021 34.7321C26.6698 34.785 26.6698 34.785 26.9063 34.6875C27.2103 34.6652 27.5147 34.6658 27.8194 34.6631C27.9441 34.6597 27.9441 34.6597 28.0713 34.6562C28.5787 34.6522 28.99 34.6891 29.4063 35C29.6017 35.2469 29.736 35.5008 29.875 35.7813C30.5208 35.4874 31.0207 35.0325 31.545 34.5657C31.6554 34.4678 31.7671 34.3714 31.8791 34.2752C32.2631 33.9437 32.5976 33.5926 32.9219 33.2031C33.0178 33.0913 33.0178 33.0913 33.1157 32.9773C33.4792 32.5515 33.8131 32.1271 34.0938 31.6406C33.1759 29.9539 31.8687 28.5567 30.2656 27.5C30.1816 27.4442 30.0975 27.3884 30.0108 27.3309C23.8792 23.4242 14.6585 23.675 9.01565 28.9063ZM12.5313 36.0156C12.525 36.3591 12.5203 36.7024 12.5166 37.0459C12.5147 37.1432 12.5127 37.2406 12.5107 37.3409C12.5099 37.4348 12.5092 37.5287 12.5084 37.6254C12.5072 37.7118 12.5059 37.7981 12.5047 37.887C12.5347 38.1554 12.6056 38.3002 12.7656 38.5156C13.0101 38.6378 13.1997 38.6216 13.4688 38.5938C13.6858 38.3858 13.7734 38.2574 13.8167 37.958C13.8151 37.8684 13.8135 37.7788 13.8118 37.6865C13.8108 37.589 13.8098 37.4916 13.8087 37.3912C13.8061 37.2901 13.8035 37.1891 13.8008 37.085C13.7994 36.9824 13.798 36.8798 13.7965 36.7741C13.7929 36.5213 13.7872 36.2685 13.7813 36.0156C13.3688 36.0156 12.9563 36.0156 12.5313 36.0156ZM15.1875 36.0156C15.1812 36.3591 15.1765 36.7024 15.1729 37.0459C15.1709 37.1432 15.1689 37.2406 15.1669 37.3409C15.1662 37.4348 15.1654 37.5287 15.1646 37.6254C15.1634 37.7118 15.1622 37.7981 15.1609 37.887C15.1909 38.1554 15.2619 38.3002 15.4219 38.5156C15.6634 38.6364 15.859 38.6167 16.125 38.5938C16.3074 38.4743 16.3074 38.4743 16.4375 38.2813C16.4805 38.0322 16.4805 38.0322 16.468 37.7551C16.467 37.6539 16.466 37.5527 16.465 37.4484C16.4624 37.3419 16.4597 37.2354 16.4571 37.1289C16.4555 37.0212 16.4541 36.9135 16.4528 36.8057C16.4491 36.5423 16.4435 36.279 16.4375 36.0156C16.025 36.0156 15.6125 36.0156 15.1875 36.0156ZM24.5625 36.0156C24.5553 36.3326 24.5491 36.6494 24.5454 36.9664C24.5438 37.0742 24.5417 37.182 24.5389 37.2897C24.5351 37.4448 24.5335 37.6 24.532 37.7551C24.5304 37.8484 24.5287 37.9417 24.527 38.0378C24.5434 38.2871 24.5434 38.2871 24.7036 38.4679C24.9533 38.6512 25.1201 38.6369 25.4219 38.5938C25.6067 38.4479 25.7079 38.3343 25.8125 38.125C25.8192 37.9662 25.8209 37.8072 25.8202 37.6483C25.8198 37.5063 25.8198 37.5063 25.8194 37.3615C25.8187 37.2622 25.8181 37.1629 25.8174 37.0606C25.8171 36.9607 25.8167 36.8607 25.8163 36.7578C25.8154 36.5104 25.814 36.263 25.8125 36.0156C25.4 36.0156 24.9875 36.0156 24.5625 36.0156ZM27.2188 36.0156C27.2103 36.3721 27.2041 36.7284 27.1992 37.085C27.1966 37.186 27.194 37.2871 27.1913 37.3912C27.1903 37.4886 27.1893 37.5861 27.1883 37.6865C27.1866 37.7761 27.185 37.8657 27.1833 37.958C27.2266 38.2573 27.3152 38.3852 27.5313 38.5938C27.8269 38.636 28.0007 38.6365 28.2637 38.4912C28.5067 38.2389 28.478 37.9727 28.4764 37.6407C28.4762 37.5463 28.4759 37.4519 28.4756 37.3546C28.475 37.2559 28.4743 37.1573 28.4737 37.0557C28.4733 36.9561 28.4729 36.8566 28.4726 36.754C28.4717 36.5079 28.4703 36.2618 28.4688 36.0156C28.0563 36.0156 27.6438 36.0156 27.2188 36.0156Z" fill="white" fill-opacity="0.8"/>
<path d="M15.7191 12.832C16.4959 13.5165 16.4959 13.5165 16.5547 13.9795C16.5435 14.2399 16.511 14.3036 16.3545 14.5313C16.125 14.6875 16.125 14.6875 15.8662 14.7461C15.5126 14.6742 15.373 14.5363 15.117 14.2926C14.5768 13.7917 13.9462 13.4397 13.2002 13.4082C12.4556 13.4393 11.7513 13.7277 11.2343 14.2725C11.1434 14.3829 11.0558 14.496 10.9688 14.6094C10.7165 14.7355 10.4603 14.7329 10.1875 14.6875C9.90289 14.4918 9.81342 14.3766 9.74316 14.0381C9.86053 13.4086 10.3441 13.0174 10.8354 12.6425C12.3331 11.6333 14.3074 11.6996 15.7191 12.832Z" fill="white" fill-opacity="0.8"/>
<path d="M30.1875 12.6562C31.1563 13.4224 31.1563 13.4224 31.2422 14.0234C31.2031 14.2969 31.2031 14.2969 31.0469 14.5264C30.7853 14.7062 30.6474 14.7462 30.3367 14.7253C30.0817 14.6606 29.9634 14.4933 29.7969 14.2969C29.3468 13.8514 28.8 13.5019 28.1563 13.4375C28.0822 13.4301 28.0822 13.4301 28.0067 13.4225C27.2876 13.3831 26.6627 13.6519 26.1064 14.0942C25.9714 14.2164 25.8545 14.3458 25.7344 14.4824C25.4593 14.7231 25.4593 14.7231 25.1826 14.7412C24.875 14.6875 24.875 14.6875 24.6406 14.5312C24.4843 14.2967 24.4078 14.1328 24.4267 13.8473C24.6593 13.1396 25.439 12.6586 26.0664 12.3297C27.3987 11.696 28.9684 11.8225 30.1875 12.6562Z" fill="white" fill-opacity="0.8"/>
<path d="M19.3138 33.9432C19.5951 34.0111 19.7585 34.2017 19.9626 34.3982C20.1585 34.5758 20.3159 34.6525 20.5781 34.6875C20.7883 34.6013 20.9305 34.4904 21.0926 34.3326C21.3336 34.1031 21.5006 33.9514 21.8428 33.9355C22.1663 33.9886 22.2623 34.0373 22.4531 34.2969C22.571 34.5326 22.5703 34.6581 22.5312 34.9219C22.3732 35.1552 22.1849 35.3497 21.9844 35.5469C21.9461 35.5859 21.9078 35.625 21.8684 35.6653C21.4785 36.0289 21.0264 36.1477 20.5098 36.2061C19.7266 36.1641 19.2203 35.8115 18.6952 35.2533C18.4608 34.9764 18.4471 34.8135 18.4687 34.4531C18.6168 34.0432 18.8854 33.9361 19.3138 33.9432Z" fill="white" fill-opacity="0.8"/>
<path d="M19.3089 29.9447C19.6202 30.0427 19.8371 30.2675 20.0709 30.4882C20.3175 30.6614 20.4387 30.6742 20.7344 30.625C20.9352 30.4909 20.9352 30.4909 21.1152 30.3125C21.5365 29.954 21.5365 29.954 21.8574 29.9463C22.2982 30.0299 22.2982 30.0299 22.4531 30.2343C22.5421 30.4776 22.5696 30.6806 22.5313 30.9375C22.3843 31.1857 22.1971 31.3695 21.9844 31.5625C21.9424 31.6021 21.9004 31.6418 21.8571 31.6827C21.4274 32.0664 20.9868 32.1792 20.4219 32.1875C19.6066 32.1016 19.0777 31.6919 18.5469 31.0937C18.4243 30.8485 18.4413 30.661 18.4688 30.3906C18.6906 30.0648 18.9039 29.9241 19.3089 29.9447Z" fill="white" fill-opacity="0.8"/>
<path d="M19.7984 26.2262C19.8511 26.2759 19.9037 26.3257 19.958 26.3769C20.1508 26.5531 20.2456 26.6348 20.5 26.709C20.8086 26.6189 20.9706 26.4439 21.2022 26.2268C21.4279 26.0357 21.6138 25.97 21.9062 25.9375C22.2227 26.0509 22.3438 26.125 22.5312 26.4062C22.58 26.6827 22.5839 26.8678 22.4336 27.1112C22.0648 27.5568 21.6002 27.9405 21.0469 28.125C20.3367 28.1896 19.7603 28.1601 19.1719 27.7343C18.4864 27.1398 18.4864 27.1398 18.4443 26.6943C18.4727 26.3591 18.5393 26.2441 18.7812 26.0156C19.1298 25.8353 19.5176 25.9905 19.7984 26.2262Z" fill="white" fill-opacity="0.8"/>
<path d="M24.001 31.2732C24.3007 31.3695 24.4959 31.5878 24.7127 31.8088C24.88 31.9576 24.9669 32.0105 25.1875 32.0312C25.488 31.9177 25.692 31.767 25.9199 31.5479C26.1198 31.3715 26.2573 31.2892 26.5254 31.2695C26.8281 31.3281 26.8281 31.3281 27.0674 31.5283C27.2188 31.7969 27.2188 31.7969 27.2383 32.0605C27.0293 32.6666 26.5658 33.0438 26.0164 33.3493C25.4641 33.5882 24.8893 33.5573 24.3281 33.3594C23.8709 33.1212 23.2709 32.678 23.0977 32.1729C23.0803 31.8862 23.1555 31.7199 23.3125 31.4844C23.5493 31.3265 23.7135 31.258 24.001 31.2732Z" fill="white" fill-opacity="0.8"/>
<path d="M14.6208 31.2704C14.9336 31.3729 15.1575 31.5911 15.3987 31.8088C15.5735 31.9494 15.6698 32.0098 15.8906 32.0313C16.0914 31.939 16.2468 31.8301 16.4058 31.6766C16.6426 31.4495 16.8134 31.2947 17.1504 31.2744C17.4531 31.3281 17.4531 31.3281 17.6875 31.4844C17.841 31.7146 17.929 31.8808 17.9124 32.1622C17.7184 32.6752 17.1803 33.1056 16.7061 33.3417C16.152 33.5394 15.5818 33.5933 15.0312 33.3594C14.469 33.0576 13.9732 32.6852 13.7666 32.0654C13.7812 31.7969 13.7812 31.7969 13.9326 31.5283C14.1711 31.3288 14.3068 31.2496 14.6208 31.2704Z" fill="white" fill-opacity="0.8"/>
<path d="M15.1057 27.5543C15.2098 27.6524 15.312 27.7525 15.4121 27.8546C15.6414 28.0122 15.7737 28.0095 16.0469 27.9688C16.2558 27.8381 16.2558 27.8381 16.4424 27.6611C16.7001 27.4303 16.8688 27.2958 17.2187 27.2656C17.4474 27.3255 17.5782 27.3928 17.751 27.5537C17.8905 27.8255 17.8942 27.9783 17.8437 28.2812C17.6875 28.5175 17.5005 28.7104 17.2969 28.9062C17.2559 28.9461 17.2149 28.986 17.1727 29.0271C16.6884 29.4638 16.169 29.493 15.5424 29.4824C14.9145 29.416 14.4734 29.098 14.0449 28.652C13.8461 28.3995 13.7794 28.2561 13.791 27.9297C13.8657 27.6308 13.9274 27.5254 14.1719 27.3438C14.5155 27.1834 14.8307 27.3156 15.1057 27.5543Z" fill="white" fill-opacity="0.8"/>
<path d="M24.3281 27.4219C24.4227 27.5129 24.5137 27.6076 24.6016 27.7051C24.7968 27.9121 24.857 27.9642 25.1436 28.0371C25.4888 27.9523 25.6443 27.795 25.8979 27.5549C26.0984 27.3758 26.2483 27.2998 26.5156 27.2656C26.7925 27.3487 26.9892 27.4145 27.1797 27.6367C27.2413 27.9141 27.2188 28.0835 27.1406 28.3594C26.8002 28.8769 26.322 29.2572 25.7344 29.4531C25.0889 29.5037 24.4831 29.5243 23.9375 29.1406C23.1743 28.4724 23.1743 28.4724 23.1318 28.0225C23.1602 27.6872 23.2268 27.5723 23.4688 27.3438C23.7656 27.1902 24.0329 27.3018 24.3281 27.4219Z" fill="white" fill-opacity="0.8"/>
<path d="M28.6754 29.9557C28.9634 30.025 29.1081 30.1996 29.2961 30.4196C29.4563 30.6047 29.5585 30.6243 29.8018 30.6689C30.1523 30.6189 30.2083 30.5536 30.4512 30.3125C30.6955 30.0769 30.8438 29.9527 31.1885 29.9414C31.4081 29.9648 31.52 30.0024 31.7158 30.1123C31.8875 30.4183 31.9106 30.6744 31.8281 31.0156C31.522 31.5335 31.0236 31.916 30.453 32.095C29.7863 32.2443 29.2281 32.1853 28.6445 31.8213C28.2698 31.5489 27.9332 31.2505 27.7656 30.8105C27.7656 30.527 27.8457 30.3278 28.0244 30.1086C28.2332 29.9366 28.4127 29.9493 28.6754 29.9557Z" fill="white" fill-opacity="0.8"/>
<path d="M10.1875 30C10.3814 30.149 10.5497 30.3134 10.7249 30.4837C10.892 30.6469 10.892 30.6469 11.169 30.6983C11.5561 30.5927 11.7855 30.3599 12.0625 30.0782C12.1851 29.9556 12.3079 29.9809 12.4776 29.9756C12.7338 29.9789 12.8216 29.985 13.0391 30.1319C13.1748 30.3411 13.2286 30.4528 13.2344 30.7032C13.0809 31.2842 12.6559 31.656 12.1513 31.9638C11.5602 32.2424 10.9523 32.2369 10.3438 32.0313C9.88942 31.8016 9.41729 31.4731 9.17189 31.0157C9.09769 30.6763 9.11371 30.4163 9.2842 30.1123C9.59088 29.9403 9.84624 29.9058 10.1875 30Z" fill="white" fill-opacity="0.8"/>
</g>
<defs>
<clipPath id="clip0_1196_628">
<rect width="40" height="40" fill="white" transform="translate(0.5)"/>
</clipPath>
</defs>
</svg>
