<svg width="24" height="24" viewBox="0 0 24 24" fill="none" xmlns="http://www.w3.org/2000/svg">
<path fill-rule="evenodd" clip-rule="evenodd" d="M12 24C18.6274 24 24 18.6274 24 12C24 5.37258 18.6274 0 12 0C5.37258 0 0 5.37258 0 12C0 18.6274 5.37258 24 12 24ZM11.1318 14.1973H12.4033C12.4033 13.86 12.4466 13.5456 12.5332 13.2539C12.6198 12.9622 12.7884 12.7002 13.0391 12.4678C13.3307 12.1943 13.6064 11.9072 13.8662 11.6064C14.126 11.3057 14.3379 10.9844 14.502 10.6426C14.6706 10.2962 14.7549 9.91797 14.7549 9.50781C14.7549 8.97461 14.6478 8.51432 14.4336 8.12695C14.2194 7.73503 13.9072 7.43424 13.4971 7.22461C13.0915 7.01497 12.5993 6.91016 12.0205 6.91016C11.4964 6.91016 11.0225 7.00814 10.5986 7.2041C10.1748 7.40006 9.83757 7.68262 9.58691 8.05176C9.34082 8.4209 9.21322 8.86296 9.2041 9.37793H10.4688C10.4733 9.05892 10.5485 8.80143 10.6943 8.60547C10.8402 8.40495 11.0316 8.25684 11.2686 8.16113C11.5055 8.06543 11.7562 8.01758 12.0205 8.01758C12.3395 8.01758 12.6061 8.0791 12.8203 8.20215C13.0391 8.3252 13.2031 8.50065 13.3125 8.72852C13.4264 8.95638 13.4834 9.22754 13.4834 9.54199C13.4834 9.85189 13.4287 10.1185 13.3193 10.3418C13.21 10.5605 13.0664 10.7656 12.8887 10.957C12.7155 11.1439 12.5241 11.3444 12.3145 11.5586C12.0273 11.8548 11.7972 12.1191 11.624 12.3516C11.4508 12.584 11.3255 12.8415 11.248 13.124C11.1751 13.402 11.1364 13.7598 11.1318 14.1973ZM11.2686 15.8447C11.141 15.986 11.0771 16.1592 11.0771 16.3643C11.0771 16.5602 11.141 16.7288 11.2686 16.8701C11.3962 17.0114 11.5807 17.082 11.8223 17.082C12.0684 17.082 12.2552 17.0114 12.3828 16.8701C12.5104 16.7288 12.5742 16.5602 12.5742 16.3643C12.5742 16.1592 12.5104 15.986 12.3828 15.8447C12.2552 15.7035 12.0684 15.6328 11.8223 15.6328C11.5807 15.6328 11.3962 15.7035 11.2686 15.8447Z" fill="white" fill-opacity="0.6"/>
</svg>
