<svg width="97" height="40" viewBox="0 0 97 40" fill="none" xmlns="http://www.w3.org/2000/svg">
<g clip-path="url(#clip0_1245_655)">
<path d="M9.95315 0.390632C10.1753 0.545133 10.3908 0.706635 10.6068 0.869453C11.2738 1.34344 11.9671 1.41028 12.7656 1.32813C13.2483 1.24336 13.7169 1.09951 14.1865 0.961921C14.315 0.925581 14.4436 0.889419 14.5722 0.853431C14.8224 0.783315 15.0724 0.712629 15.3223 0.641372C15.7299 0.525534 16.139 0.416318 16.5498 0.312507C16.604 0.298238 16.6581 0.283969 16.7139 0.269267C16.8815 0.227043 17.0494 0.190599 17.2188 0.156257C17.2875 0.141938 17.3562 0.127618 17.427 0.112865C18.3398 -0.0472733 19.2632 -0.0262852 20.187 -0.024655C20.4787 -0.0244085 20.7704 -0.0262443 21.0622 -0.0282217C22.0971 -0.0310148 23.0823 0.00835948 24.0938 0.234382C24.2116 0.260676 24.2116 0.260676 24.3319 0.287502C24.5337 0.335912 24.7336 0.388968 24.9336 0.444343C25.0065 0.463692 25.0793 0.48304 25.1544 0.502975C25.5479 0.60788 25.9401 0.716843 26.3317 0.828818C26.5375 0.887402 26.7435 0.944816 26.9497 1.00214C27.0965 1.0435 27.2429 1.08656 27.3893 1.12967C28.3178 1.38801 29.226 1.48643 30.1222 1.06477C30.4327 0.886404 30.7118 0.673928 30.9975 0.458686C31.6662 -0.0165771 32.3471 -0.0977573 33.1563 7.03335e-06C33.7717 0.172306 34.2122 0.56832 34.5625 1.09376C35.7218 3.31578 35.2978 6.39036 34.6006 8.68592C34.5077 8.99844 34.4495 9.22075 34.5625 9.53126C34.6541 9.69655 34.7508 9.85907 34.8506 10.0195C35.6745 11.4104 36.1793 13.2993 35.8101 14.902C35.6208 15.7514 35.6309 16.2266 36.1031 16.9699C36.1785 17.0866 36.254 17.2034 36.3295 17.32C37.9562 20.0309 38.3071 23.9877 37.6094 27.0313C37.596 27.0917 37.5826 27.1521 37.5688 27.2143C37.2461 28.6334 36.7353 29.9697 36.0469 31.25C36.0105 31.3193 36.0105 31.3193 35.9735 31.3899C35.4148 32.4503 34.6964 33.3946 33.8774 34.267C33.7225 34.4325 33.5756 34.6019 33.4297 34.7754C32.9256 35.3504 32.3335 35.8228 31.7305 36.2891C31.6739 36.3331 31.6173 36.377 31.559 36.4224C31.2892 36.628 31.0232 36.8169 30.7237 36.9769C30.169 37.2594 30.169 37.2594 29.8619 37.7817C29.8383 37.9858 29.8215 38.1908 29.8119 38.396C29.7846 38.8987 29.5897 39.2194 29.2256 39.5557C28.6199 40.0227 28.0556 40.0961 27.2969 40C27.0619 39.9053 26.8446 39.7938 26.6206 39.6759C26.4197 39.5785 26.4197 39.5785 26.1641 39.7363C26.0996 39.7976 26.0352 39.8588 25.9688 39.9219C25.6896 40.0149 25.4574 40.016 25.1631 40.0195C25.0113 40.0226 25.0113 40.0226 24.8564 40.0256C24.5625 40 24.5625 40 24.3407 39.8752C23.9734 39.7122 23.6806 39.8018 23.293 39.8682C22.3607 40.0025 21.4405 40.0296 20.5 40.0293C20.3936 40.0293 20.3936 40.0293 20.2849 40.0294C19.3377 40.0271 18.4109 39.9887 17.4751 39.8285C17.0354 39.7567 16.835 39.7732 16.4375 40C15.7611 40.0818 15.2213 40.0449 14.6406 39.6875C14.3889 39.6875 14.3218 39.7263 14.1084 39.8438C13.5618 40.0921 12.9549 40.1048 12.382 39.931C11.8193 39.6747 11.436 39.3125 11.2178 38.7305C11.1512 38.5212 11.1235 38.3762 11.1433 38.1564C11.1632 37.8907 11.1553 37.7467 11.0469 37.5C10.6836 37.1609 10.2358 36.9205 9.81097 36.6672C9.24333 36.3183 8.75333 35.8501 8.26339 35.4022C8.09864 35.253 7.93066 35.1091 7.76076 34.9658C6.34316 33.7244 5.26829 32.0112 4.4844 30.3125C4.4428 30.2237 4.40121 30.1349 4.35836 30.0433C3.63289 28.4275 3.15721 26.6214 3.13766 24.8441C3.13689 24.7861 3.13613 24.7281 3.13534 24.6683C3.10895 22.1457 3.37168 19.3259 4.78438 17.1442C5.25891 16.4095 5.41551 15.9678 5.23362 15.098C5.20488 14.969 5.17569 14.8401 5.14602 14.7113C4.84153 13.2145 5.3408 11.3019 6.15594 10.0347C6.23636 9.91589 6.32093 9.79988 6.40578 9.68415C6.61768 9.23857 6.42729 8.76018 6.30361 8.30519C5.70262 6.09418 5.31168 3.20541 6.43752 1.09376C7.29908 -0.143263 8.6427 -0.36206 9.95315 0.390632ZM14.0867 2.4493C12.7787 2.82071 11.4645 2.95982 10.2113 2.31324C10.0159 2.19966 9.8281 2.07945 9.64065 1.95313C9.54215 1.88802 9.54215 1.88802 9.44167 1.8216C9.32039 1.74107 9.19949 1.65996 9.07912 1.57807C8.78075 1.38065 8.50722 1.3596 8.15627 1.40626C7.69261 1.65916 7.52949 2.09515 7.38174 2.5763C6.94925 4.36688 7.23497 6.28802 7.68752 8.04688C7.96306 7.92456 8.17559 7.75643 8.41018 7.56837C10.1103 6.26297 12.2841 5.82205 14.3864 6.08983C16.407 6.3856 18.3171 7.52583 19.5625 9.14063C19.8818 9.61865 20.1699 10.1078 20.4219 10.625C20.4735 10.625 20.525 10.625 20.5781 10.625C20.6151 10.5504 20.6521 10.4758 20.6901 10.3989C21.0291 9.73 21.3975 9.15081 21.9063 8.59376C21.9598 8.53384 22.0134 8.47392 22.0686 8.41218C23.5291 6.86242 25.5108 6.13639 27.6012 6.00098C29.496 5.95553 31.3324 6.56031 32.8084 7.74354C32.9744 7.87094 33.1252 7.95739 33.3125 8.04688C33.3766 7.74915 33.4398 7.45125 33.503 7.15333C33.5209 7.06979 33.5389 6.98625 33.5574 6.90018C33.8909 5.31998 34.1489 3.14428 33.2344 1.71876C33.0088 1.46812 32.8894 1.41398 32.5557 1.35743C32.0526 1.38391 31.6582 1.72112 31.259 1.99952C30.2595 2.69051 29.1997 2.89032 28 2.73438C27.1233 2.56338 26.2633 2.30219 25.4048 2.05823C25.0142 1.94765 24.6223 1.84191 24.2299 1.73798C24.1693 1.72178 24.1086 1.70557 24.0462 1.68887C23.5455 1.55706 23.0463 1.46276 22.5313 1.40626C22.4523 1.3976 22.3734 1.38894 22.292 1.38001C19.4165 1.12426 16.8281 1.66692 14.0867 2.4493ZM8.2344 9.49952C7.2634 10.6677 6.60359 12.0614 6.51565 13.5938C6.51152 13.6557 6.50739 13.7176 6.50313 13.7814C6.43991 15.6095 7.19041 17.2878 8.40316 18.6234C9.53309 19.8011 11.1198 20.5788 12.7653 20.6409C14.2266 20.6669 15.6109 20.3759 16.8281 19.5313C16.7268 19.2025 16.5998 18.9114 16.4375 18.6084C16.0792 17.8979 15.9271 17.2462 16.1812 16.4688C16.472 15.8108 16.9848 15.5077 17.6353 15.2521C18.1091 15.0937 18.5917 14.9727 19.0764 14.8526C19.326 14.7897 19.5608 14.7138 19.7969 14.6094C19.8685 12.5912 19.2698 10.8881 17.935 9.36829C16.8144 8.17451 15.1763 7.43961 13.5469 7.34376C13.4937 7.34053 13.4405 7.33731 13.3858 7.33399C11.4501 7.27706 9.56364 8.10381 8.2344 9.49952ZM23.3906 9.06251C23.3313 9.11447 23.272 9.16644 23.2109 9.21998C22.6949 9.70118 22.3394 10.2559 21.9844 10.8594C21.9448 10.9263 21.9052 10.9931 21.8645 11.062C21.3757 11.9589 21.1862 13.006 21.1983 14.0186C21.1986 14.0757 21.199 14.1329 21.1993 14.1917C21.2002 14.331 21.2016 14.4702 21.2031 14.6094C21.495 14.7815 21.8086 14.8375 22.1358 14.9072C23.1365 15.1322 24.0905 15.3949 24.7188 16.25C24.9894 16.7371 25.0105 17.3806 24.8762 17.9138C24.7416 18.2721 24.5619 18.6096 24.3794 18.9457C24.3048 19.086 24.2377 19.2303 24.1719 19.375C24.2678 19.6626 24.3849 19.7029 24.6459 19.8364C24.7005 19.863 24.7552 19.8896 24.8115 19.917C24.8675 19.9445 24.9234 19.9721 24.9811 20.0005C26.5711 20.7595 28.3833 20.854 30.0484 20.2808C31.8059 19.6324 33.1042 18.3592 33.9229 16.6846C34.2314 15.9618 34.4505 15.1622 34.4844 14.375C34.4875 14.3164 34.4906 14.2578 34.4939 14.1974C34.5442 12.3667 33.8402 10.7046 32.6094 9.37501C31.3536 8.08559 29.6676 7.37564 27.8731 7.32911C26.1978 7.35469 24.641 7.94827 23.3906 9.06251ZM17.4531 16.9531C17.3133 17.5823 17.6786 18.1478 18 18.6719C18.1923 18.9487 18.3995 19.2029 18.625 19.4531C18.6682 19.5027 18.7114 19.5522 18.7559 19.6033C19.1865 20.0677 19.7525 20.5254 20.3877 20.6445C21.0873 20.6644 21.626 20.1793 22.1089 19.7268C22.7758 19.0743 23.5256 18.204 23.5957 17.2315C23.5742 16.9476 23.5742 16.9476 23.3791 16.792C21.8712 15.7675 18.8393 15.6348 17.4531 16.9531ZM6.0469 17.8125C5.30376 19.1565 4.88373 20.5976 4.64065 22.1094C4.62564 22.2023 4.61064 22.2953 4.59518 22.3911C4.41079 23.9714 4.516 25.6435 4.87502 27.1875C4.88882 27.2474 4.90262 27.3072 4.91683 27.3689C5.12306 28.2253 5.4614 29.0309 5.81344 29.8364C5.83959 29.8963 5.86574 29.9562 5.89269 30.0179C5.95926 30.17 5.95925 30.17 6.12502 30.2344C6.17145 30.1663 6.21787 30.0982 6.26571 30.0281C6.72104 29.37 7.21035 28.7785 7.76565 28.2031C7.82637 28.1375 7.8871 28.0718 7.94967 28.0042C10.968 24.8291 15.754 23.4896 20.0001 23.3371C24.714 23.2368 29.5343 24.6907 33 27.9688C33.1021 28.0633 33.1021 28.0633 33.2063 28.1598C33.7803 28.7092 34.2452 29.3145 34.7067 29.9593C34.8016 30.0899 34.8016 30.0899 34.9531 30.2344C35.6963 28.8904 36.1163 27.4492 36.3594 25.9375C36.3744 25.8446 36.3894 25.7516 36.4049 25.6558C36.5893 24.0755 36.484 22.4033 36.125 20.8594C36.1112 20.7995 36.0974 20.7397 36.0832 20.678C35.877 19.8216 35.5387 19.016 35.1866 18.2105C35.1605 18.1506 35.1343 18.0907 35.1074 18.029C35.0408 17.8769 35.0408 17.8769 34.875 17.8125C34.8342 17.8806 34.7934 17.9487 34.7514 18.0188C33.5064 20.0511 31.7088 21.2618 29.413 21.8558C27.4947 22.251 25.3887 21.8793 23.7276 20.8594C23.6547 20.811 23.5819 20.7627 23.5069 20.7129C23.3206 20.6034 23.3206 20.6034 23.1474 20.6726C22.9952 20.7848 22.862 20.9033 22.7266 21.0352C22.0971 21.5977 21.227 22.0058 20.3688 21.9772C19.3699 21.8444 18.5141 21.3678 17.8438 20.625C17.5635 20.7295 17.3023 20.8579 17.0379 20.9974C15.1378 21.9921 12.939 22.2907 10.8659 21.6641C9.01085 21.0722 7.55452 19.9709 6.45034 18.3701C6.31966 18.1806 6.18672 17.9952 6.0469 17.8125ZM9.01565 28.9063C8.97859 28.9408 8.94153 28.9753 8.90334 29.0109C8.06541 29.7948 7.37013 30.6592 6.90627 31.7188C7.32817 32.2807 7.7559 32.8261 8.23287 33.3432C8.37026 33.4934 8.50066 33.6466 8.6299 33.8037C8.88835 34.1055 9.17832 34.3569 9.4844 34.6094C9.52895 34.6463 9.5735 34.6831 9.6194 34.7211C9.77244 34.8473 9.92615 34.9726 10.0801 35.0977C10.1296 35.1383 10.1791 35.1789 10.2301 35.2207C10.5148 35.4496 10.7892 35.6304 11.125 35.7813C11.1478 35.7341 11.1705 35.687 11.194 35.6384C11.4541 35.1312 11.6656 34.8719 12.2188 34.6875C12.3566 34.6802 12.4946 34.6773 12.6326 34.6771C12.714 34.677 12.7953 34.6769 12.8792 34.6768C12.9642 34.6771 13.0492 34.6774 13.1367 34.6777C13.2205 34.6774 13.3043 34.6771 13.3906 34.6768C14.0798 34.6777 14.0798 34.6777 14.4075 34.7321C14.6394 34.7655 14.7334 34.743 14.9531 34.6875C15.2475 34.6682 15.542 34.6694 15.8369 34.668C15.9166 34.6664 15.9964 34.6648 16.0785 34.6631C16.5511 34.6606 16.8776 34.7026 17.2969 34.9219C17.3742 34.9477 17.4516 34.9734 17.5313 35C17.6192 35.1904 17.6192 35.1904 17.6875 35.3906C17.7133 35.4422 17.7391 35.4938 17.7656 35.5469C17.7779 35.7632 17.7858 35.9779 17.7904 36.1945C17.7928 36.2904 17.7928 36.2904 17.7953 36.3882C17.8004 36.5928 17.805 36.7974 17.8096 37.002C17.813 37.1405 17.8164 37.2791 17.8198 37.4176C17.8282 37.7576 17.8361 38.0975 17.8438 38.4375C18.6534 38.5834 19.437 38.6182 20.2574 38.6141C20.4555 38.6133 20.6536 38.6141 20.8517 38.6151C21.6334 38.6157 22.3845 38.5651 23.1563 38.4375C23.1574 38.3105 23.1574 38.3105 23.1585 38.1808C23.1616 37.8647 23.1668 37.5486 23.1725 37.2325C23.1747 37.0961 23.1763 36.9596 23.1774 36.8231C23.1791 36.6263 23.1828 36.4295 23.1868 36.2326C23.1869 36.1722 23.187 36.1118 23.1871 36.0496C23.1986 35.6158 23.2996 35.3583 23.5469 35C23.9008 34.7346 24.2171 34.6777 24.6516 34.6771C24.7675 34.677 24.7675 34.677 24.8857 34.6768C25.0061 34.6773 25.0061 34.6773 25.1289 34.6777C25.208 34.6774 25.287 34.6771 25.3685 34.6768C25.7171 34.6773 26.0566 34.6829 26.4021 34.7321C26.6698 34.785 26.6698 34.785 26.9063 34.6875C27.2103 34.6652 27.5147 34.6658 27.8194 34.6631C27.9441 34.6597 27.9441 34.6597 28.0713 34.6562C28.5787 34.6522 28.99 34.6891 29.4063 35C29.6017 35.2469 29.736 35.5008 29.875 35.7813C30.5208 35.4874 31.0207 35.0325 31.545 34.5657C31.6554 34.4678 31.7671 34.3714 31.8791 34.2752C32.2631 33.9437 32.5976 33.5926 32.9219 33.2031C33.0178 33.0913 33.0178 33.0913 33.1157 32.9773C33.4792 32.5515 33.8131 32.1271 34.0938 31.6406C33.1759 29.9539 31.8687 28.5567 30.2656 27.5C30.1816 27.4442 30.0975 27.3884 30.0108 27.3309C23.8792 23.4242 14.6585 23.675 9.01565 28.9063ZM12.5313 36.0156C12.525 36.3591 12.5203 36.7024 12.5166 37.0459C12.5147 37.1432 12.5127 37.2406 12.5107 37.3409C12.5099 37.4348 12.5092 37.5287 12.5084 37.6254C12.5072 37.7118 12.5059 37.7981 12.5047 37.887C12.5347 38.1554 12.6056 38.3002 12.7656 38.5156C13.0101 38.6378 13.1997 38.6216 13.4688 38.5938C13.6858 38.3858 13.7734 38.2574 13.8167 37.958C13.8151 37.8684 13.8135 37.7788 13.8118 37.6865C13.8108 37.589 13.8098 37.4916 13.8087 37.3912C13.8061 37.2901 13.8035 37.1891 13.8008 37.085C13.7994 36.9824 13.798 36.8798 13.7965 36.7741C13.7929 36.5213 13.7872 36.2685 13.7813 36.0156C13.3688 36.0156 12.9563 36.0156 12.5313 36.0156ZM15.1875 36.0156C15.1812 36.3591 15.1765 36.7024 15.1729 37.0459C15.1709 37.1432 15.1689 37.2406 15.1669 37.3409C15.1662 37.4348 15.1654 37.5287 15.1646 37.6254C15.1634 37.7118 15.1622 37.7981 15.1609 37.887C15.1909 38.1554 15.2619 38.3002 15.4219 38.5156C15.6634 38.6364 15.859 38.6167 16.125 38.5938C16.3074 38.4743 16.3074 38.4743 16.4375 38.2813C16.4805 38.0322 16.4805 38.0322 16.468 37.7551C16.467 37.6539 16.466 37.5527 16.465 37.4484C16.4624 37.3419 16.4597 37.2354 16.4571 37.1289C16.4555 37.0212 16.4541 36.9135 16.4528 36.8057C16.4491 36.5423 16.4435 36.279 16.4375 36.0156C16.025 36.0156 15.6125 36.0156 15.1875 36.0156ZM24.5625 36.0156C24.5553 36.3326 24.5491 36.6494 24.5454 36.9664C24.5438 37.0742 24.5417 37.182 24.5389 37.2897C24.5351 37.4448 24.5335 37.6 24.532 37.7551C24.5304 37.8484 24.5287 37.9417 24.527 38.0378C24.5434 38.2871 24.5434 38.2871 24.7036 38.4679C24.9533 38.6512 25.1201 38.6369 25.4219 38.5938C25.6067 38.4479 25.7079 38.3343 25.8125 38.125C25.8192 37.9662 25.8209 37.8072 25.8202 37.6483C25.8198 37.5063 25.8198 37.5063 25.8194 37.3615C25.8187 37.2622 25.8181 37.1629 25.8174 37.0606C25.8171 36.9607 25.8167 36.8607 25.8163 36.7578C25.8154 36.5104 25.814 36.263 25.8125 36.0156C25.4 36.0156 24.9875 36.0156 24.5625 36.0156ZM27.2188 36.0156C27.2103 36.3721 27.2041 36.7284 27.1992 37.085C27.1966 37.186 27.194 37.2871 27.1913 37.3912C27.1903 37.4886 27.1893 37.5861 27.1883 37.6865C27.1866 37.7761 27.185 37.8657 27.1833 37.958C27.2266 38.2573 27.3152 38.3852 27.5313 38.5938C27.8269 38.636 28.0007 38.6365 28.2637 38.4912C28.5067 38.2389 28.478 37.9727 28.4764 37.6407C28.4762 37.5463 28.4759 37.4519 28.4756 37.3546C28.475 37.2559 28.4743 37.1573 28.4737 37.0557C28.4733 36.9561 28.4729 36.8566 28.4726 36.754C28.4717 36.5079 28.4703 36.2618 28.4688 36.0156C28.0563 36.0156 27.6438 36.0156 27.2188 36.0156Z" fill="white" fill-opacity="0.8"/>
<path d="M15.7191 12.832C16.4959 13.5165 16.4959 13.5165 16.5547 13.9795C16.5435 14.2399 16.511 14.3036 16.3545 14.5313C16.125 14.6875 16.125 14.6875 15.8662 14.7461C15.5126 14.6742 15.373 14.5363 15.117 14.2926C14.5768 13.7917 13.9462 13.4397 13.2002 13.4082C12.4556 13.4393 11.7513 13.7277 11.2343 14.2725C11.1434 14.3829 11.0558 14.496 10.9688 14.6094C10.7165 14.7355 10.4603 14.7329 10.1875 14.6875C9.90289 14.4918 9.81342 14.3766 9.74316 14.0381C9.86053 13.4086 10.3441 13.0174 10.8354 12.6425C12.3331 11.6333 14.3074 11.6996 15.7191 12.832Z" fill="white" fill-opacity="0.8"/>
<path d="M30.1875 12.6562C31.1563 13.4224 31.1563 13.4224 31.2422 14.0234C31.2031 14.2969 31.2031 14.2969 31.0469 14.5264C30.7853 14.7062 30.6474 14.7462 30.3367 14.7253C30.0817 14.6606 29.9634 14.4933 29.7969 14.2969C29.3468 13.8514 28.8 13.5019 28.1563 13.4375C28.0822 13.4301 28.0822 13.4301 28.0067 13.4225C27.2876 13.3831 26.6627 13.6519 26.1064 14.0942C25.9714 14.2164 25.8545 14.3458 25.7344 14.4824C25.4593 14.7231 25.4593 14.7231 25.1826 14.7412C24.875 14.6875 24.875 14.6875 24.6406 14.5312C24.4843 14.2967 24.4078 14.1328 24.4267 13.8473C24.6593 13.1396 25.439 12.6586 26.0664 12.3297C27.3987 11.696 28.9684 11.8225 30.1875 12.6562Z" fill="white" fill-opacity="0.8"/>
<path d="M19.3138 33.9432C19.5951 34.0111 19.7585 34.2017 19.9626 34.3982C20.1585 34.5758 20.3159 34.6525 20.5781 34.6875C20.7883 34.6013 20.9305 34.4904 21.0926 34.3326C21.3336 34.1031 21.5006 33.9514 21.8428 33.9355C22.1663 33.9886 22.2623 34.0373 22.4531 34.2969C22.571 34.5326 22.5703 34.6581 22.5312 34.9219C22.3732 35.1552 22.1849 35.3497 21.9844 35.5469C21.9461 35.5859 21.9078 35.625 21.8684 35.6653C21.4785 36.0289 21.0264 36.1477 20.5098 36.2061C19.7266 36.1641 19.2203 35.8115 18.6952 35.2533C18.4608 34.9764 18.4471 34.8135 18.4687 34.4531C18.6168 34.0432 18.8854 33.9361 19.3138 33.9432Z" fill="white" fill-opacity="0.8"/>
<path d="M19.3089 29.9447C19.6202 30.0427 19.8371 30.2675 20.0709 30.4882C20.3175 30.6614 20.4387 30.6742 20.7344 30.625C20.9352 30.4909 20.9352 30.4909 21.1152 30.3125C21.5365 29.954 21.5365 29.954 21.8574 29.9463C22.2982 30.0299 22.2982 30.0299 22.4531 30.2343C22.5421 30.4776 22.5696 30.6806 22.5313 30.9375C22.3843 31.1857 22.1971 31.3695 21.9844 31.5625C21.9424 31.6021 21.9004 31.6418 21.8571 31.6827C21.4274 32.0664 20.9868 32.1792 20.4219 32.1875C19.6066 32.1016 19.0777 31.6919 18.5469 31.0937C18.4243 30.8485 18.4413 30.661 18.4688 30.3906C18.6906 30.0648 18.9039 29.9241 19.3089 29.9447Z" fill="white" fill-opacity="0.8"/>
<path d="M19.7984 26.2262C19.8511 26.2759 19.9037 26.3257 19.958 26.3769C20.1508 26.5531 20.2456 26.6348 20.5 26.709C20.8086 26.6189 20.9706 26.4439 21.2022 26.2268C21.4279 26.0357 21.6138 25.97 21.9062 25.9375C22.2227 26.0509 22.3438 26.125 22.5312 26.4062C22.58 26.6827 22.5839 26.8678 22.4336 27.1112C22.0648 27.5568 21.6002 27.9405 21.0469 28.125C20.3367 28.1896 19.7603 28.1601 19.1719 27.7343C18.4864 27.1398 18.4864 27.1398 18.4443 26.6943C18.4727 26.3591 18.5393 26.2441 18.7812 26.0156C19.1298 25.8353 19.5176 25.9905 19.7984 26.2262Z" fill="white" fill-opacity="0.8"/>
<path d="M24.001 31.2732C24.3007 31.3695 24.4959 31.5878 24.7127 31.8088C24.88 31.9576 24.9669 32.0105 25.1875 32.0312C25.488 31.9177 25.692 31.767 25.9199 31.5479C26.1198 31.3715 26.2573 31.2892 26.5254 31.2695C26.8281 31.3281 26.8281 31.3281 27.0674 31.5283C27.2188 31.7969 27.2188 31.7969 27.2383 32.0605C27.0293 32.6666 26.5658 33.0438 26.0164 33.3493C25.4641 33.5882 24.8893 33.5573 24.3281 33.3594C23.8709 33.1212 23.2709 32.678 23.0977 32.1729C23.0803 31.8862 23.1555 31.7199 23.3125 31.4844C23.5493 31.3265 23.7135 31.258 24.001 31.2732Z" fill="white" fill-opacity="0.8"/>
<path d="M14.6208 31.2704C14.9336 31.3729 15.1575 31.5911 15.3987 31.8088C15.5735 31.9494 15.6698 32.0098 15.8906 32.0313C16.0914 31.939 16.2468 31.8301 16.4058 31.6766C16.6426 31.4495 16.8134 31.2947 17.1504 31.2744C17.4531 31.3281 17.4531 31.3281 17.6875 31.4844C17.841 31.7146 17.929 31.8808 17.9124 32.1622C17.7184 32.6752 17.1803 33.1056 16.7061 33.3417C16.152 33.5394 15.5818 33.5933 15.0312 33.3594C14.469 33.0576 13.9732 32.6852 13.7666 32.0654C13.7812 31.7969 13.7812 31.7969 13.9326 31.5283C14.1711 31.3288 14.3068 31.2496 14.6208 31.2704Z" fill="white" fill-opacity="0.8"/>
<path d="M15.1057 27.5543C15.2098 27.6524 15.312 27.7525 15.4121 27.8546C15.6414 28.0122 15.7737 28.0095 16.0469 27.9688C16.2558 27.8381 16.2558 27.8381 16.4424 27.6611C16.7001 27.4303 16.8688 27.2958 17.2187 27.2656C17.4474 27.3255 17.5782 27.3928 17.751 27.5537C17.8905 27.8255 17.8942 27.9783 17.8437 28.2812C17.6875 28.5175 17.5005 28.7104 17.2969 28.9062C17.2559 28.9461 17.2149 28.986 17.1727 29.0271C16.6884 29.4638 16.169 29.493 15.5424 29.4824C14.9145 29.416 14.4734 29.098 14.0449 28.652C13.8461 28.3995 13.7794 28.2561 13.791 27.9297C13.8657 27.6308 13.9274 27.5254 14.1719 27.3438C14.5155 27.1834 14.8307 27.3156 15.1057 27.5543Z" fill="white" fill-opacity="0.8"/>
<path d="M24.3281 27.4219C24.4227 27.5129 24.5137 27.6076 24.6016 27.7051C24.7968 27.9121 24.857 27.9642 25.1436 28.0371C25.4888 27.9523 25.6443 27.795 25.8979 27.5549C26.0984 27.3758 26.2483 27.2998 26.5156 27.2656C26.7925 27.3487 26.9892 27.4145 27.1797 27.6367C27.2413 27.9141 27.2188 28.0835 27.1406 28.3594C26.8002 28.8769 26.322 29.2572 25.7344 29.4531C25.0889 29.5037 24.4831 29.5243 23.9375 29.1406C23.1743 28.4724 23.1743 28.4724 23.1318 28.0225C23.1602 27.6872 23.2268 27.5723 23.4688 27.3438C23.7656 27.1902 24.0329 27.3018 24.3281 27.4219Z" fill="white" fill-opacity="0.8"/>
<path d="M28.6754 29.9557C28.9634 30.025 29.1081 30.1996 29.2961 30.4196C29.4563 30.6047 29.5585 30.6243 29.8018 30.6689C30.1523 30.6189 30.2083 30.5536 30.4512 30.3125C30.6955 30.0769 30.8438 29.9527 31.1885 29.9414C31.4081 29.9648 31.52 30.0024 31.7158 30.1123C31.8875 30.4183 31.9106 30.6744 31.8281 31.0156C31.522 31.5335 31.0236 31.916 30.453 32.095C29.7863 32.2443 29.2281 32.1853 28.6445 31.8213C28.2698 31.5489 27.9332 31.2505 27.7656 30.8105C27.7656 30.527 27.8457 30.3278 28.0244 30.1086C28.2332 29.9366 28.4127 29.9493 28.6754 29.9557Z" fill="white" fill-opacity="0.8"/>
<path d="M10.1875 30C10.3814 30.149 10.5497 30.3134 10.7249 30.4837C10.892 30.6469 10.892 30.6469 11.169 30.6983C11.5561 30.5927 11.7855 30.3599 12.0625 30.0782C12.1851 29.9556 12.3079 29.9809 12.4776 29.9756C12.7338 29.9789 12.8216 29.985 13.0391 30.1319C13.1748 30.3411 13.2286 30.4528 13.2344 30.7032C13.0809 31.2842 12.6559 31.656 12.1513 31.9638C11.5602 32.2424 10.9523 32.2369 10.3438 32.0313C9.88942 31.8016 9.41729 31.4731 9.17189 31.0157C9.09769 30.6763 9.11371 30.4163 9.2842 30.1123C9.59088 29.9403 9.84624 29.9058 10.1875 30Z" fill="white" fill-opacity="0.8"/>
</g>
<g clip-path="url(#clip1_1245_655)">
<path d="M86.0355 -0.0119925C86.152 -0.0130003 86.152 -0.0130003 86.2708 -0.0140285C86.3551 -0.0143614 86.4394 -0.0146942 86.5263 -0.0150371C86.6605 -0.0159954 86.6605 -0.0159954 86.7974 -0.016973C87.0931 -0.0189095 87.3887 -0.0202033 87.6844 -0.0213313C87.7853 -0.0217472 87.8863 -0.0221631 87.9903 -0.0225916C88.4144 -0.0242485 88.8384 -0.0257432 89.2624 -0.0266246C89.8695 -0.0278951 90.4766 -0.0304937 91.0836 -0.0349372C91.5625 -0.0383226 92.0413 -0.0395731 92.5201 -0.0400725C92.7238 -0.0405985 92.9274 -0.0417917 93.131 -0.0436577C93.4153 -0.0461158 93.6995 -0.0461356 93.9838 -0.0455546C94.1105 -0.0474771 94.1105 -0.0474771 94.2398 -0.0494385C94.8085 -0.0446657 94.8085 -0.0446657 95.0686 0.183811C95.2672 0.581627 95.1791 0.982917 95.0938 1.40628C94.9851 1.7057 94.8551 1.98589 94.7031 2.26566C94.7954 2.26676 94.8876 2.26787 94.9827 2.26901C95.1043 2.27268 95.226 2.27645 95.3477 2.2803C95.4084 2.28076 95.4691 2.28121 95.5317 2.28168C95.8434 2.29367 95.9864 2.30542 96.2296 2.51346C96.4403 2.9214 96.3581 3.31306 96.2656 3.75003C95.9297 4.65997 95.4265 5.28913 94.5469 5.70316C94.3831 5.75123 94.218 5.79482 94.0519 5.83377C93.9687 5.85359 93.8854 5.8734 93.7997 5.89382C93.7055 5.91545 93.7055 5.91545 93.6094 5.93753C93.6392 5.99252 93.6691 6.0475 93.6999 6.10416C94.0364 6.72458 94.3707 7.34613 94.7031 7.96878C94.7376 8.03312 94.772 8.09746 94.8075 8.16375C95.4841 9.43724 95.9517 10.781 96.2656 12.1875C96.285 12.2701 96.285 12.2701 96.3047 12.3543C96.7563 14.3622 96.6707 16.7615 96.1875 18.75C96.1716 18.8184 96.1557 18.8867 96.1393 18.9572C95.5413 21.4645 94.2705 23.6217 92.5938 25.5469C92.543 25.6073 92.4922 25.6678 92.4399 25.73C92.1756 26.0424 91.8967 26.3164 91.5842 26.5805C91.4757 26.6729 91.3691 26.7676 91.2644 26.8644C88.7202 29.2153 85.1322 30.61 81.6825 30.6443C81.5044 30.6468 81.3263 30.6494 81.1481 30.652C80.8705 30.6557 80.5928 30.6592 80.3151 30.6623C78.2186 30.6866 76.759 30.8023 75.2145 32.3553C75.1475 32.424 75.0804 32.4926 75.0114 32.5632C74.9374 32.6381 74.8634 32.7128 74.7893 32.7875C74.6314 32.9469 74.474 33.1066 74.3168 33.2666C74.0675 33.5202 73.8171 33.7728 73.5666 34.0252C72.8548 34.7425 72.1445 35.4613 71.4352 36.181C71.0423 36.5798 70.6484 36.9777 70.2537 37.3747C70.0051 37.6248 69.7577 37.8758 69.511 38.1277C69.3566 38.2849 69.2012 38.441 69.0456 38.5969C68.9408 38.7025 68.8372 38.8092 68.7336 38.9159C67.9649 39.681 67.1822 40.0189 66.1086 40.0257C65.6137 40.0193 65.2176 39.93 64.7812 39.6875C64.7297 39.6618 64.6781 39.636 64.625 39.6094C64.4932 39.6694 64.3633 39.7338 64.2344 39.7998C63.4529 40.1352 62.5529 40.1409 61.7588 39.834C61.3616 39.6404 60.9229 39.3927 60.7188 38.9844C60.6797 38.7793 60.6797 38.7793 60.7188 38.5157C60.8208 38.3749 60.8208 38.3749 60.9566 38.2253C61.0065 38.1703 61.0564 38.1153 61.1078 38.0586C61.3586 37.7918 61.6147 37.5311 61.8742 37.2727C61.9624 37.1844 61.9624 37.1844 62.0525 37.0942C62.2482 36.8984 62.4441 36.7028 62.6401 36.5073C62.7811 36.3664 62.922 36.2254 63.0629 36.0845C63.3656 35.7818 63.6683 35.4793 63.9712 35.1769C64.409 34.7396 64.8467 34.3022 65.2843 33.8646C65.9944 33.1547 66.7048 32.4449 67.4152 31.7352C68.105 31.0462 68.7947 30.357 69.4843 29.6677C69.5268 29.6252 69.5694 29.5827 69.6132 29.5388C69.8268 29.3254 70.0403 29.112 70.2538 28.8985C72.0231 27.13 73.7927 25.3618 75.5625 23.5938C75.4994 23.5693 75.4362 23.5447 75.3712 23.5195C75.2459 23.4694 75.2459 23.4694 75.1182 23.4183C75.0357 23.3857 74.9532 23.3531 74.8683 23.3195C74.4565 23.1225 74.1614 22.8222 73.8438 22.5C73.7695 22.4255 73.6953 22.351 73.621 22.2766C73.3427 21.9958 73.0659 21.7136 72.7918 21.4288C71.6603 20.2558 70.4918 19.6251 68.832 19.5907C68.6682 19.5901 68.5043 19.5902 68.3405 19.5908C68.1594 19.5896 67.9783 19.5883 67.7972 19.587C67.5167 19.5857 67.2363 19.585 66.9559 19.5855C66.6817 19.5858 66.4076 19.5835 66.1335 19.581C66.0509 19.5818 65.9684 19.5826 65.8833 19.5834C65.0204 19.5723 64.3022 19.2816 63.6802 18.6798C63.2669 18.2242 63.0784 17.794 62.9844 17.1875C62.9361 17.1761 62.8879 17.1646 62.8382 17.1527C62.0144 16.9346 61.3813 16.5153 60.936 15.7804C60.7693 15.4677 60.6912 15.197 60.6406 14.8438C60.5883 14.8454 60.536 14.8471 60.4821 14.8487C60.2404 14.8553 59.9986 14.8593 59.7568 14.8633C59.6746 14.8659 59.5924 14.8686 59.5077 14.8712C58.6025 14.8824 57.9511 14.6494 57.2993 14.0183C56.6645 13.3257 56.4857 12.7207 56.4716 11.7884C56.5 11.5625 56.5 11.5625 56.5939 11.433C56.7825 11.2922 56.901 11.299 57.1353 11.2993C57.2188 11.2989 57.3023 11.2984 57.3883 11.2979C57.5263 11.2989 57.5263 11.2989 57.6672 11.3C57.7647 11.2998 57.8622 11.2996 57.9626 11.2994C58.2338 11.2988 58.5049 11.2998 58.7761 11.301C59.0683 11.302 59.3605 11.3016 59.6527 11.3014C60.1591 11.3013 60.6656 11.3021 61.172 11.3034C61.9043 11.3053 62.6365 11.3059 63.3687 11.3062C64.5567 11.3067 65.7446 11.3083 66.9325 11.3105C68.0867 11.3126 69.2408 11.3143 70.3949 11.3153C70.466 11.3153 70.5371 11.3154 70.6104 11.3155C70.9671 11.3158 71.3239 11.3161 71.6806 11.3164C74.6413 11.3188 77.6019 11.323 80.5625 11.3282C80.5625 10.5547 80.5625 9.78128 80.5625 8.98441C80.0984 8.94573 80.0984 8.94573 79.625 8.90628C79.3778 8.8458 79.1504 8.78434 78.9121 8.7012C78.852 8.68067 78.7919 8.66013 78.73 8.63897C78.2401 8.46273 77.834 8.23085 77.4375 7.89066C77.3935 7.85692 77.3495 7.82318 77.3041 7.78842C77.0938 7.61168 77.0467 7.49897 76.998 7.22659C77.0584 6.88842 77.1764 6.76272 77.4375 6.56253C77.512 6.49863 77.512 6.49863 77.588 6.43344C78.4147 5.7809 79.5318 5.50787 80.5625 5.39066C80.5749 5.31694 80.5873 5.24322 80.6 5.16727C80.9094 3.46511 81.7231 2.03878 83.1406 1.01566C83.9781 0.443943 85.0063 -0.00532696 86.0355 -0.0119925ZM83.1406 2.73441C83.0906 2.78254 83.0405 2.83068 82.989 2.88028C81.9431 3.97055 81.7747 5.377 81.7896 6.81552C81.7901 6.94194 81.7904 7.06835 81.7906 7.19476C81.7915 7.52394 81.7938 7.8531 81.7964 8.18227C81.7988 8.51958 81.7999 8.8569 81.8011 9.19421C81.8036 9.85346 81.8075 10.5127 81.8125 11.1719C81.8991 11.1241 81.9857 11.0762 82.075 11.0269C82.1237 11 82.1724 10.9731 82.2226 10.9454C82.5995 10.7084 82.7618 10.3278 82.9062 9.92191C82.9219 9.81157 82.9349 9.70083 82.9453 9.58988C82.9844 9.29691 82.9844 9.29691 83.0705 9.16337C83.2955 9.01036 83.4853 9.03232 83.7552 9.03123C83.8095 9.03069 83.8638 9.03014 83.9197 9.02958C84.0995 9.02802 84.2792 9.02806 84.459 9.02805C84.5845 9.02713 84.7099 9.02608 84.8354 9.02492C85.1664 9.02209 85.4975 9.02051 85.8285 9.01933C86.3561 9.0174 86.8837 9.01426 87.4112 9.00981C87.5945 9.00854 87.7777 9.00824 87.961 9.00801C89.0809 9.00252 90.1265 8.90328 90.9849 8.10764C91.5523 7.47487 91.8529 6.67138 91.8125 5.82034C91.7016 5.00461 91.2739 4.30506 90.857 3.61148C90.5277 3.01107 90.5277 3.01107 90.626 2.67093C90.7188 2.50003 90.7188 2.50003 90.7969 2.42191C91.0185 2.40724 91.2391 2.39642 91.4609 2.38773C92.546 2.34555 92.546 2.34555 93.4531 1.79691C93.6886 1.51772 93.6886 1.51772 93.7656 1.17191C92.8474 1.16827 91.9291 1.1655 91.0109 1.16381C90.5844 1.163 90.1579 1.1619 89.7315 1.16012C89.3191 1.15841 88.9068 1.15748 88.4945 1.15708C88.3379 1.1568 88.1814 1.15624 88.0249 1.15539C86.1196 1.14546 84.5539 1.34699 83.1406 2.73441ZM92.2812 3.51566C92.39 3.84178 92.4769 4.07753 92.6426 4.36527C92.6774 4.42629 92.7123 4.48732 92.7482 4.5502C92.7746 4.59552 92.8009 4.64084 92.8281 4.68753C93.4774 4.67649 94.0293 4.64163 94.5469 4.21878C94.8357 3.90983 94.8357 3.90983 94.9375 3.51566C94.0609 3.51566 93.1844 3.51566 92.2812 3.51566ZM78.7656 7.18753C79.2564 7.63562 79.9292 7.68981 80.5625 7.73441C80.5625 7.39925 80.5625 7.06409 80.5625 6.71878C79.9378 6.71878 79.3264 6.91988 78.7656 7.18753ZM92.8281 7.34378C92.77 7.4598 92.77 7.4598 92.7106 7.57816C92.0845 8.80515 91.3609 9.55401 90.0156 10C89.7274 10.0906 89.4523 10.0905 89.1513 10.0942C89.0964 10.095 89.0415 10.0957 88.9849 10.0965C88.804 10.099 88.6231 10.1009 88.4421 10.1029C88.3165 10.1045 88.1908 10.1061 88.0651 10.1078C87.7348 10.1121 87.4045 10.116 87.0741 10.1197C86.7369 10.1237 86.3996 10.128 86.0624 10.1323C85.401 10.1407 84.7395 10.1486 84.0781 10.1563C84.0571 10.2156 84.0361 10.2748 84.0144 10.3359C83.9866 10.4135 83.9588 10.4911 83.9302 10.5711C83.9027 10.6481 83.8753 10.7251 83.847 10.8045C83.7593 11.0321 83.6544 11.2232 83.5117 11.4209C83.471 11.4784 83.4303 11.5359 83.3884 11.5952C83.3431 11.6564 83.3431 11.6564 83.2969 11.7188C83.3611 11.7557 83.4254 11.7927 83.4916 11.8308C84.8752 12.6504 85.8483 13.7041 86.3013 15.2774C86.4368 15.8884 86.437 16.4886 86.4405 17.1128C86.4408 17.1654 86.4411 17.218 86.4415 17.2722C86.4431 17.5509 86.4442 17.8296 86.4449 18.1083C86.4458 18.3934 86.4485 18.6785 86.4516 18.9637C86.4536 19.1853 86.4543 19.407 86.4546 19.6287C86.4551 19.7841 86.4572 19.9395 86.4593 20.0949C86.4572 20.9732 86.2965 21.7414 85.7175 22.4243C85.0642 23.0726 84.2858 23.3569 83.375 23.3594C82.5645 23.3067 81.8722 22.991 81.3096 22.4024C80.859 21.8532 80.6952 21.2328 80.5625 20.5469C79.474 21.4582 78.4771 22.4649 77.4753 23.4688C77.2719 23.6725 77.0684 23.8759 76.8649 24.0794C76.5134 24.4308 76.1621 24.7824 75.8108 25.1341C75.303 25.6425 74.795 26.1507 74.287 26.6589C73.4624 27.4836 72.638 28.3085 71.8137 29.1335C71.0137 29.9343 70.2135 30.735 69.4132 31.5356C69.3638 31.5851 69.3144 31.6346 69.2634 31.6855C69.0154 31.9337 68.7673 32.1818 68.5193 32.43C66.4657 34.4843 64.4124 36.539 62.3594 38.5938C62.5653 38.7997 62.6681 38.7757 62.9551 38.7793C63.0334 38.7815 63.1118 38.7838 63.1925 38.786C63.9178 38.6858 64.3529 38.2044 64.8417 37.7032C64.9162 37.628 64.9907 37.5529 65.0653 37.4779C65.225 37.3169 65.3843 37.1555 65.5432 36.9936C65.7953 36.7368 66.0487 36.4813 66.3023 36.226C66.9322 35.5914 67.5605 34.9552 68.1885 34.3186C68.6763 33.8241 69.1646 33.3301 69.6542 32.8374C69.8646 32.6256 70.0746 32.4135 70.2836 32.2003C72.8954 29.5377 72.8954 29.5377 74.843 29.5183C74.9013 29.5181 74.9595 29.5179 75.0195 29.5177C75.0818 29.5172 75.1441 29.5167 75.2084 29.5161C75.3436 29.515 75.4789 29.5141 75.6141 29.5133C75.8303 29.512 76.0465 29.5102 76.2627 29.5083C76.8775 29.5028 77.4923 29.4981 78.107 29.494C82.9425 29.4611 87.2194 28.9473 90.875 25.4688C90.917 25.4289 90.959 25.389 91.0023 25.3479C92.0654 24.332 92.8807 23.2286 93.6094 21.9532C93.6386 21.9021 93.6678 21.8511 93.6979 21.7985C95.4418 18.6931 95.7028 14.8152 94.7797 11.4182C94.4484 10.2713 93.9316 9.21637 93.3848 8.15921C93.3289 8.05099 93.3289 8.05099 93.2719 7.94057C93.2369 7.87405 93.2018 7.80752 93.1656 7.73898C93.1344 7.67961 93.1032 7.62024 93.0711 7.55906C92.993 7.40939 92.993 7.40939 92.8281 7.34378ZM57.8281 12.5C58.0301 12.9287 58.0301 12.9287 58.3311 13.2227C58.3761 13.2602 58.4211 13.2976 58.4675 13.3362C59.0673 13.7645 59.806 13.687 60.5134 13.6966C60.6132 13.6982 60.713 13.6999 60.8158 13.7015C61.0795 13.7058 61.3431 13.7097 61.6068 13.7135C61.8765 13.7174 62.1463 13.7218 62.416 13.7261C62.944 13.7344 63.472 13.7424 64 13.75C64.1111 14.3767 64.1112 14.3767 63.9929 14.6504C63.7926 14.8052 63.6627 14.8079 63.4107 14.8133C63.3269 14.8158 63.243 14.8183 63.1566 14.8209C63.0255 14.8226 63.0254 14.8226 62.8916 14.8243C62.8032 14.8266 62.7149 14.8289 62.6238 14.8313C62.4055 14.8368 62.1872 14.8409 61.9688 14.8438C62.1011 15.3107 62.2823 15.5094 62.6719 15.7813C63.0938 15.9974 63.5439 16.0255 64.0117 16.0251C64.1537 16.0252 64.1537 16.0252 64.2986 16.0254C64.4013 16.0251 64.5041 16.0248 64.61 16.0245C64.7201 16.0245 64.8303 16.0245 64.9404 16.0246C65.2385 16.0246 65.5366 16.0241 65.8347 16.0236C66.1466 16.0231 66.4584 16.023 66.7703 16.023C67.3605 16.0227 67.9506 16.0221 68.5408 16.0213C69.2128 16.0204 69.8849 16.02 70.5569 16.0196C71.939 16.0188 73.3211 16.0174 74.7031 16.0157C74.5227 15.6289 74.3422 15.2422 74.1563 14.8438C74.0491 14.8433 73.942 14.8429 73.8316 14.8424C72.8234 14.8379 71.8151 14.8322 70.8069 14.8254C70.2886 14.8219 69.7702 14.8188 69.2518 14.8167C68.7519 14.8147 68.2519 14.8115 67.7519 14.8076C67.5609 14.8063 67.3698 14.8054 67.1788 14.8049C66.9118 14.8042 66.6449 14.802 66.378 14.7994C66.2985 14.7995 66.219 14.7997 66.137 14.7998C66.0644 14.7988 65.9918 14.7978 65.9169 14.7968C65.8222 14.7963 65.8222 14.7963 65.7256 14.7957C65.5201 14.7578 65.4502 14.6991 65.3281 14.5313C65.3073 14.2399 65.3137 14.0277 65.4062 13.75C68.1391 13.7243 70.8719 13.6985 73.6875 13.6719C73.6553 13.0765 73.6553 13.0765 73.5313 12.5C68.3492 12.5 63.1672 12.5 57.8281 12.5ZM74.7813 12.5C74.8164 12.6977 74.8521 12.8952 74.8881 13.0927C74.8979 13.148 74.9076 13.2032 74.9177 13.2602C75.1932 14.762 76.0852 16.1163 77.291 17.0459C78.4407 17.8345 79.6712 18.2806 81.0668 18.3705C81.4657 18.4035 81.4657 18.4035 81.6326 18.5692C81.7591 18.7939 81.7621 18.9404 81.7606 19.1974C81.7621 19.3281 81.7621 19.3281 81.7637 19.4614C81.7637 19.6429 81.7631 19.8244 81.7618 20.0058C81.7708 20.6574 81.8834 21.177 82.3075 21.6884C82.6493 22.009 83.0905 22.1664 83.5517 22.2007C84.0459 22.1774 84.4179 21.9688 84.7812 21.6407C85.1077 21.2287 85.2591 20.8672 85.2626 20.3393C85.2633 20.2485 85.2641 20.1576 85.2649 20.0641C85.2652 19.9657 85.2655 19.8673 85.2659 19.766C85.2663 19.6645 85.2668 19.563 85.2672 19.4584C85.268 19.2431 85.2685 19.0277 85.2688 18.8124C85.2692 18.539 85.2711 18.2656 85.2733 17.9922C85.2751 17.7289 85.2753 17.4657 85.2756 17.2025C85.2771 17.057 85.2771 17.057 85.2786 16.9087C85.2753 15.6344 84.9139 14.6244 84.0327 13.6945C82.7822 12.5107 81.3067 12.4748 79.6793 12.4848C79.5373 12.4851 79.3952 12.4853 79.2531 12.4854C78.883 12.486 78.5128 12.4876 78.1427 12.4893C77.7635 12.4909 77.3843 12.4916 77.0051 12.4924C76.2638 12.4941 75.5225 12.4967 74.7813 12.5ZM64.3125 17.1875C64.4582 17.653 64.6207 17.8494 65.0156 18.125C65.4212 18.3328 65.8572 18.3686 66.3078 18.3717C66.3907 18.3725 66.4737 18.3733 66.5592 18.3742C66.6921 18.375 66.6921 18.375 66.8278 18.3759C67.0178 18.3781 67.2078 18.3803 67.3978 18.3826C67.6956 18.3858 67.9933 18.3887 68.2911 18.3908C68.5797 18.3929 68.8683 18.3965 69.1569 18.4003C69.2884 18.4007 69.2884 18.4007 69.4226 18.4011C70.2139 18.4132 70.9518 18.5592 71.6611 18.916C71.7442 18.9565 71.8273 18.997 71.9129 19.0387C72.8247 19.5666 73.5438 20.3915 74.2648 21.1451C75.0775 22.0244 75.0775 22.0244 76.1875 22.3828C76.8793 22.3296 77.3556 21.9352 77.8187 21.4539C77.9004 21.3713 77.9004 21.3713 77.9838 21.2871C78.1558 21.1129 78.3265 20.9374 78.4971 20.7618C78.6142 20.6426 78.7315 20.5236 78.8488 20.4047C79.1346 20.1146 79.4193 19.8234 79.7031 19.5313C79.6773 19.4797 79.6516 19.4282 79.625 19.375C79.4301 19.3161 79.2363 19.264 79.0391 19.2139C78.0002 18.9287 76.8675 18.4093 76.1379 17.5912C75.8269 17.2611 75.5897 17.1495 75.1354 17.1218C74.933 17.1202 74.732 17.1215 74.5298 17.1254C74.4181 17.1256 74.3064 17.1255 74.1947 17.1252C73.893 17.125 73.5914 17.1283 73.2898 17.1321C72.974 17.1355 72.6581 17.1358 72.3423 17.1365C71.7449 17.1382 71.1476 17.1427 70.5503 17.1481C69.8699 17.1543 69.1896 17.1573 68.5092 17.16C67.1103 17.1657 65.7114 17.1753 64.3125 17.1875ZM70.5692 33.6576C70.4267 33.8002 70.2842 33.9428 70.1417 34.0854C69.8068 34.4206 69.472 34.756 69.1374 35.0914C68.7559 35.4738 68.3741 35.8559 67.9924 36.2381C67.2082 37.0231 66.4243 37.8083 65.6406 38.5938C65.8465 38.7997 65.9493 38.7757 66.2363 38.7793C66.3147 38.7815 66.393 38.7838 66.4738 38.786C67.2001 38.6857 67.6407 38.2 68.1331 37.7005C68.2086 37.6251 68.2841 37.5497 68.3597 37.4744C68.5634 37.2711 68.7662 37.0669 68.9688 36.8624C69.1811 36.6484 69.3944 36.4352 69.6075 36.2219C69.9647 35.8642 70.3214 35.5059 70.6776 35.1471C71.1355 34.6861 71.5942 34.2261 72.0533 33.7663C72.4478 33.371 72.842 32.9755 73.2362 32.5798C73.363 32.4525 73.4899 32.3252 73.6168 32.1979C73.8156 31.9985 74.0141 31.7988 74.2124 31.599C74.3204 31.4904 74.4285 31.3819 74.5367 31.2734C74.6002 31.2093 74.6637 31.1453 74.7292 31.0792C74.7848 31.0233 74.8405 30.9673 74.8978 30.9096C75.0244 30.8007 75.0244 30.8007 75.0156 30.7032C73.14 30.631 71.7638 32.4594 70.5692 33.6576Z" fill="white" fill-opacity="0.8"/>
<path d="M85.6016 4.41404C86.0494 4.68408 86.3363 5.13741 86.5 5.62497C86.5903 6.24373 86.4795 6.75916 86.1094 7.2656C85.5857 7.76688 85.1456 7.84162 84.4312 7.83353C83.9831 7.79921 83.7015 7.68285 83.3952 7.35379C83.0176 6.87593 82.8633 6.46336 82.8773 5.85263C82.9463 5.31031 83.1891 4.89869 83.6192 4.5654C84.1659 4.18988 84.9927 4.14565 85.6016 4.41404ZM84.2783 5.66892C84.1301 5.8614 84.1301 5.8614 84.1611 6.14255C84.209 6.42616 84.209 6.42616 84.4688 6.56247C84.75 6.59838 84.8873 6.59469 85.1279 6.4404C85.2761 6.24792 85.2761 6.24792 85.2451 5.96677C85.1973 5.68316 85.1973 5.68316 84.9375 5.54685C84.6563 5.51095 84.519 5.51463 84.2783 5.66892Z" fill="white" fill-opacity="0.8"/>
</g>
<defs>
<clipPath id="clip0_1245_655">
<rect width="40" height="40" fill="white" transform="translate(0.5)"/>
</clipPath>
<clipPath id="clip1_1245_655">
<rect width="40" height="40" fill="white" transform="translate(56.5)"/>
</clipPath>
</defs>
</svg>
