<svg width="162" height="50" viewBox="0 0 162 50" fill="none" xmlns="http://www.w3.org/2000/svg">
<path d="M40.9056 2.79624C38.5319 5.17206 38.0826 5.66091 37.9946 6.00311C37.9067 6.29642 37.9067 6.7755 37.9849 7.77276C38.0337 8.52559 38.0826 9.17087 38.0826 9.21976C38.0826 9.25887 37.7407 9.01444 37.3304 8.68202C32.1922 4.59521 25.0711 2.92334 18.4774 4.26279C13.8472 5.20139 9.66631 7.51855 6.37436 10.9699C-1.41104 19.1435 -2.15344 31.8047 4.63559 40.829C5.54405 42.0315 6.21807 42.7257 6.50135 42.7257C6.86278 42.7257 7.08746 42.5693 7.20468 42.2271C7.33167 41.8555 7.27306 41.7284 6.34506 40.6236C2.84798 36.4097 1.02129 30.5044 1.53901 25.0292C2.48654 15.0567 9.80307 7.20569 19.718 5.52403C20.9879 5.30894 23.9965 5.22095 25.286 5.3676C29.8673 5.88578 33.9896 7.66521 37.2816 10.5397L37.9067 11.0774L36.2559 12.7297C35.3572 13.6292 34.5952 14.3723 34.5659 14.3723C34.5366 14.3723 34.1654 14.079 33.7356 13.727C31.694 12.0551 29.1249 10.8428 26.3605 10.2561C25.4813 10.0606 25.032 10.0313 23.1858 10.0313C21.32 10.0215 20.8902 10.0508 19.9329 10.2464C14.6384 11.3218 10.2915 14.6265 7.91777 19.4074C4.68443 25.8896 5.98363 33.7699 11.1218 38.9127C15.7129 43.5176 22.5117 45.082 28.6463 42.9506C32.3778 41.66 35.6209 39.0006 37.7114 35.52C38.571 34.0926 39.4501 31.8341 39.6943 30.4066C39.7823 29.9275 39.4697 29.5267 39.0203 29.5267C38.5319 29.5267 38.3952 29.7027 38.1412 30.6511C37.7797 31.9807 37.4379 32.89 36.8517 34.0241C33.8431 39.8317 27.5327 43.1363 21.066 42.2857C12.6359 41.1809 6.62834 33.3495 7.74194 24.9315C8.62109 18.3515 13.476 13.1208 19.9915 11.7227C21.2321 11.4685 23.6449 11.3707 24.9538 11.5369C27.943 11.9084 31.0298 13.2675 33.1495 15.1349L33.5207 15.4673L31.8699 17.1098L30.219 18.7622L29.5841 18.2733C28.7244 17.6085 27.0052 16.7774 25.8232 16.4548C24.9245 16.2006 24.7096 16.181 23.0881 16.1908C21.5056 16.1908 21.2321 16.2201 20.3822 16.445C16.553 17.4911 13.6518 20.4243 12.6164 24.3253C12.3917 25.1661 12.3624 25.4594 12.3624 26.9358C12.3624 28.4219 12.3819 28.6956 12.6164 29.5756C13.1927 31.7363 14.5994 33.9361 16.2795 35.2951C17.3638 36.1653 19.1123 37.055 20.4506 37.4168C21.3298 37.6514 21.6033 37.671 23.0881 37.671C24.5631 37.671 24.8562 37.6416 25.6865 37.4265C27.0052 37.0648 27.9625 36.6444 29.0175 35.9502C31.2252 34.5032 32.876 32.2154 33.5598 29.644C33.7942 28.7934 33.8235 28.5099 33.8235 26.9358C33.8333 25.303 33.8138 25.1075 33.5598 24.1982C33.2374 23.0054 32.4071 21.2944 31.7429 20.434L31.2545 19.7985L32.9053 18.1462L34.5464 16.4939L34.8785 16.8654C35.9726 18.0973 37.2229 20.2972 37.7797 21.9788C38.19 23.2107 38.4733 24.6871 38.5417 25.9092C38.571 26.4763 38.6589 27.0531 38.7273 27.1998C38.9129 27.5615 39.3915 27.6593 39.7334 27.4051C39.9679 27.2291 39.9874 27.1411 40.0167 26.4371C40.046 25.5768 39.8311 23.9049 39.5381 22.7316C38.9617 20.4536 37.77 18.0973 36.2852 16.2788C35.9335 15.8486 35.6405 15.4771 35.6405 15.4477C35.6405 15.4184 36.3829 14.6558 37.2816 13.7563L38.9324 12.104L39.3818 12.6124C41.0522 14.47 42.6639 17.2174 43.504 19.6519C46.4443 28.1481 43.9827 37.4852 37.2523 43.2928C34.1166 45.9912 30.3753 47.712 26.214 48.3671C24.905 48.5724 21.447 48.6017 20.2552 48.4062C16.3088 47.7804 13.0657 46.4508 10.0473 44.202C9.15836 43.547 8.89461 43.4785 8.53318 43.8501C7.97638 44.4074 8.29874 44.8278 10.2915 46.1672C12.4015 47.5751 14.8631 48.6702 17.4224 49.3252C19.464 49.8532 20.7437 49.9998 23.1369 49.9998C26.1261 50.0096 28.4998 49.599 31.0493 48.6408C41.7359 44.6518 47.8998 33.7504 45.7996 22.5752C45.1256 19.0164 43.4454 15.3206 41.2378 12.5733L40.6907 11.9084L41.3647 11.9671C43.5529 12.1529 43.7189 12.1431 44.1585 11.9476C44.4516 11.8107 45.3698 10.9601 47.2942 9.02422C49.6874 6.60929 50 6.26709 50 5.99333C50 5.81735 49.9512 5.57292 49.8828 5.43604C49.6776 4.96674 49.3748 4.86897 47.8314 4.75165L46.3759 4.6441L47.3137 3.71528C48.144 2.88423 48.2417 2.75713 48.2417 2.43449C48.2417 1.99452 47.9975 1.75987 47.5481 1.75987C47.2649 1.75987 47.0988 1.87719 46.2685 2.70824L45.3112 3.66639L45.3014 3.22643C45.2916 2.05318 45.1353 0.703949 44.979 0.4693C44.7837 0.175988 44.432 1.58361e-06 44.012 1.58361e-06C43.7385 1.58361e-06 43.3966 0.312867 40.9056 2.79624ZM43.885 3.76417L43.9534 5.03518L41.7457 7.23502C40.2218 8.76024 39.5478 9.37619 39.5478 9.23931C39.5478 9.13176 39.499 8.44737 39.4501 7.72387L39.3427 6.41375L41.521 4.23346C43.4454 2.30739 43.7092 2.08251 43.758 2.26828C43.7873 2.39538 43.8459 3.06022 43.885 3.76417ZM47.597 6.22798L47.9779 6.27687L45.7898 8.4767L43.6017 10.6668L42.9668 10.6179C42.6151 10.5885 41.9411 10.5299 41.4624 10.5006L40.6028 10.4321L42.7812 8.24205L44.9693 6.05199L46.0926 6.11066C46.7081 6.13999 47.3821 6.18887 47.597 6.22798ZM25.4325 17.8627C26.4191 18.1462 27.269 18.5177 28.0602 19.0066C29.3399 19.8083 29.3887 19.603 27.5034 21.49L25.8623 23.1325L25.0906 22.7512C24.397 22.3992 24.2212 22.3601 23.4007 22.3112C22.6387 22.2721 22.3555 22.3015 21.7987 22.4677C20.1673 22.9663 18.9756 24.2178 18.5946 25.831C18.2137 27.454 18.6532 29.0183 19.8352 30.1915C22.3359 32.7042 26.5168 31.6288 27.5522 28.2263C27.7183 27.6691 27.7476 27.3855 27.7085 26.6229C27.6597 25.8016 27.6206 25.6256 27.269 24.9315L26.888 24.1591L28.5291 22.5165C30.1604 20.8838 30.1604 20.8838 30.3655 21.0695C30.6781 21.3531 31.401 22.5557 31.7136 23.328C32.2704 24.6675 32.3681 25.2248 32.3583 26.9847C32.3583 28.4512 32.329 28.6761 32.0945 29.4583C31.2642 32.1567 29.4961 34.2294 27.0247 35.3831C24.0845 36.7715 20.6069 36.4977 17.9108 34.6792C14.1012 32.1078 12.7043 27.1313 14.6384 23.0152C15.9181 20.2678 18.2234 18.4395 21.2907 17.7453C22.1894 17.54 24.5143 17.6085 25.4325 17.8627ZM24.1431 23.9147C24.397 24.0027 24.6315 24.1102 24.6608 24.1689C24.6901 24.2178 24.1919 24.8044 23.5374 25.4594C22.2382 26.7793 22.1405 26.9749 22.5997 27.4246C23.049 27.8841 23.2444 27.7864 24.5631 26.486C25.2176 25.831 25.8037 25.3323 25.8525 25.3617C26.0772 25.4985 26.2823 26.4176 26.2433 27.1118C26.1847 28.3143 25.5204 29.292 24.4264 29.8004C23.6742 30.1524 22.5411 30.172 21.8182 29.8396C21.1832 29.5462 20.4702 28.8423 20.1869 28.2166C19.8645 27.5028 19.8743 26.2416 20.1966 25.6159C20.6655 24.7262 21.2223 24.208 22.0526 23.9049C22.5411 23.7191 23.596 23.7289 24.1431 23.9147Z" fill="white" fill-opacity="0.8"/>
<path d="M122.937 5.50684C121.95 5.78027 121.775 5.92676 117.058 10.624C111.941 15.7217 111.931 15.7314 112.019 16.7373C112.048 17.0107 112.136 17.3916 112.224 17.5771C112.419 17.9873 134.734 44.667 135.427 45.3115C136.394 46.2295 137.605 46.2295 138.572 45.3115C139.265 44.667 161.579 17.9873 161.775 17.5771C161.863 17.3916 161.95 17.0107 161.98 16.7373C162.068 15.7314 162.058 15.7217 156.941 10.624C152.097 5.7998 151.999 5.71191 150.945 5.46777C150.281 5.32129 123.503 5.35059 122.937 5.50684ZM130.945 11.083C128.611 13.417 126.697 15.3115 126.687 15.3018C126.658 15.2822 125.066 10.8682 124.06 8.02637L123.63 6.83496H129.411H135.193L130.945 11.083ZM149.939 8.02637C148.933 10.8682 147.341 15.2822 147.312 15.3018C147.302 15.3115 145.388 13.417 143.054 11.083L138.806 6.83496H144.587H150.368L149.939 8.02637ZM141.345 11.5225L145.642 15.8193H136.999H128.357L132.654 11.5225C135.017 9.15918 136.97 7.22559 136.999 7.22559C137.029 7.22559 138.982 9.15918 141.345 11.5225ZM128.581 24.9209C132.029 34.4912 134.831 42.333 134.822 42.3525C134.783 42.3818 113.923 17.499 113.874 17.3721C113.855 17.3232 115.798 17.2842 118.24 17.2842C121.247 17.2842 122.712 17.2549 122.868 17.1768C123.103 17.0693 123.327 16.7178 123.327 16.4639C123.327 16.3955 123.24 16.2197 123.122 16.0732L122.927 15.8193H118.415H113.904L118.054 11.6689C120.339 9.38379 122.224 7.51855 122.253 7.51855C122.283 7.51855 125.134 15.3506 128.581 24.9209ZM155.945 11.6689L160.095 15.8193H154.392C149.88 15.8193 148.708 15.79 148.738 15.6924C148.767 15.6338 149.441 13.7588 150.232 11.542C151.033 9.33496 151.706 7.51855 151.736 7.51855C151.775 7.51855 153.659 9.38379 155.945 11.6689ZM146.54 17.4502C146.521 17.5479 145.437 20.5654 144.138 24.1592C142.849 27.7529 141.784 30.8193 141.784 30.9756C141.784 31.542 142.497 31.8447 142.937 31.4639C143.074 31.3564 143.982 28.9346 145.652 24.2861L148.171 17.2842H154.167C157.497 17.2842 160.144 17.3232 160.124 17.3721C160.075 17.499 139.216 42.3818 139.177 42.3525C139.167 42.333 139.812 40.4971 140.613 38.2705C141.687 35.3115 142.058 34.1592 142.019 33.9639C141.96 33.6514 141.648 33.3975 141.325 33.3975C140.818 33.3975 140.7 33.6709 138.845 38.8369C137.859 41.5908 137.029 43.8467 136.999 43.8467C136.95 43.8467 127.429 17.4795 127.429 17.3428C127.429 17.3135 131.745 17.2842 137.009 17.2842C146.091 17.2842 146.589 17.2939 146.54 17.4502Z" fill="white" fill-opacity="0.8"/>
<path d="M75.2408 5.16534C75.0377 5.28935 74.9595 5.42989 74.8345 5.88458C71.8963 16.3424 69.2786 25.8413 69.2786 26.0479C69.2786 26.2133 69.3489 26.4117 69.4661 26.5522L69.6536 26.7837L75.1392 26.8085L80.6248 26.825L80.578 27.0731C80.5545 27.2136 79.8122 31.0495 78.9213 35.6047C78.0383 40.1681 77.3116 44.0371 77.3116 44.2107C77.3038 44.624 77.5773 44.9216 78.0071 44.9878C78.2728 45.0208 78.3509 44.996 78.5541 44.7976C78.851 44.5 92.6588 19.3599 92.7057 19.0375C92.7604 18.6655 92.6588 18.4009 92.3853 18.2273C92.143 18.0702 91.9711 18.062 87.0403 18.062C84.235 18.062 81.9376 18.0372 81.9376 18.0124C81.9376 17.9876 82.133 17.4667 82.3674 16.8632C82.6018 16.2515 82.7972 15.6562 82.7972 15.5405C82.7972 15.433 82.6956 15.2181 82.5706 15.0693C82.3752 14.8378 82.2893 14.7965 81.9689 14.7965C81.6563 14.7965 81.5782 14.8295 81.4453 15.0279C81.3516 15.152 80.9687 16.0613 80.5936 17.0534C79.8512 18.9879 79.8356 19.0788 80.2029 19.4839L80.406 19.7154H85.4775C90.2754 19.7154 90.5489 19.7236 90.502 19.8559C90.4239 20.0626 79.8825 39.2339 79.859 39.2091C79.8512 39.1926 80.4217 36.2082 81.125 32.5789C81.8282 28.9497 82.383 25.8909 82.3596 25.7917C82.3362 25.6842 82.2268 25.5106 82.1174 25.4031L81.922 25.213L76.5145 25.1716L71.0993 25.1303L73.678 15.8877L76.2645 6.65341H80.4373C83.7427 6.65341 84.6023 6.67821 84.571 6.75262C84.5476 6.81049 84.3835 7.24864 84.2038 7.71986C83.8365 8.68711 83.8287 9.00126 84.1803 9.29887C84.4538 9.53035 84.9149 9.52208 85.1727 9.27407C85.4072 9.05913 86.548 6.18219 86.548 5.81017C86.548 5.47949 86.4308 5.27281 86.1573 5.12401C85.962 5.01653 85.2118 5 80.7108 5C75.6784 5 75.4831 5.00827 75.2408 5.16534Z" fill="white" fill-opacity="0.8"/>
<path d="M82.8285 11.5642C82.5316 11.8783 82.4925 12.1429 82.6801 12.5232C82.8285 12.8291 83.0161 12.9365 83.3834 12.9365C84.1492 12.9365 84.407 11.7709 83.7272 11.3989C83.3755 11.2087 83.1177 11.2583 82.8285 11.5642Z" fill="white" fill-opacity="0.8"/>
<path d="M63.9728 14.1269C63.6056 14.3418 63.4805 14.8213 63.6837 15.2347C63.8322 15.5405 66.8876 17.4006 67.2392 17.4006C67.3955 17.4006 67.5674 17.318 67.7315 17.1609C68.0675 16.8467 68.0909 16.3507 67.794 16.0448C67.4658 15.6976 64.6136 14.0111 64.3792 14.0111C64.262 14.0194 64.0744 14.069 63.9728 14.1269Z" fill="white" fill-opacity="0.8"/>
<path d="M95.8862 14.9287C95.0735 15.433 94.3155 15.929 94.2061 16.0448C93.9092 16.3506 93.9326 16.8467 94.2686 17.1608C94.6828 17.5576 94.8312 17.508 96.6051 16.425C98.207 15.4578 98.4258 15.2677 98.4258 14.846C98.4258 14.3914 98.0429 14.0028 97.5897 14.0193C97.4568 14.0193 96.777 14.3831 95.8862 14.9287Z" fill="white" fill-opacity="0.8"/>
<path d="M61.3394 24.3284C60.9174 24.6839 60.8861 25.1551 61.2612 25.5519L61.5269 25.833H63.3711C65.3324 25.833 65.5747 25.7917 65.7622 25.4279C65.9185 25.1055 65.856 24.6756 65.6138 24.4193L65.3871 24.1796H63.4414C61.7223 24.1796 61.4878 24.1961 61.3394 24.3284Z" fill="white" fill-opacity="0.8"/>
<path d="M96.3862 24.4193C96.1439 24.6756 96.0814 25.1055 96.2377 25.4279C96.4252 25.7917 96.6675 25.833 98.6289 25.833H100.473L100.739 25.5519C101.114 25.1551 101.083 24.6839 100.661 24.3284C100.512 24.1961 100.278 24.1796 98.5585 24.1796H96.6128L96.3862 24.4193Z" fill="white" fill-opacity="0.8"/>
<path d="M65.7935 33.3229C65.1527 33.7115 64.4416 34.1496 64.215 34.2819C63.7852 34.5465 63.5742 34.8523 63.5742 35.2244C63.5742 35.522 64.0353 36.0015 64.3322 36.0015C64.4729 36.0015 65.1293 35.6542 66.1529 35.026C67.5439 34.191 67.7705 34.0174 67.8955 33.7528C68.0596 33.3973 68.0127 33.1163 67.7392 32.8186C67.3876 32.4549 67.1141 32.521 65.7935 33.3229Z" fill="white" fill-opacity="0.8"/>
<path d="M94.3076 32.7608C94.2139 32.8352 94.0967 33.0253 94.042 33.1659C93.9716 33.3891 93.9794 33.4883 94.1045 33.7446C94.2295 34.0174 94.4483 34.1744 95.8471 35.026C96.8629 35.646 97.5271 36.0015 97.6756 36.0015C97.9725 36.0015 98.4258 35.522 98.4258 35.2078C98.4258 34.7283 98.207 34.5299 96.5894 33.5544C94.9406 32.5541 94.6671 32.4632 94.3076 32.7608Z" fill="white" fill-opacity="0.8"/>
</svg>
