<svg width="97" height="40" viewBox="0 0 97 40" fill="none" xmlns="http://www.w3.org/2000/svg">
<g clip-path="url(#clip0_1245_656)">
<path d="M20.8906 -3.2112e-06C21.1348 0.130628 21.3119 0.295749 21.4375 0.546872C21.4459 0.769261 21.4496 0.989791 21.4499 1.21223C21.4502 1.28192 21.4506 1.3516 21.451 1.42339C21.4522 1.65827 21.4529 1.89315 21.4535 2.12803C21.4543 2.29584 21.4551 2.46366 21.4559 2.63147C21.458 3.08826 21.4596 3.54504 21.4612 4.00182C21.4629 4.47874 21.465 4.95566 21.4671 5.43258C21.471 6.33624 21.4745 7.23989 21.4779 8.14355C21.4818 9.1721 21.4861 10.2007 21.4904 11.2292C21.4993 13.3455 21.5076 15.4618 21.5156 17.5781C21.577 17.5166 21.6384 17.4551 21.7016 17.3917C23.1936 15.8962 24.6861 14.4012 26.179 12.9067C26.9009 12.1839 27.6227 11.4611 28.3441 10.7378C28.9728 10.1076 29.6017 9.47772 30.2309 8.84813C30.5642 8.5146 30.8974 8.18093 31.2303 7.84693C31.5433 7.53284 31.8567 7.21911 32.1704 6.90566C32.2857 6.79031 32.4009 6.67482 32.5159 6.55919C32.6725 6.40182 32.8296 6.24494 32.9868 6.08818C33.0326 6.0419 33.0784 5.99562 33.1256 5.94793C33.4069 5.66879 33.5661 5.55702 33.9668 5.52734C34.3286 5.55229 34.5077 5.66729 34.7773 5.89843C35.0005 6.1662 34.976 6.46583 34.9531 6.79687C34.7795 7.15338 34.5209 7.40694 34.2427 7.68233C34.1943 7.73083 34.146 7.77934 34.0961 7.82932C33.9342 7.9915 33.7717 8.15313 33.6092 8.31476C33.4929 8.43101 33.3767 8.54729 33.2604 8.6636C32.9449 8.97917 32.6289 9.29424 32.3129 9.60924C31.9826 9.93855 31.6527 10.2683 31.3228 10.598C30.6981 11.2222 30.073 11.8461 29.4477 12.4698C28.7359 13.1798 28.0245 13.8904 27.3132 14.6009C25.8499 16.0626 24.3861 17.5237 22.9219 18.9844C23.0092 18.9844 23.0966 18.9845 23.1865 18.9845C25.3108 18.9856 27.4351 18.989 29.5594 18.9947C30.5867 18.9974 31.6139 18.9994 32.6412 18.9996C33.5365 18.9999 34.4318 19.0015 35.327 19.0047C35.8012 19.0064 36.2753 19.0074 36.7494 19.0067C37.1956 19.0061 37.6418 19.0074 38.088 19.01C38.2518 19.0106 38.4156 19.0106 38.5794 19.0099C38.8031 19.009 39.0266 19.0105 39.2502 19.0126C39.3151 19.0117 39.38 19.0109 39.4469 19.01C39.9026 19.018 40.104 19.1245 40.4219 19.4531C40.5674 19.7441 40.5446 20.0738 40.5 20.3906C40.3694 20.6348 40.2042 20.8119 39.9531 20.9375C39.7307 20.9459 39.5102 20.9496 39.2878 20.9499C39.1832 20.9504 39.1832 20.9504 39.0766 20.951C38.8417 20.9522 38.6068 20.9529 38.372 20.9535C38.2042 20.9543 38.0363 20.9551 37.8685 20.9559C37.4117 20.958 36.955 20.9596 36.4982 20.9612C36.0213 20.9629 35.5443 20.965 35.0674 20.9671C34.1638 20.971 33.2601 20.9745 32.3564 20.9779C31.3279 20.9818 30.2993 20.9861 29.2708 20.9904C27.1545 20.9993 25.0382 21.0076 22.9219 21.0156C22.9834 21.077 23.0449 21.1384 23.1083 21.2016C24.6038 22.6936 26.0988 24.1861 27.5933 25.679C28.3161 26.4009 29.0389 27.1227 29.7622 27.8441C30.3924 28.4728 31.0223 29.1017 31.6519 29.7309C31.9854 30.0642 32.3191 30.3974 32.6531 30.7303C32.9672 31.0433 33.2809 31.3567 33.5943 31.6704C33.7097 31.7857 33.8252 31.9009 33.9408 32.0159C34.0982 32.1725 34.2551 32.3296 34.4118 32.4868C34.4581 32.5326 34.5044 32.5784 34.5521 32.6256C34.8312 32.9069 34.943 33.0661 34.9727 33.4668C34.9477 33.8286 34.8327 34.0077 34.6016 34.2773C34.3338 34.5005 34.0342 34.476 33.7031 34.4531C33.3466 34.2795 33.0931 34.0209 32.8177 33.7427C32.7449 33.6701 32.7449 33.6701 32.6707 33.5961C32.5085 33.4342 32.3469 33.2717 32.1852 33.1092C32.069 32.9929 31.9527 32.8767 31.8364 32.7604C31.5208 32.4449 31.2058 32.1289 30.8908 31.8129C30.5614 31.4826 30.2317 31.1527 29.902 30.8228C29.2778 30.1981 28.6539 29.573 28.0302 28.9477C27.3202 28.2359 26.6096 27.5245 25.8991 26.8132C24.4374 25.3499 22.9763 23.8861 21.5156 22.4219C21.5156 22.5092 21.5155 22.5966 21.5155 22.6865C21.5144 24.8108 21.511 26.9351 21.5053 29.0594C21.5026 30.0867 21.5006 31.1139 21.5003 32.1412C21.5001 33.0365 21.4985 33.9318 21.4953 34.827C21.4936 35.3012 21.4926 35.7753 21.4933 36.2494C21.4939 36.6956 21.4926 37.1418 21.49 37.588C21.4893 37.7518 21.4894 37.9156 21.4901 38.0794C21.491 38.3031 21.4895 38.5266 21.4874 38.7502C21.4883 38.8151 21.4891 38.88 21.49 38.9469C21.482 39.4026 21.3755 39.604 21.0469 39.9219C20.7559 40.0674 20.4262 40.0446 20.1094 40C19.8652 39.8694 19.6881 39.7042 19.5625 39.4531C19.5541 39.2307 19.5504 39.0102 19.5501 38.7878C19.5497 38.7181 19.5494 38.6484 19.549 38.5766C19.5478 38.3417 19.5471 38.1068 19.5465 37.872C19.5457 37.7042 19.5449 37.5363 19.5441 37.3685C19.542 36.9117 19.5404 36.455 19.5388 35.9982C19.5371 35.5213 19.535 35.0443 19.5329 34.5674C19.529 33.6638 19.5254 32.7601 19.5221 31.8564C19.5182 30.8279 19.5139 29.7993 19.5096 28.7708C19.5007 26.6545 19.4924 24.5382 19.4844 22.4219C19.423 22.4834 19.3616 22.5449 19.2984 22.6083C17.8064 24.1038 16.3139 25.5988 14.821 27.0933C14.0991 27.816 13.3773 28.5389 12.6559 29.2622C12.0272 29.8924 11.3983 30.5223 10.7691 31.1519C10.4358 31.4854 10.1026 31.8191 9.7697 32.1531C9.45666 32.4672 9.14327 32.7809 8.82959 33.0943C8.71427 33.2097 8.5991 33.3252 8.48406 33.4408C8.32747 33.5982 8.17041 33.7551 8.01322 33.9118C7.96739 33.9581 7.92157 34.0044 7.87435 34.0521C7.59313 34.3312 7.43386 34.443 7.0332 34.4727C6.67143 34.4477 6.49232 34.3327 6.22265 34.1016C5.99951 33.8338 6.02404 33.5342 6.04687 33.2031C6.22045 32.8466 6.4791 32.5931 6.75729 32.3177C6.82985 32.2449 6.82985 32.2449 6.90387 32.1707C7.0658 32.0085 7.22828 31.8469 7.39077 31.6852C7.50706 31.569 7.62332 31.4527 7.73955 31.3364C8.05506 31.0208 8.37106 30.7058 8.68714 30.3908C9.01743 30.0614 9.34727 29.7317 9.67716 29.402C10.3019 28.7778 10.927 28.1539 11.5522 27.5302C12.2641 26.8202 12.9755 26.1096 13.6868 25.3991C15.1501 23.9374 16.6139 22.4763 18.0781 21.0156C17.9908 21.0156 17.9034 21.0155 17.8134 21.0155C15.6892 21.0144 13.5649 21.011 11.4406 21.0053C10.4133 21.0026 9.38605 21.0006 8.35877 21.0003C7.46349 21.0001 6.56822 20.9985 5.67294 20.9953C5.19881 20.9936 4.72469 20.9926 4.25055 20.9933C3.80436 20.9939 3.35822 20.9926 2.91204 20.99C2.74821 20.9893 2.58438 20.9894 2.42055 20.9901C2.19692 20.991 1.97343 20.9895 1.74981 20.9874C1.68491 20.9883 1.62001 20.9891 1.55314 20.99C1.09739 20.982 0.895984 20.8755 0.578122 20.5469C0.432627 20.2559 0.455363 19.9262 0.499997 19.6094C0.630628 19.3652 0.795749 19.1881 1.04687 19.0625C1.26926 19.0541 1.48979 19.0504 1.71223 19.0501C1.78192 19.0497 1.8516 19.0494 1.92339 19.049C2.15827 19.0478 2.39315 19.0471 2.62803 19.0465C2.79584 19.0457 2.96366 19.0449 3.13147 19.0441C3.58826 19.042 4.04504 19.0404 4.50182 19.0388C4.97874 19.0371 5.45566 19.035 5.93258 19.0329C6.83624 19.029 7.73989 19.0254 8.64355 19.0221C9.6721 19.0182 10.7007 19.0139 11.7292 19.0096C13.8455 19.0007 15.9618 18.9924 18.0781 18.9844C18.0166 18.923 17.9551 18.8616 17.8917 18.7984C16.3962 17.3064 14.9012 15.8139 13.4067 14.321C12.6839 13.5991 11.9611 12.8773 11.2378 12.1559C10.6076 11.5272 9.97772 10.8983 9.34813 10.2691C9.0146 9.93575 8.68093 9.60256 8.34693 9.2697C8.03284 8.95666 7.71911 8.64327 7.40566 8.32959C7.29031 8.21427 7.17482 8.0991 7.05919 7.98406C6.90182 7.82747 6.74494 7.67041 6.58818 7.51322C6.5419 7.46739 6.49562 7.42157 6.44793 7.37435C6.16879 7.09313 6.05702 6.93386 6.02734 6.5332C6.05229 6.17143 6.16729 5.99232 6.39843 5.72265C6.6662 5.49951 6.96583 5.52404 7.29687 5.54687C7.65338 5.72045 7.90694 5.9791 8.18233 6.25729C8.23083 6.30566 8.27934 6.35403 8.32932 6.40387C8.4915 6.5658 8.65313 6.72828 8.81476 6.89077C8.93101 7.00706 9.04729 7.12332 9.1636 7.23955C9.47917 7.55506 9.79424 7.87106 10.1092 8.18714C10.4385 8.51743 10.7683 8.84727 11.098 9.17716C11.7222 9.80188 12.3461 10.427 12.9698 11.0522C13.6798 11.7641 14.3904 12.4755 15.1009 13.1868C16.5626 14.6501 18.0237 16.1139 19.4844 17.5781C19.4844 17.4908 19.4845 17.4034 19.4845 17.3134C19.4856 15.1892 19.489 13.0649 19.4947 10.9406C19.4974 9.91333 19.4994 8.88605 19.4996 7.85877C19.4999 6.96349 19.5015 6.06822 19.5047 5.17294C19.5064 4.69881 19.5074 4.22469 19.5067 3.75055C19.5061 3.30436 19.5074 2.85822 19.51 2.41204C19.5106 2.24821 19.5106 2.08438 19.5099 1.92055C19.509 1.69692 19.5105 1.47343 19.5126 1.24981C19.5117 1.18491 19.5109 1.12001 19.51 1.05314C19.518 0.597385 19.6245 0.395984 19.9531 0.0781218C20.2441 -0.0673731 20.5738 -0.0446367 20.8906 -3.2112e-06Z" fill="white"/>
</g>
<g clip-path="url(#clip1_1245_656)">
<path d="M76.8906 -3.2112e-06C77.1348 0.130628 77.3119 0.295749 77.4375 0.546872C77.4459 0.769261 77.4496 0.989791 77.4499 1.21223C77.4502 1.28192 77.4506 1.3516 77.451 1.42339C77.4522 1.65827 77.4529 1.89315 77.4535 2.12803C77.4543 2.29584 77.4551 2.46366 77.4559 2.63147C77.458 3.08826 77.4596 3.54504 77.4612 4.00182C77.4629 4.47874 77.465 4.95566 77.4671 5.43258C77.471 6.33624 77.4745 7.23989 77.4779 8.14355C77.4818 9.1721 77.4861 10.2007 77.4904 11.2292C77.4993 13.3455 77.5076 15.4618 77.5156 17.5781C77.577 17.5166 77.6384 17.4551 77.7016 17.3917C79.1936 15.8962 80.6861 14.4012 82.179 12.9067C82.9009 12.1839 83.6227 11.4611 84.3441 10.7378C84.9728 10.1076 85.6017 9.47772 86.2309 8.84813C86.5642 8.5146 86.8974 8.18093 87.2303 7.84693C87.5433 7.53284 87.8567 7.21911 88.1704 6.90566C88.2857 6.79031 88.4009 6.67482 88.5159 6.55919C88.6725 6.40182 88.8296 6.24494 88.9868 6.08818C89.0326 6.0419 89.0784 5.99562 89.1256 5.94793C89.4069 5.66879 89.5661 5.55702 89.9668 5.52734C90.3286 5.55229 90.5077 5.66729 90.7773 5.89843C91.0005 6.1662 90.976 6.46583 90.9531 6.79687C90.7795 7.15338 90.5209 7.40694 90.2427 7.68233C90.1943 7.73083 90.146 7.77934 90.0961 7.82932C89.9342 7.9915 89.7717 8.15313 89.6092 8.31476C89.4929 8.43101 89.3767 8.54729 89.2604 8.6636C88.9449 8.97917 88.6289 9.29424 88.3129 9.60924C87.9826 9.93855 87.6527 10.2683 87.3228 10.598C86.6981 11.2222 86.073 11.8461 85.4477 12.4698C84.7359 13.1798 84.0245 13.8904 83.3132 14.6009C81.8499 16.0626 80.3861 17.5237 78.9219 18.9844C79.0092 18.9844 79.0966 18.9845 79.1865 18.9845C81.3108 18.9856 83.4351 18.989 85.5594 18.9947C86.5867 18.9974 87.6139 18.9994 88.6412 18.9996C89.5365 18.9999 90.4318 19.0015 91.327 19.0047C91.8012 19.0064 92.2753 19.0074 92.7494 19.0067C93.1956 19.0061 93.6418 19.0074 94.088 19.01C94.2518 19.0106 94.4156 19.0106 94.5794 19.0099C94.8031 19.009 95.0266 19.0105 95.2502 19.0126C95.3151 19.0117 95.38 19.0109 95.4469 19.01C95.9026 19.018 96.104 19.1245 96.4219 19.4531C96.5674 19.7441 96.5446 20.0738 96.5 20.3906C96.3694 20.6348 96.2042 20.8119 95.9531 20.9375C95.7307 20.9459 95.5102 20.9496 95.2878 20.9499C95.1832 20.9504 95.1832 20.9504 95.0766 20.951C94.8417 20.9522 94.6068 20.9529 94.372 20.9535C94.2042 20.9543 94.0363 20.9551 93.8685 20.9559C93.4117 20.958 92.955 20.9596 92.4982 20.9612C92.0213 20.9629 91.5443 20.965 91.0674 20.9671C90.1638 20.971 89.2601 20.9745 88.3564 20.9779C87.3279 20.9818 86.2993 20.9861 85.2708 20.9904C83.1545 20.9993 81.0382 21.0076 78.9219 21.0156C78.9834 21.077 79.0449 21.1384 79.1083 21.2016C80.6038 22.6936 82.0988 24.1861 83.5933 25.679C84.3161 26.4009 85.0389 27.1227 85.7622 27.8441C86.3924 28.4728 87.0223 29.1017 87.6519 29.7309C87.9854 30.0642 88.3191 30.3974 88.6531 30.7303C88.9672 31.0433 89.2809 31.3567 89.5943 31.6704C89.7097 31.7857 89.8252 31.9009 89.9408 32.0159C90.0982 32.1725 90.2551 32.3296 90.4118 32.4868C90.4581 32.5326 90.5044 32.5784 90.5521 32.6256C90.8312 32.9069 90.943 33.0661 90.9727 33.4668C90.9477 33.8286 90.8327 34.0077 90.6016 34.2773C90.3338 34.5005 90.0342 34.476 89.7031 34.4531C89.3466 34.2795 89.0931 34.0209 88.8177 33.7427C88.7449 33.6701 88.7449 33.6701 88.6707 33.5961C88.5085 33.4342 88.3469 33.2717 88.1852 33.1092C88.069 32.9929 87.9527 32.8767 87.8364 32.7604C87.5208 32.4449 87.2058 32.1289 86.8908 31.8129C86.5614 31.4826 86.2317 31.1527 85.902 30.8228C85.2778 30.1981 84.6539 29.573 84.0302 28.9477C83.3202 28.2359 82.6096 27.5245 81.8991 26.8132C80.4374 25.3499 78.9763 23.8861 77.5156 22.4219C77.5156 22.5092 77.5155 22.5966 77.5155 22.6865C77.5144 24.8108 77.511 26.9351 77.5053 29.0594C77.5026 30.0867 77.5006 31.1139 77.5003 32.1412C77.5001 33.0365 77.4985 33.9318 77.4953 34.827C77.4936 35.3012 77.4926 35.7753 77.4933 36.2494C77.4939 36.6956 77.4926 37.1418 77.49 37.588C77.4893 37.7518 77.4894 37.9156 77.4901 38.0794C77.491 38.3031 77.4895 38.5266 77.4874 38.7502C77.4883 38.8151 77.4891 38.88 77.49 38.9469C77.482 39.4026 77.3755 39.604 77.0469 39.9219C76.7559 40.0674 76.4262 40.0446 76.1094 40C75.8652 39.8694 75.6881 39.7042 75.5625 39.4531C75.5541 39.2307 75.5504 39.0102 75.5501 38.7878C75.5497 38.7181 75.5494 38.6484 75.549 38.5766C75.5478 38.3417 75.5471 38.1068 75.5465 37.872C75.5457 37.7042 75.5449 37.5363 75.5441 37.3685C75.542 36.9117 75.5404 36.455 75.5388 35.9982C75.5371 35.5213 75.535 35.0443 75.5329 34.5674C75.529 33.6638 75.5254 32.7601 75.5221 31.8564C75.5182 30.8279 75.5139 29.7993 75.5096 28.7708C75.5007 26.6545 75.4924 24.5382 75.4844 22.4219C75.423 22.4834 75.3616 22.5449 75.2984 22.6083C73.8064 24.1038 72.3139 25.5988 70.821 27.0933C70.0991 27.816 69.3773 28.5389 68.6559 29.2622C68.0272 29.8924 67.3983 30.5223 66.7691 31.1519C66.4358 31.4854 66.1026 31.8191 65.7697 32.1531C65.4567 32.4672 65.1433 32.7809 64.8296 33.0943C64.7143 33.2097 64.5991 33.3252 64.4841 33.4408C64.3275 33.5982 64.1704 33.7551 64.0132 33.9118C63.9674 33.9581 63.9216 34.0044 63.8744 34.0521C63.5931 34.3312 63.4339 34.443 63.0332 34.4727C62.6714 34.4477 62.4923 34.3327 62.2227 34.1016C61.9995 33.8338 62.024 33.5342 62.0469 33.2031C62.2205 32.8466 62.4791 32.5931 62.7573 32.3177C62.8298 32.2449 62.8298 32.2449 62.9039 32.1707C63.0658 32.0085 63.2283 31.8469 63.3908 31.6852C63.5071 31.569 63.6233 31.4527 63.7395 31.3364C64.0551 31.0208 64.3711 30.7058 64.6871 30.3908C65.0174 30.0614 65.3473 29.7317 65.6772 29.402C66.3019 28.7778 66.927 28.1539 67.5522 27.5302C68.2641 26.8202 68.9755 26.1096 69.6868 25.3991C71.1501 23.9374 72.6139 22.4763 74.0781 21.0156C73.9908 21.0156 73.9034 21.0155 73.8134 21.0155C71.6892 21.0144 69.5649 21.011 67.4406 21.0053C66.4133 21.0026 65.3861 21.0006 64.3588 21.0003C63.4635 21.0001 62.5682 20.9985 61.6729 20.9953C61.1988 20.9936 60.7247 20.9926 60.2506 20.9933C59.8044 20.9939 59.3582 20.9926 58.912 20.99C58.7482 20.9893 58.5844 20.9894 58.4205 20.9901C58.1969 20.991 57.9734 20.9895 57.7498 20.9874C57.6849 20.9883 57.62 20.9891 57.5531 20.99C57.0974 20.982 56.896 20.8755 56.5781 20.5469C56.4326 20.2559 56.4554 19.9262 56.5 19.6094C56.6306 19.3652 56.7957 19.1881 57.0469 19.0625C57.2693 19.0541 57.4898 19.0504 57.7122 19.0501C57.7819 19.0497 57.8516 19.0494 57.9234 19.049C58.1583 19.0478 58.3931 19.0471 58.628 19.0465C58.7958 19.0457 58.9637 19.0449 59.1315 19.0441C59.5883 19.042 60.045 19.0404 60.5018 19.0388C60.9787 19.0371 61.4557 19.035 61.9326 19.0329C62.8362 19.029 63.7399 19.0254 64.6435 19.0221C65.6721 19.0182 66.7007 19.0139 67.7292 19.0096C69.8455 19.0007 71.9618 18.9924 74.0781 18.9844C74.0166 18.923 73.9551 18.8616 73.8917 18.7984C72.3962 17.3064 70.9012 15.8139 69.4067 14.321C68.6839 13.5991 67.9611 12.8773 67.2378 12.1559C66.6076 11.5272 65.9777 10.8983 65.3481 10.2691C65.0146 9.93575 64.6809 9.60256 64.3469 9.2697C64.0328 8.95666 63.7191 8.64327 63.4057 8.32959C63.2903 8.21427 63.1748 8.0991 63.0592 7.98406C62.9018 7.82747 62.7449 7.67041 62.5882 7.51322C62.5419 7.46739 62.4956 7.42157 62.4479 7.37435C62.1688 7.09313 62.057 6.93386 62.0273 6.5332C62.0523 6.17143 62.1673 5.99232 62.3984 5.72265C62.6662 5.49951 62.9658 5.52404 63.2969 5.54687C63.6534 5.72045 63.9069 5.9791 64.1823 6.25729C64.2308 6.30566 64.2793 6.35403 64.3293 6.40387C64.4915 6.5658 64.6531 6.72828 64.8148 6.89077C64.931 7.00706 65.0473 7.12332 65.1636 7.23955C65.4792 7.55506 65.7942 7.87106 66.1092 8.18714C66.4385 8.51743 66.7683 8.84727 67.098 9.17716C67.7222 9.80188 68.3461 10.427 68.9698 11.0522C69.6798 11.7641 70.3904 12.4755 71.1009 13.1868C72.5626 14.6501 74.0237 16.1139 75.4844 17.5781C75.4844 17.4908 75.4845 17.4034 75.4845 17.3134C75.4856 15.1892 75.489 13.0649 75.4947 10.9406C75.4974 9.91333 75.4994 8.88605 75.4996 7.85877C75.4999 6.96349 75.5015 6.06822 75.5047 5.17294C75.5064 4.69881 75.5074 4.22469 75.5067 3.75055C75.5061 3.30436 75.5074 2.85822 75.51 2.41204C75.5106 2.24821 75.5106 2.08438 75.5099 1.92055C75.509 1.69692 75.5105 1.47343 75.5126 1.24981C75.5117 1.18491 75.5109 1.12001 75.51 1.05314C75.518 0.597385 75.6245 0.395984 75.9531 0.0781218C76.2441 -0.0673731 76.5738 -0.0446367 76.8906 -3.2112e-06Z" fill="white"/>
</g>
<defs>
<clipPath id="clip0_1245_656">
<rect width="40" height="40" fill="white" transform="translate(0.5)"/>
</clipPath>
<clipPath id="clip1_1245_656">
<rect width="40" height="40" fill="white" transform="translate(56.5)"/>
</clipPath>
</defs>
</svg>
