<svg width="72" height="20" viewBox="0 0 72 20" fill="none" xmlns="http://www.w3.org/2000/svg">
<g clip-path="url(#clip0_1274_774)">
<path d="M10.1954 5.94291e-05C10.3175 0.0653748 10.406 0.147935 10.4688 0.273497C10.473 0.384692 10.4749 0.494957 10.475 0.606178C10.4752 0.641019 10.4754 0.675859 10.4756 0.711756C10.4762 0.829195 10.4765 0.946634 10.4768 1.06407C10.4772 1.14798 10.4776 1.23189 10.478 1.3158C10.4791 1.54419 10.4799 1.77258 10.4807 2.00097C10.4815 2.23943 10.4826 2.47789 10.4836 2.71635C10.4856 3.16818 10.4873 3.62001 10.489 4.07183C10.4909 4.58611 10.4931 5.10039 10.4953 5.61466C10.4997 6.67281 10.5039 7.73097 10.5079 8.78912C10.5386 8.75836 10.5693 8.72759 10.6009 8.69589C11.3469 7.94817 12.0931 7.20067 12.8395 6.4534C13.2005 6.09203 13.5614 5.73059 13.9221 5.36897C14.2364 5.05388 14.5509 4.73892 14.8655 4.42413C15.0322 4.25736 15.1988 4.09052 15.3652 3.92352C15.5217 3.76648 15.6784 3.60962 15.8353 3.45289C15.8929 3.39522 15.9505 3.33747 16.008 3.27965C16.0863 3.20097 16.1649 3.12253 16.2434 3.04415C16.2664 3.02101 16.2893 2.99787 16.3129 2.97403C16.4535 2.83446 16.5331 2.77857 16.7335 2.76373C16.9143 2.77621 17.0039 2.83371 17.1387 2.94928C17.2503 3.08316 17.238 3.23298 17.2266 3.3985C17.1398 3.57675 17.0105 3.70353 16.8714 3.84122C16.8472 3.86548 16.823 3.88973 16.7981 3.91472C16.7172 3.99581 16.6359 4.07662 16.5547 4.15744C16.4965 4.21556 16.4384 4.27371 16.3803 4.33186C16.2225 4.48964 16.0645 4.64718 15.9065 4.80468C15.7413 4.96933 15.5764 5.13421 15.4115 5.29906C15.0991 5.61118 14.7866 5.92309 14.4739 6.23494C14.118 6.58998 13.7623 6.94524 13.4066 7.30053C12.675 8.03135 11.9431 8.76189 11.211 9.49225C11.2547 9.49227 11.2983 9.49229 11.3433 9.49231C12.4055 9.49287 13.4676 9.49455 14.5298 9.49741C15.0434 9.49876 15.557 9.49975 16.0707 9.49989C16.5183 9.5 16.9659 9.5008 17.4136 9.50242C17.6507 9.50326 17.8877 9.50375 18.1248 9.50342C18.3479 9.50313 18.5709 9.50375 18.794 9.50506C18.876 9.50538 18.9579 9.50537 19.0398 9.505C19.1516 9.50455 19.2633 9.5053 19.3752 9.50634C19.4076 9.50592 19.4401 9.50551 19.4735 9.50508C19.7014 9.50905 19.8021 9.56229 19.961 9.72662C20.0337 9.87212 20.0224 10.037 20.0001 10.1954C19.9347 10.3175 19.8522 10.406 19.7266 10.4688C19.6154 10.473 19.5052 10.4749 19.3939 10.475C19.3417 10.4753 19.3417 10.4753 19.2884 10.4756C19.1709 10.4762 19.0535 10.4765 18.936 10.4768C18.8521 10.4772 18.7682 10.4776 18.6843 10.478C18.4559 10.4791 18.2275 10.4799 17.9991 10.4807C17.7607 10.4815 17.5222 10.4826 17.2838 10.4836C16.8319 10.4856 16.3801 10.4873 15.9283 10.489C15.414 10.4909 14.8997 10.4931 14.3855 10.4953C13.3273 10.4997 12.2692 10.5039 11.211 10.5079C11.2418 10.5386 11.2725 10.5693 11.3042 10.6009C12.0519 11.3469 12.7995 12.0931 13.5467 12.8395C13.9081 13.2005 14.2695 13.5614 14.6311 13.9221C14.9462 14.2364 15.2612 14.5509 15.576 14.8655C15.7428 15.0322 15.9096 15.1988 16.0766 15.3652C16.2336 15.5217 16.3905 15.6784 16.5472 15.8353C16.6049 15.8929 16.6626 15.9505 16.7205 16.008C16.7991 16.0863 16.8776 16.1649 16.956 16.2434C16.9791 16.2664 17.0022 16.2893 17.0261 16.3129C17.1657 16.4535 17.2215 16.5331 17.2364 16.7335C17.2239 16.9143 17.1664 17.0039 17.0508 17.1387C16.917 17.2503 16.7671 17.238 16.6016 17.2266C16.4234 17.1398 16.2966 17.0105 16.1589 16.8714C16.1225 16.8351 16.1225 16.8351 16.0854 16.7981C16.0043 16.7172 15.9235 16.6359 15.8427 16.5547C15.7846 16.4965 15.7264 16.4384 15.6683 16.3803C15.5105 16.2225 15.3529 16.0645 15.1954 15.9065C15.0308 15.7413 14.8659 15.5764 14.7011 15.4115C14.3889 15.0991 14.077 14.7866 13.7652 14.4739C13.4101 14.118 13.0549 13.7623 12.6996 13.4066C11.9688 12.675 11.2382 11.9431 10.5079 11.211C10.5079 11.2547 10.5078 11.2983 10.5078 11.3433C10.5072 12.4055 10.5056 13.4676 10.5027 14.5298C10.5014 15.0434 10.5004 15.557 10.5002 16.0707C10.5001 16.5183 10.4993 16.9659 10.4977 17.4136C10.4969 17.6507 10.4964 17.8877 10.4967 18.1248C10.497 18.3479 10.4964 18.5709 10.4951 18.794C10.4947 18.876 10.4947 18.9579 10.4951 19.0398C10.4956 19.1516 10.4948 19.2633 10.4938 19.3752C10.4942 19.4076 10.4946 19.4401 10.495 19.4735C10.4911 19.7014 10.4378 19.8021 10.2735 19.961C10.128 20.0337 9.96315 20.0224 9.80475 20.0001C9.68265 19.9347 9.59409 19.8522 9.53131 19.7266C9.52709 19.6154 9.52526 19.5052 9.52513 19.3939C9.52494 19.3591 9.52474 19.3243 9.52454 19.2884C9.52394 19.1709 9.52362 19.0535 9.52329 18.936C9.52291 18.8521 9.52252 18.7682 9.52212 18.6843C9.52106 18.4559 9.52024 18.2275 9.51946 17.9991C9.51861 17.7607 9.51754 17.5222 9.51649 17.2838C9.51454 16.8319 9.51278 16.3801 9.5111 15.9283C9.50917 15.414 9.50703 14.8997 9.50486 14.3855C9.50041 13.3273 9.49624 12.2692 9.49225 11.211C9.46155 11.2418 9.43086 11.2725 9.39924 11.3042C8.65324 12.0519 7.90703 12.7994 7.16058 13.5467C6.79961 13.9081 6.43871 14.2695 6.07799 14.6311C5.76367 14.9462 5.44922 15.2612 5.1346 15.576C4.96794 15.7428 4.80134 15.9096 4.63491 16.0766C4.47839 16.2336 4.32169 16.3905 4.16485 16.5472C4.1072 16.6049 4.04961 16.6626 3.99209 16.7205C3.9138 16.7991 3.83527 16.8776 3.75667 16.956C3.73376 16.9791 3.71084 17.0022 3.68724 17.0261C3.54663 17.1657 3.46699 17.2215 3.26666 17.2364C3.08577 17.2239 2.99622 17.1664 2.86139 17.0508C2.74982 16.917 2.76208 16.7671 2.7735 16.6016C2.86029 16.4234 2.98961 16.2966 3.1287 16.1589C3.16498 16.1225 3.16498 16.1225 3.202 16.0854C3.28296 16.0043 3.3642 15.9235 3.44545 15.8427C3.50359 15.7846 3.56172 15.7264 3.61983 15.6683C3.77759 15.5105 3.93559 15.3529 4.09363 15.1954C4.25878 15.0308 4.4237 14.8659 4.58864 14.7011C4.901 14.3889 5.21356 14.077 5.52619 13.7652C5.8821 13.4101 6.2378 13.0549 6.59347 12.6996C7.32511 11.9688 8.05702 11.2382 8.78912 10.5079C8.74545 10.5079 8.70178 10.5078 8.65678 10.5078C7.59464 10.5072 6.53251 10.5056 5.47037 10.5027C4.95673 10.5014 4.44309 10.5004 3.92945 10.5002C3.4818 10.5001 3.03417 10.4993 2.58653 10.4977C2.34946 10.4969 2.11241 10.4964 1.87534 10.4967C1.65224 10.497 1.42917 10.4964 1.20608 10.4951C1.12417 10.4947 1.04225 10.4947 0.960336 10.4951C0.848521 10.4956 0.736777 10.4948 0.624968 10.4938C0.592516 10.4942 0.560065 10.4946 0.526631 10.495C0.298754 10.4911 0.198053 10.4378 0.0391219 10.2735C-0.0336255 10.128 -0.0222573 9.96315 5.94291e-05 9.80475C0.0653748 9.68265 0.147935 9.59409 0.273497 9.53131C0.384692 9.52709 0.494957 9.52526 0.606178 9.52513C0.641019 9.52494 0.67586 9.52474 0.711756 9.52454C0.829195 9.52394 0.946634 9.52362 1.06407 9.52329C1.14798 9.52291 1.23189 9.52252 1.3158 9.52212C1.54419 9.52106 1.77258 9.52024 2.00097 9.51946C2.23943 9.51861 2.47789 9.51754 2.71635 9.51649C3.16818 9.51454 3.62001 9.51278 4.07183 9.5111C4.58611 9.50917 5.10039 9.50703 5.61466 9.50486C6.67281 9.50041 7.73097 9.49624 8.78912 9.49225C8.75836 9.46155 8.72759 9.43086 8.69589 9.39924C7.94817 8.65324 7.20067 7.90703 6.4534 7.16058C6.09203 6.79961 5.73059 6.43871 5.36897 6.07799C5.05388 5.76367 4.73892 5.44922 4.42413 5.1346C4.25736 4.96794 4.09052 4.80134 3.92352 4.63491C3.76648 4.47839 3.60962 4.32169 3.45289 4.16485C3.39522 4.1072 3.33747 4.04961 3.27965 3.99209C3.20097 3.9138 3.12253 3.83527 3.04415 3.75667C3.02101 3.73376 2.99787 3.71084 2.97403 3.68724C2.83446 3.54663 2.77857 3.46699 2.76373 3.26666C2.77621 3.08577 2.83371 2.99622 2.94928 2.86139C3.08316 2.74982 3.23298 2.76208 3.3985 2.7735C3.57675 2.86029 3.70353 2.98961 3.84122 3.1287C3.86548 3.15289 3.88973 3.17708 3.91472 3.202C3.99581 3.28296 4.07662 3.3642 4.15744 3.44545C4.21556 3.50359 4.27371 3.56172 4.33186 3.61983C4.48964 3.77759 4.64718 3.93559 4.80468 4.09363C4.96933 4.25878 5.13421 4.4237 5.29906 4.58864C5.61118 4.901 5.92309 5.21356 6.23494 5.52619C6.58998 5.8821 6.94525 6.2378 7.30053 6.59347C8.03135 7.32511 8.76189 8.05702 9.49225 8.78912C9.49227 8.74545 9.49229 8.70178 9.49231 8.65678C9.49287 7.59464 9.49455 6.53251 9.49741 5.47037C9.49876 4.95673 9.49975 4.44309 9.49989 3.92945C9.5 3.4818 9.5008 3.03417 9.50242 2.58653C9.50326 2.34946 9.50375 2.11241 9.50342 1.87534C9.50313 1.65224 9.50375 1.42917 9.50506 1.20608C9.50538 1.12417 9.50537 1.04225 9.505 0.960336C9.50455 0.848521 9.5053 0.736777 9.50634 0.624968C9.50592 0.592516 9.50551 0.560065 9.50508 0.526631C9.50905 0.298754 9.56229 0.198053 9.72662 0.0391219C9.87212 -0.0336255 10.037 -0.0222573 10.1954 5.94291e-05Z" fill="white"/>
</g>
<g clip-path="url(#clip1_1274_774)">
<path d="M62.1954 5.94291e-05C62.3175 0.0653748 62.406 0.147935 62.4688 0.273497C62.473 0.384692 62.4749 0.494957 62.475 0.606178C62.4752 0.641019 62.4754 0.675859 62.4756 0.711756C62.4762 0.829195 62.4765 0.946634 62.4768 1.06407C62.4772 1.14798 62.4776 1.23189 62.478 1.3158C62.4791 1.54419 62.4799 1.77258 62.4807 2.00097C62.4815 2.23943 62.4826 2.47789 62.4836 2.71635C62.4856 3.16818 62.4873 3.62001 62.489 4.07183C62.4909 4.58611 62.4931 5.10039 62.4953 5.61466C62.4997 6.67281 62.5039 7.73097 62.5079 8.78912C62.5386 8.75836 62.5693 8.72759 62.6009 8.69589C63.3469 7.94817 64.0931 7.20067 64.8395 6.4534C65.2005 6.09203 65.5614 5.73059 65.9221 5.36897C66.2364 5.05388 66.5509 4.73892 66.8655 4.42413C67.0322 4.25736 67.1988 4.09052 67.3652 3.92352C67.5217 3.76648 67.6784 3.60962 67.8353 3.45289C67.8929 3.39522 67.9505 3.33747 68.008 3.27965C68.0863 3.20097 68.1649 3.12253 68.2434 3.04415C68.2664 3.02101 68.2893 2.99787 68.3129 2.97403C68.4535 2.83446 68.5331 2.77857 68.7335 2.76373C68.9143 2.77621 69.0039 2.83371 69.1387 2.94928C69.2503 3.08316 69.238 3.23298 69.2266 3.3985C69.1398 3.57675 69.0105 3.70353 68.8714 3.84122C68.8472 3.86548 68.823 3.88973 68.7981 3.91472C68.7172 3.99581 68.6359 4.07662 68.5547 4.15744C68.4965 4.21556 68.4384 4.27371 68.3803 4.33186C68.2225 4.48964 68.0645 4.64718 67.9065 4.80468C67.7413 4.96933 67.5764 5.13421 67.4115 5.29906C67.0991 5.61118 66.7866 5.92309 66.4739 6.23494C66.118 6.58998 65.7623 6.94524 65.4066 7.30053C64.675 8.03135 63.9431 8.76189 63.211 9.49225C63.2547 9.49227 63.2983 9.49229 63.3433 9.49231C64.4055 9.49287 65.4676 9.49455 66.5298 9.49741C67.0434 9.49876 67.557 9.49975 68.0707 9.49989C68.5183 9.5 68.9659 9.5008 69.4136 9.50242C69.6507 9.50326 69.8877 9.50375 70.1248 9.50342C70.3479 9.50313 70.5709 9.50375 70.794 9.50506C70.876 9.50538 70.9579 9.50537 71.0398 9.505C71.1516 9.50455 71.2633 9.5053 71.3752 9.50634C71.4076 9.50592 71.4401 9.50551 71.4735 9.50508C71.7014 9.50905 71.8021 9.56229 71.961 9.72662C72.0337 9.87212 72.0224 10.037 72.0001 10.1954C71.9347 10.3175 71.8522 10.406 71.7266 10.4688C71.6154 10.473 71.5052 10.4749 71.3939 10.475C71.3417 10.4753 71.3417 10.4753 71.2884 10.4756C71.1709 10.4762 71.0535 10.4765 70.936 10.4768C70.8521 10.4772 70.7682 10.4776 70.6843 10.478C70.4559 10.4791 70.2275 10.4799 69.9991 10.4807C69.7607 10.4815 69.5222 10.4826 69.2838 10.4836C68.8319 10.4856 68.3801 10.4873 67.9283 10.489C67.414 10.4909 66.8997 10.4931 66.3855 10.4953C65.3273 10.4997 64.2692 10.5039 63.211 10.5079C63.2418 10.5386 63.2725 10.5693 63.3042 10.6009C64.0519 11.3469 64.7995 12.0931 65.5467 12.8395C65.9081 13.2005 66.2695 13.5614 66.6311 13.9221C66.9462 14.2364 67.2612 14.5509 67.576 14.8655C67.7428 15.0322 67.9096 15.1988 68.0766 15.3652C68.2336 15.5217 68.3905 15.6784 68.5472 15.8353C68.6049 15.8929 68.6626 15.9505 68.7205 16.008C68.7991 16.0863 68.8776 16.1649 68.956 16.2434C68.9791 16.2664 69.0022 16.2893 69.0261 16.3129C69.1657 16.4535 69.2215 16.5331 69.2364 16.7335C69.2239 16.9143 69.1664 17.0039 69.0508 17.1387C68.917 17.2503 68.7671 17.238 68.6016 17.2266C68.4234 17.1398 68.2966 17.0105 68.1589 16.8714C68.1225 16.8351 68.1225 16.8351 68.0854 16.7981C68.0043 16.7172 67.9235 16.6359 67.8427 16.5547C67.7846 16.4965 67.7264 16.4384 67.6683 16.3803C67.5105 16.2225 67.3529 16.0645 67.1954 15.9065C67.0308 15.7413 66.8659 15.5764 66.7011 15.4115C66.3889 15.0991 66.077 14.7866 65.7652 14.4739C65.4101 14.118 65.0549 13.7623 64.6996 13.4066C63.9688 12.675 63.2382 11.9431 62.5079 11.211C62.5079 11.2547 62.5078 11.2983 62.5078 11.3433C62.5072 12.4055 62.5056 13.4676 62.5027 14.5298C62.5014 15.0434 62.5004 15.557 62.5002 16.0707C62.5001 16.5183 62.4993 16.9659 62.4977 17.4136C62.4969 17.6507 62.4964 17.8877 62.4967 18.1248C62.497 18.3479 62.4964 18.5709 62.4951 18.794C62.4947 18.876 62.4947 18.9579 62.4951 19.0398C62.4956 19.1516 62.4948 19.2633 62.4938 19.3752C62.4942 19.4076 62.4946 19.4401 62.495 19.4735C62.4911 19.7014 62.4378 19.8021 62.2735 19.961C62.128 20.0337 61.9631 20.0224 61.8047 20.0001C61.6826 19.9347 61.5941 19.8522 61.5313 19.7266C61.5271 19.6154 61.5253 19.5052 61.5251 19.3939C61.5249 19.3591 61.5247 19.3243 61.5245 19.2884C61.5239 19.1709 61.5236 19.0535 61.5233 18.936C61.5229 18.8521 61.5225 18.7682 61.5221 18.6843C61.5211 18.4559 61.5202 18.2275 61.5195 17.9991C61.5186 17.7607 61.5175 17.5222 61.5165 17.2838C61.5145 16.8319 61.5128 16.3801 61.5111 15.9283C61.5092 15.414 61.507 14.8997 61.5049 14.3855C61.5004 13.3273 61.4962 12.2692 61.4922 11.211C61.4616 11.2418 61.4309 11.2725 61.3992 11.3042C60.6532 12.0519 59.907 12.7994 59.1606 13.5467C58.7996 13.9081 58.4387 14.2695 58.078 14.6311C57.7637 14.9462 57.4492 15.2612 57.1346 15.576C56.9679 15.7428 56.8013 15.9096 56.6349 16.0766C56.4784 16.2336 56.3217 16.3905 56.1649 16.5472C56.1072 16.6049 56.0496 16.6626 55.9921 16.7205C55.9138 16.7991 55.8353 16.8776 55.7567 16.956C55.7338 16.9791 55.7108 17.0022 55.6872 17.0261C55.5466 17.1657 55.467 17.2215 55.2667 17.2364C55.0858 17.2239 54.9962 17.1664 54.8614 17.0508C54.7498 16.917 54.7621 16.7671 54.7735 16.6016C54.8603 16.4234 54.9896 16.2966 55.1287 16.1589C55.165 16.1225 55.165 16.1225 55.202 16.0854C55.283 16.0043 55.3642 15.9235 55.4454 15.8427C55.5036 15.7846 55.5617 15.7264 55.6198 15.6683C55.7776 15.5105 55.9356 15.3529 56.0936 15.1954C56.2588 15.0308 56.4237 14.8659 56.5886 14.7011C56.901 14.3889 57.2136 14.077 57.5262 13.7652C57.8821 13.4101 58.2378 13.0549 58.5935 12.6996C59.3251 11.9688 60.057 11.2382 60.7891 10.5079C60.7455 10.5079 60.7018 10.5078 60.6568 10.5078C59.5946 10.5072 58.5325 10.5056 57.4704 10.5027C56.9567 10.5014 56.4431 10.5004 55.9294 10.5002C55.4818 10.5001 55.0342 10.4993 54.5865 10.4977C54.3495 10.4969 54.1124 10.4964 53.8753 10.4967C53.6522 10.497 53.4292 10.4964 53.2061 10.4951C53.1242 10.4947 53.0422 10.4947 52.9603 10.4951C52.8485 10.4956 52.7368 10.4948 52.625 10.4938C52.5925 10.4942 52.5601 10.4946 52.5266 10.495C52.2988 10.4911 52.1981 10.4378 52.0391 10.2735C51.9664 10.128 51.9777 9.96315 52.0001 9.80475C52.0654 9.68265 52.1479 9.59409 52.2735 9.53131C52.3847 9.52709 52.495 9.52526 52.6062 9.52513C52.641 9.52494 52.6759 9.52474 52.7118 9.52454C52.8292 9.52394 52.9466 9.52362 53.0641 9.52329C53.148 9.52291 53.2319 9.52252 53.3158 9.52212C53.5442 9.52106 53.7726 9.52024 54.001 9.51946C54.2394 9.51861 54.4779 9.51754 54.7164 9.51649C55.1682 9.51454 55.62 9.51278 56.0718 9.5111C56.5861 9.50917 57.1004 9.50703 57.6147 9.50486C58.6728 9.50041 59.731 9.49624 60.7891 9.49225C60.7584 9.46155 60.7276 9.43086 60.6959 9.39924C59.9482 8.65324 59.2007 7.90703 58.4534 7.16058C58.092 6.79961 57.7306 6.43871 57.369 6.07799C57.0539 5.76367 56.7389 5.44922 56.4241 5.1346C56.2574 4.96794 56.0905 4.80134 55.9235 4.63491C55.7665 4.47839 55.6096 4.32169 55.4529 4.16485C55.3952 4.1072 55.3375 4.04961 55.2797 3.99209C55.201 3.9138 55.1225 3.83527 55.0442 3.75667C55.021 3.73376 54.9979 3.71084 54.974 3.68724C54.8345 3.54663 54.7786 3.46699 54.7637 3.26666C54.7762 3.08577 54.8337 2.99622 54.9493 2.86139C55.0832 2.74982 55.233 2.76208 55.3985 2.7735C55.5768 2.86029 55.7035 2.98961 55.8412 3.1287C55.8655 3.15289 55.8897 3.17708 55.9147 3.202C55.9958 3.28296 56.0766 3.3642 56.1574 3.44545C56.2156 3.50359 56.2737 3.56172 56.3319 3.61983C56.4896 3.77759 56.6472 3.93559 56.8047 4.09363C56.9693 4.25878 57.1342 4.4237 57.2991 4.58864C57.6112 4.901 57.9231 5.21356 58.2349 5.52619C58.59 5.8821 58.9452 6.2378 59.3005 6.59347C60.0313 7.32511 60.7619 8.05702 61.4922 8.78912C61.4923 8.74545 61.4923 8.70178 61.4923 8.65678C61.4929 7.59464 61.4946 6.53251 61.4974 5.47037C61.4988 4.95673 61.4998 4.44309 61.4999 3.92945C61.5 3.4818 61.5008 3.03417 61.5024 2.58653C61.5033 2.34946 61.5037 2.11241 61.5034 1.87534C61.5031 1.65224 61.5037 1.42917 61.5051 1.20608C61.5054 1.12417 61.5054 1.04225 61.505 0.960336C61.5046 0.848521 61.5053 0.736777 61.5063 0.624968C61.5059 0.592516 61.5055 0.560065 61.5051 0.526631C61.509 0.298754 61.5623 0.198053 61.7266 0.0391219C61.8721 -0.0336255 62.037 -0.0222573 62.1954 5.94291e-05Z" fill="white"/>
</g>
<g clip-path="url(#clip2_1274_774)">
<path d="M36.1954 5.94291e-05C36.3175 0.0653748 36.406 0.147935 36.4688 0.273497C36.473 0.384692 36.4749 0.494957 36.475 0.606178C36.4752 0.641019 36.4754 0.675859 36.4756 0.711756C36.4762 0.829195 36.4765 0.946634 36.4768 1.06407C36.4772 1.14798 36.4776 1.23189 36.478 1.3158C36.4791 1.54419 36.4799 1.77258 36.4807 2.00097C36.4815 2.23943 36.4826 2.47789 36.4836 2.71635C36.4856 3.16818 36.4873 3.62001 36.489 4.07183C36.4909 4.58611 36.4931 5.10039 36.4953 5.61466C36.4997 6.67281 36.5039 7.73097 36.5079 8.78912C36.5386 8.75836 36.5693 8.72759 36.6009 8.69589C37.3469 7.94817 38.0931 7.20067 38.8395 6.4534C39.2005 6.09203 39.5614 5.73059 39.9221 5.36897C40.2364 5.05388 40.5509 4.73892 40.8655 4.42413C41.0322 4.25736 41.1988 4.09052 41.3652 3.92352C41.5217 3.76648 41.6784 3.60962 41.8353 3.45289C41.8929 3.39522 41.9505 3.33747 42.008 3.27965C42.0863 3.20097 42.1649 3.12253 42.2434 3.04415C42.2664 3.02101 42.2893 2.99787 42.3129 2.97403C42.4535 2.83446 42.5331 2.77857 42.7335 2.76373C42.9143 2.77621 43.0039 2.83371 43.1387 2.94928C43.2503 3.08316 43.238 3.23298 43.2266 3.3985C43.1398 3.57675 43.0105 3.70353 42.8714 3.84122C42.8472 3.86548 42.823 3.88973 42.7981 3.91472C42.7172 3.99581 42.6359 4.07662 42.5547 4.15744C42.4965 4.21556 42.4384 4.27371 42.3803 4.33186C42.2225 4.48964 42.0645 4.64718 41.9065 4.80468C41.7413 4.96933 41.5764 5.13421 41.4115 5.29906C41.0991 5.61118 40.7866 5.92309 40.4739 6.23494C40.118 6.58998 39.7623 6.94524 39.4066 7.30053C38.675 8.03135 37.9431 8.76189 37.211 9.49225C37.2547 9.49227 37.2983 9.49229 37.3433 9.49231C38.4055 9.49287 39.4676 9.49455 40.5298 9.49741C41.0434 9.49876 41.557 9.49975 42.0707 9.49989C42.5183 9.5 42.9659 9.5008 43.4136 9.50242C43.6507 9.50326 43.8877 9.50375 44.1248 9.50342C44.3479 9.50313 44.5709 9.50375 44.794 9.50506C44.876 9.50538 44.9579 9.50537 45.0398 9.505C45.1516 9.50455 45.2633 9.5053 45.3752 9.50634C45.4076 9.50592 45.4401 9.50551 45.4735 9.50508C45.7014 9.50905 45.8021 9.56229 45.961 9.72662C46.0337 9.87212 46.0224 10.037 46.0001 10.1954C45.9347 10.3175 45.8522 10.406 45.7266 10.4688C45.6154 10.473 45.5052 10.4749 45.3939 10.475C45.3417 10.4753 45.3417 10.4753 45.2884 10.4756C45.1709 10.4762 45.0535 10.4765 44.936 10.4768C44.8521 10.4772 44.7682 10.4776 44.6843 10.478C44.4559 10.4791 44.2275 10.4799 43.9991 10.4807C43.7607 10.4815 43.5222 10.4826 43.2838 10.4836C42.8319 10.4856 42.3801 10.4873 41.9283 10.489C41.414 10.4909 40.8997 10.4931 40.3855 10.4953C39.3273 10.4997 38.2692 10.5039 37.211 10.5079C37.2418 10.5386 37.2725 10.5693 37.3042 10.6009C38.0519 11.3469 38.7995 12.0931 39.5467 12.8395C39.9081 13.2005 40.2695 13.5614 40.6311 13.9221C40.9462 14.2364 41.2612 14.5509 41.576 14.8655C41.7428 15.0322 41.9096 15.1988 42.0766 15.3652C42.2336 15.5217 42.3905 15.6784 42.5472 15.8353C42.6049 15.8929 42.6626 15.9505 42.7205 16.008C42.7991 16.0863 42.8776 16.1649 42.956 16.2434C42.9791 16.2664 43.0022 16.2893 43.0261 16.3129C43.1657 16.4535 43.2215 16.5331 43.2364 16.7335C43.2239 16.9143 43.1664 17.0039 43.0508 17.1387C42.917 17.2503 42.7671 17.238 42.6016 17.2266C42.4234 17.1398 42.2966 17.0105 42.1589 16.8714C42.1225 16.8351 42.1225 16.8351 42.0854 16.7981C42.0043 16.7172 41.9235 16.6359 41.8427 16.5547C41.7846 16.4965 41.7264 16.4384 41.6683 16.3803C41.5105 16.2225 41.3529 16.0645 41.1954 15.9065C41.0308 15.7413 40.8659 15.5764 40.7011 15.4115C40.3889 15.0991 40.077 14.7866 39.7652 14.4739C39.4101 14.118 39.0549 13.7623 38.6996 13.4066C37.9688 12.675 37.2382 11.9431 36.5079 11.211C36.5079 11.2547 36.5078 11.2983 36.5078 11.3433C36.5072 12.4055 36.5056 13.4676 36.5027 14.5298C36.5014 15.0434 36.5004 15.557 36.5002 16.0707C36.5001 16.5183 36.4993 16.9659 36.4977 17.4136C36.4969 17.6507 36.4964 17.8877 36.4967 18.1248C36.497 18.3479 36.4964 18.5709 36.4951 18.794C36.4947 18.876 36.4947 18.9579 36.4951 19.0398C36.4956 19.1516 36.4948 19.2633 36.4938 19.3752C36.4942 19.4076 36.4946 19.4401 36.495 19.4735C36.4911 19.7014 36.4378 19.8021 36.2735 19.961C36.128 20.0337 35.9631 20.0224 35.8047 20.0001C35.6826 19.9347 35.5941 19.8522 35.5313 19.7266C35.5271 19.6154 35.5253 19.5052 35.5251 19.3939C35.5249 19.3591 35.5247 19.3243 35.5245 19.2884C35.5239 19.1709 35.5236 19.0535 35.5233 18.936C35.5229 18.8521 35.5225 18.7682 35.5221 18.6843C35.5211 18.4559 35.5202 18.2275 35.5195 17.9991C35.5186 17.7607 35.5175 17.5222 35.5165 17.2838C35.5145 16.8319 35.5128 16.3801 35.5111 15.9283C35.5092 15.414 35.507 14.8997 35.5049 14.3855C35.5004 13.3273 35.4962 12.2692 35.4922 11.211C35.4616 11.2418 35.4309 11.2725 35.3992 11.3042C34.6532 12.0519 33.907 12.7994 33.1606 13.5467C32.7996 13.9081 32.4387 14.2695 32.078 14.6311C31.7637 14.9462 31.4492 15.2612 31.1346 15.576C30.9679 15.7428 30.8013 15.9096 30.6349 16.0766C30.4784 16.2336 30.3217 16.3905 30.1649 16.5472C30.1072 16.6049 30.0496 16.6626 29.9921 16.7205C29.9138 16.7991 29.8353 16.8776 29.7567 16.956C29.7338 16.9791 29.7108 17.0022 29.6872 17.0261C29.5466 17.1657 29.467 17.2215 29.2667 17.2364C29.0858 17.2239 28.9962 17.1664 28.8614 17.0508C28.7498 16.917 28.7621 16.7671 28.7735 16.6016C28.8603 16.4234 28.9896 16.2966 29.1287 16.1589C29.165 16.1225 29.165 16.1225 29.202 16.0854C29.283 16.0043 29.3642 15.9235 29.4454 15.8427C29.5036 15.7846 29.5617 15.7264 29.6198 15.6683C29.7776 15.5105 29.9356 15.3529 30.0936 15.1954C30.2588 15.0308 30.4237 14.8659 30.5886 14.7011C30.901 14.3889 31.2136 14.077 31.5262 13.7652C31.8821 13.4101 32.2378 13.0549 32.5935 12.6996C33.3251 11.9688 34.057 11.2382 34.7891 10.5079C34.7455 10.5079 34.7018 10.5078 34.6568 10.5078C33.5946 10.5072 32.5325 10.5056 31.4704 10.5027C30.9567 10.5014 30.4431 10.5004 29.9294 10.5002C29.4818 10.5001 29.0342 10.4993 28.5865 10.4977C28.3495 10.4969 28.1124 10.4964 27.8753 10.4967C27.6522 10.497 27.4292 10.4964 27.2061 10.4951C27.1242 10.4947 27.0422 10.4947 26.9603 10.4951C26.8485 10.4956 26.7368 10.4948 26.625 10.4938C26.5925 10.4942 26.5601 10.4946 26.5266 10.495C26.2988 10.4911 26.1981 10.4378 26.0391 10.2735C25.9664 10.128 25.9777 9.96315 26.0001 9.80475C26.0654 9.68265 26.1479 9.59409 26.2735 9.53131C26.3847 9.52709 26.495 9.52526 26.6062 9.52513C26.641 9.52494 26.6759 9.52474 26.7118 9.52454C26.8292 9.52394 26.9466 9.52362 27.0641 9.52329C27.148 9.52291 27.2319 9.52252 27.3158 9.52212C27.5442 9.52106 27.7726 9.52024 28.001 9.51946C28.2394 9.51861 28.4779 9.51754 28.7164 9.51649C29.1682 9.51454 29.62 9.51278 30.0718 9.5111C30.5861 9.50917 31.1004 9.50703 31.6147 9.50486C32.6728 9.50041 33.731 9.49624 34.7891 9.49225C34.7584 9.46155 34.7276 9.43086 34.6959 9.39924C33.9482 8.65324 33.2007 7.90703 32.4534 7.16058C32.092 6.79961 31.7306 6.43871 31.369 6.07799C31.0539 5.76367 30.7389 5.44922 30.4241 5.1346C30.2574 4.96794 30.0905 4.80134 29.9235 4.63491C29.7665 4.47839 29.6096 4.32169 29.4529 4.16485C29.3952 4.1072 29.3375 4.04961 29.2797 3.99209C29.201 3.9138 29.1225 3.83527 29.0442 3.75667C29.021 3.73376 28.9979 3.71084 28.974 3.68724C28.8345 3.54663 28.7786 3.46699 28.7637 3.26666C28.7762 3.08577 28.8337 2.99622 28.9493 2.86139C29.0832 2.74982 29.233 2.76208 29.3985 2.7735C29.5768 2.86029 29.7035 2.98961 29.8412 3.1287C29.8655 3.15289 29.8897 3.17708 29.9147 3.202C29.9958 3.28296 30.0766 3.3642 30.1574 3.44545C30.2156 3.50359 30.2737 3.56172 30.3319 3.61983C30.4896 3.77759 30.6472 3.93559 30.8047 4.09363C30.9693 4.25878 31.1342 4.4237 31.2991 4.58864C31.6112 4.901 31.9231 5.21356 32.2349 5.52619C32.59 5.8821 32.9452 6.2378 33.3005 6.59347C34.0313 7.32511 34.7619 8.05702 35.4922 8.78912C35.4923 8.74545 35.4923 8.70178 35.4923 8.65678C35.4929 7.59464 35.4946 6.53251 35.4974 5.47037C35.4988 4.95673 35.4998 4.44309 35.4999 3.92945C35.5 3.4818 35.5008 3.03417 35.5024 2.58653C35.5033 2.34946 35.5037 2.11241 35.5034 1.87534C35.5031 1.65224 35.5037 1.42917 35.5051 1.20608C35.5054 1.12417 35.5054 1.04225 35.505 0.960336C35.5046 0.848521 35.5053 0.736777 35.5063 0.624968C35.5059 0.592516 35.5055 0.560065 35.5051 0.526631C35.509 0.298754 35.5623 0.198053 35.7266 0.0391219C35.8721 -0.0336255 36.037 -0.0222573 36.1954 5.94291e-05Z" fill="white"/>
</g>
<defs>
<clipPath id="clip0_1274_774">
<rect width="20" height="20" fill="white"/>
</clipPath>
<clipPath id="clip1_1274_774">
<rect width="20" height="20" fill="white" transform="translate(52)"/>
</clipPath>
<clipPath id="clip2_1274_774">
<rect width="20" height="20" fill="white" transform="translate(26)"/>
</clipPath>
</defs>
</svg>
