<svg width="41" height="40" viewBox="0 0 41 40" fill="none" xmlns="http://www.w3.org/2000/svg">
<g clip-path="url(#clip0_1196_646)">
<path d="M9.64771 -0.0201094C9.76586 -0.0208652 9.76586 -0.0208652 9.8864 -0.0216362C9.97239 -0.0213942 10.0584 -0.0211522 10.147 -0.0209029C10.2846 -0.0214339 10.2846 -0.0214339 10.4251 -0.0219756C10.6795 -0.0227936 10.9339 -0.0229108 11.1884 -0.0227265C11.4629 -0.0226946 11.7375 -0.0235571 12.012 -0.024298C12.5498 -0.0255956 13.0875 -0.0260253 13.6253 -0.0261124C14.0625 -0.0261867 14.4997 -0.0265078 14.9368 -0.0270032C16.1764 -0.0283791 17.4161 -0.0290999 18.6557 -0.0289828C18.7225 -0.0289765 18.7893 -0.0289703 18.8582 -0.0289638C18.9251 -0.0289575 18.992 -0.0289511 19.0609 -0.0289445C20.1451 -0.028881 21.2293 -0.0303761 22.3135 -0.0325792C23.427 -0.0348238 24.5404 -0.0359027 25.6538 -0.0357677C26.2789 -0.0357158 26.9039 -0.0361447 27.5289 -0.0378268C28.0611 -0.0392498 28.5933 -0.039589 29.1255 -0.0385284C29.3969 -0.0380184 29.6684 -0.0380087 29.9398 -0.0393649C30.2343 -0.0405685 30.5288 -0.0398471 30.8233 -0.0386413C30.9087 -0.0394449 30.9942 -0.0402486 31.0823 -0.0410767C31.6787 -0.0356775 32.0652 0.0772482 32.5474 0.44341C33.0216 0.926813 33.2321 1.43137 33.2344 2.10937C33.1905 2.66096 32.973 3.10131 32.6094 3.51562C32.1016 3.94685 31.5622 4.0712 30.9092 4.06585C30.8324 4.06536 30.7556 4.06488 30.6765 4.06438C30.5891 4.06344 30.5891 4.06344 30.5 4.06249C30.5016 4.12481 30.5033 4.18713 30.505 4.25134C30.6248 9.5537 28.6999 14.0238 25.0718 17.8235C24.3615 18.5682 23.9127 19.1596 23.9375 20.2344C24.0568 20.9758 24.36 21.4621 24.8994 21.9824C25.1987 22.275 25.4853 22.5726 25.7563 22.8915C25.8499 22.9997 25.9462 23.1056 26.0444 23.2095C26.898 24.1172 27.617 25.1699 28.2344 26.25C28.2617 26.2973 28.289 26.3446 28.3172 26.3933C29.4544 28.3795 30.0963 30.5572 30.4219 32.8125C30.4302 32.8668 30.4386 32.921 30.4471 32.977C30.5273 33.5715 30.5085 34.172 30.5049 34.7705C30.5045 34.884 30.5041 34.9975 30.5038 35.1109C30.503 35.3865 30.5016 35.662 30.5 35.9375C30.5573 35.9364 30.6146 35.9353 30.6736 35.9342C30.7496 35.9334 30.8257 35.9326 30.9041 35.9317C30.9791 35.9306 31.0541 35.9295 31.1313 35.9284C31.7141 35.9516 32.2671 36.1528 32.6875 36.5625C33.0834 37.0153 33.204 37.5329 33.2344 38.125C33.1812 38.8363 32.8244 39.2664 32.3045 39.7253C32.0009 39.9447 31.7239 40.0195 31.3523 40.0201C31.2735 40.0206 31.1948 40.0211 31.1136 40.0216C31.0276 40.0214 30.9416 40.0211 30.853 40.0209C30.7613 40.0212 30.6695 40.0216 30.5749 40.022C30.3205 40.0228 30.0661 40.0229 29.8116 40.0227C29.5371 40.0227 29.2625 40.0235 28.988 40.0243C28.4502 40.0256 27.9125 40.026 27.3747 40.0261C26.9375 40.0262 26.5003 40.0265 26.0632 40.027C24.8236 40.0284 23.5839 40.0291 22.3443 40.029C22.2775 40.029 22.2107 40.029 22.1418 40.0289C22.0749 40.0289 22.008 40.0289 21.9391 40.0289C20.8549 40.0289 19.7707 40.0304 18.6865 40.0326C17.573 40.0348 16.4596 40.0359 15.3462 40.0358C14.7211 40.0357 14.0961 40.0361 13.471 40.0378C12.9389 40.0392 12.4067 40.0396 11.8745 40.0385C11.6031 40.038 11.3316 40.038 11.0602 40.0393C10.7657 40.0406 10.4712 40.0398 10.1767 40.0386C10.0913 40.0394 10.0058 40.0402 9.91775 40.0411C9.3213 40.0357 8.93482 39.9227 8.45258 39.5566C7.9784 39.0732 7.76791 38.5686 7.76562 37.8906C7.80952 37.339 8.027 36.8987 8.39062 36.4844C8.89845 36.0531 9.43777 35.9288 10.0908 35.9341C10.1676 35.9346 10.2444 35.9351 10.3235 35.9356C10.3818 35.9362 10.44 35.9369 10.5 35.9375C10.4984 35.8752 10.4967 35.8129 10.495 35.7486C10.3779 30.5633 12.2119 26.0895 15.7637 22.3535C15.8157 22.2996 15.8678 22.2458 15.9214 22.1902C16.5451 21.5393 17.0478 20.953 17.0671 20.0104C17.0073 19.0925 16.6756 18.6193 16.0469 17.9687C13.1015 14.8912 11.1921 11.4405 10.5781 7.18749C10.5698 7.13322 10.5614 7.07894 10.5529 7.02302C10.4727 6.4285 10.4915 5.82802 10.4951 5.22948C10.4955 5.11601 10.4959 5.00253 10.4962 4.88906C10.497 4.61353 10.4984 4.33801 10.5 4.06249C10.4141 4.06411 10.4141 4.0641 10.3264 4.06575C10.2504 4.06659 10.1743 4.06743 10.0959 4.06829C10.0209 4.06937 9.94594 4.07044 9.86867 4.07155C9.2859 4.0484 8.73295 3.84721 8.3125 3.43749C7.9166 2.98473 7.79605 2.46705 7.76562 1.87499C7.81884 1.16369 8.17556 0.733594 8.6955 0.274648C8.99908 0.0553004 9.27614 -0.0195068 9.64771 -0.0201094ZM9.35457 1.54788C9.19963 1.80104 9.20851 1.9752 9.25 2.26562C9.42333 2.49274 9.52496 2.5656 9.79688 2.65624C9.91732 2.66348 10.0381 2.66633 10.1587 2.66651C10.2335 2.66681 10.3082 2.66711 10.3852 2.66742C10.4675 2.66735 10.5498 2.66728 10.6346 2.66721C10.7219 2.66744 10.8091 2.66768 10.8991 2.66792C11.1931 2.6686 11.4871 2.66871 11.7811 2.66883C11.9912 2.66919 12.2014 2.66958 12.4116 2.67C12.9836 2.67107 13.5557 2.67154 14.1277 2.67188C14.4849 2.6721 14.842 2.67243 15.1991 2.67278C16.1877 2.67373 17.1763 2.67454 18.1649 2.6748C18.2282 2.67482 18.2915 2.67483 18.3567 2.67485C18.4201 2.67487 18.4836 2.67489 18.5489 2.6749C18.6775 2.67494 18.806 2.67497 18.9345 2.67501C18.9983 2.67503 19.0621 2.67504 19.1278 2.67506C20.1611 2.67537 21.1944 2.67673 22.2277 2.67855C23.2883 2.6804 24.3489 2.68138 25.4096 2.68147C26.0052 2.68154 26.6008 2.68199 27.1964 2.68341C27.7035 2.68461 28.2107 2.68501 28.7178 2.68437C28.9766 2.68406 29.2353 2.68426 29.4941 2.68523C29.7746 2.68622 30.0551 2.68577 30.3357 2.68495C30.4583 2.68589 30.4583 2.68589 30.5834 2.68686C31.0033 2.68399 31.3121 2.66518 31.6719 2.42187C31.7926 2.18032 31.7729 1.98481 31.75 1.71874C31.6523 1.53002 31.6523 1.53002 31.4375 1.40624C31.1493 1.35863 30.8631 1.36414 30.5716 1.36656C30.4822 1.36607 30.3928 1.36558 30.3007 1.36508C30.0526 1.36405 29.8045 1.36442 29.5564 1.36539C29.2889 1.36609 29.0213 1.365 28.7538 1.36414C28.2296 1.36275 27.7055 1.36306 27.1813 1.36396C26.7554 1.36467 26.3295 1.36476 25.9035 1.36442C25.843 1.36437 25.7824 1.36433 25.72 1.36428C25.5969 1.36418 25.4739 1.36408 25.3508 1.36397C24.1964 1.36308 23.042 1.36411 21.8876 1.36579C20.8967 1.36718 19.9058 1.36694 18.9149 1.3655C17.7647 1.36383 16.6145 1.36317 15.4643 1.36413C15.3417 1.36423 15.2191 1.36433 15.0965 1.36442C15.0361 1.36447 14.9758 1.36452 14.9136 1.36457C14.4881 1.36484 14.0627 1.36438 13.6371 1.36365C13.1187 1.36277 12.6003 1.36301 12.0819 1.36467C11.8173 1.3655 11.5527 1.36581 11.2881 1.36478C11.0015 1.36393 10.715 1.36499 10.4284 1.36656C10.3444 1.36586 10.2605 1.36516 10.1739 1.36445C9.73757 1.36308 9.73757 1.36308 9.35457 1.54788ZM11.9062 4.06249C11.9062 8.77497 13.1791 12.8054 16.4375 16.25C16.5616 16.388 16.6853 16.5263 16.8086 16.665C17.0078 16.8884 17.2106 17.0999 17.4287 17.3047C18.1859 18.053 18.4329 18.972 18.4688 20.0046C18.4688 21.1552 17.9961 22.1227 17.1914 22.9296C17.0677 23.0515 16.9434 23.1728 16.819 23.2941C16.5967 23.5109 16.389 23.7362 16.1885 23.9734C16.0815 24.0997 15.972 24.2239 15.8613 24.3469C12.9326 27.6384 11.9062 31.6247 11.9062 35.9375C17.5781 35.9375 23.25 35.9375 29.0938 35.9375C29.0938 31.225 27.8209 27.1946 24.5625 23.75C24.4384 23.612 24.3147 23.4737 24.1914 23.335C23.9922 23.1116 23.7894 22.9001 23.5713 22.6953C22.8141 21.9469 22.5671 21.028 22.5312 19.9954C22.5312 18.8448 23.0039 17.8773 23.8086 17.0704C23.9323 16.9485 24.0566 16.8271 24.181 16.7059C24.4033 16.4891 24.611 16.2638 24.8115 16.0266C24.9185 15.9003 25.028 15.7761 25.1387 15.6531C28.0674 12.3616 29.0938 8.37527 29.0938 4.06249C23.4219 4.06249 17.75 4.06249 11.9062 4.06249ZM9.32812 37.5781C9.20735 37.8197 9.22706 38.0152 9.25 38.2812C9.34771 38.47 9.34771 38.47 9.5625 38.5937C9.85071 38.6414 10.1369 38.6358 10.4284 38.6334C10.5178 38.6339 10.6072 38.6344 10.6993 38.6349C10.9474 38.6359 11.1955 38.6356 11.4436 38.6346C11.7111 38.6339 11.9787 38.635 12.2462 38.6358C12.7704 38.6372 13.2945 38.6369 13.8187 38.636C14.2446 38.6353 14.6705 38.6352 15.0965 38.6356C15.157 38.6356 15.2176 38.6357 15.28 38.6357C15.4031 38.6358 15.5261 38.6359 15.6492 38.636C16.8036 38.6369 17.958 38.6359 19.1124 38.6342C20.1033 38.6328 21.0942 38.633 22.0851 38.6345C23.2353 38.6362 24.3855 38.6368 25.5357 38.6359C25.6583 38.6358 25.7809 38.6357 25.9035 38.6356C25.9639 38.6355 26.0242 38.6355 26.0864 38.6354C26.5119 38.6351 26.9373 38.6356 27.3629 38.6363C27.8813 38.6372 28.3997 38.637 28.9181 38.6353C29.1827 38.6345 29.4473 38.6342 29.7119 38.6352C29.9985 38.6361 30.285 38.635 30.5716 38.6334C30.6975 38.6345 30.6976 38.6345 30.8261 38.6355C31.2624 38.6369 31.2624 38.6369 31.6454 38.4521C31.8004 38.1989 31.7915 38.0248 31.75 37.7344C31.5767 37.5072 31.475 37.4344 31.2031 37.3437C31.0827 37.3365 30.9619 37.3337 30.8413 37.3335C30.7665 37.3332 30.6918 37.3329 30.6148 37.3326C30.4914 37.3327 30.4914 37.3327 30.3654 37.3328C30.2781 37.3325 30.1909 37.3323 30.1009 37.3321C29.8069 37.3314 29.5129 37.3313 29.2189 37.3312C29.0088 37.3308 28.7986 37.3304 28.5884 37.33C28.0164 37.3289 27.4443 37.3284 26.8723 37.3281C26.5151 37.3279 26.158 37.3276 25.8009 37.3272C24.8123 37.3263 23.8237 37.3255 22.8351 37.3252C22.7718 37.3252 22.7085 37.3252 22.6433 37.3251C22.5799 37.3251 22.5164 37.3251 22.4511 37.3251C22.3225 37.325 22.194 37.325 22.0655 37.325C22.0017 37.325 21.9379 37.3249 21.8722 37.3249C20.8389 37.3246 19.8056 37.3233 18.7723 37.3214C17.7117 37.3196 16.6511 37.3186 15.5904 37.3185C14.9948 37.3184 14.3992 37.318 13.8036 37.3166C13.2965 37.3154 12.7893 37.315 12.2822 37.3156C12.0234 37.3159 11.7647 37.3157 11.5059 37.3148C11.2254 37.3138 10.9449 37.3142 10.6643 37.315C10.5826 37.3144 10.5008 37.3138 10.4166 37.3131C9.99673 37.316 9.68785 37.3348 9.32812 37.5781Z" fill="white" fill-opacity="0.8"/>
<path d="M19.3281 27.9376C19.4217 27.9374 19.5152 27.9371 19.6116 27.9369C19.8081 27.9368 20.0045 27.9372 20.2009 27.9382C20.4992 27.9394 20.7974 27.9382 21.0957 27.9367C21.2878 27.9368 21.4798 27.9371 21.6719 27.9376C21.7598 27.9371 21.8477 27.9366 21.9383 27.9362C23.3005 27.9481 24.4621 28.4171 25.4265 29.3741C25.5032 29.4524 25.5798 29.5308 25.6562 29.6093C25.7158 29.6689 25.7158 29.6689 25.7765 29.7297C26.7515 30.7089 27.4735 31.7639 27.751 33.1347C27.7616 33.1861 27.7723 33.2374 27.7833 33.2903C27.8542 33.6797 27.8497 33.9917 27.7656 34.375C27.6406 34.5471 27.6406 34.5471 27.4531 34.6875C27.1984 34.7268 27.1984 34.7268 26.8897 34.7272C26.8329 34.7276 26.776 34.7281 26.7175 34.7286C26.527 34.7299 26.3366 34.7289 26.1461 34.7279C26.0095 34.7283 25.873 34.7289 25.7364 34.7296C25.3655 34.731 24.9946 34.7304 24.6237 34.7294C24.2357 34.7287 23.8478 34.7294 23.4598 34.7299C22.8083 34.7305 22.1568 34.7297 21.5053 34.7282C20.7518 34.7265 19.9983 34.7271 19.2447 34.7288C18.5981 34.7302 17.9514 34.7304 17.3048 34.7296C16.9184 34.7291 16.5321 34.729 16.1457 34.7301C15.7825 34.731 15.4194 34.7303 15.0561 34.7285C14.9227 34.7281 14.7893 34.7282 14.6559 34.7289C14.474 34.7298 14.2922 34.7287 14.1103 34.7272C13.9575 34.727 13.9575 34.727 13.8016 34.7268C13.5469 34.6875 13.5469 34.6875 13.3594 34.5471C13.1156 34.2114 13.147 33.8429 13.1862 33.4485C13.4322 32.1584 13.9241 31.0344 14.9006 30.1251C15.0431 29.9886 15.1679 29.8433 15.2949 29.6924C16.3821 28.4492 17.6874 27.9287 19.3281 27.9376ZM15.6819 31.3412C15.2422 31.8761 14.7187 32.5582 14.7187 33.2812C18.5344 33.2812 22.35 33.2812 26.2812 33.2812C26.0803 32.3769 25.7517 31.868 25.1265 31.2011C24.9724 31.0363 24.8284 30.867 24.6846 30.6933C24.0709 29.9948 23.3734 29.5366 22.4531 29.375C22.3243 29.3671 22.1953 29.3627 22.0663 29.3611C21.954 29.3596 21.954 29.3596 21.8393 29.3581C21.7591 29.3575 21.6789 29.357 21.5962 29.3564C21.4706 29.3554 21.4706 29.3554 21.3424 29.3544C21.1651 29.3534 20.9878 29.3525 20.8105 29.3519C20.6307 29.351 20.4508 29.3494 20.271 29.3471C18.1919 29.3204 17.0898 29.7584 15.6819 31.3412Z" fill="white" fill-opacity="0.8"/>
<path d="M19.7041 9.48733C21.1765 10.3685 22.8907 10.4996 24.5681 10.5648C25.7263 10.6174 25.7263 10.6174 26.1174 11.0077C26.2811 11.3211 26.2559 11.6107 26.2031 11.9532C25.93 12.5824 25.4633 13.0423 24.9757 13.5099C24.865 13.6185 24.7543 13.7271 24.6437 13.8358C24.4127 14.0622 24.1803 14.2873 23.9479 14.5123C23.7561 14.698 23.5647 14.8841 23.3743 15.0712C23.2324 15.2106 23.0897 15.3491 22.946 15.4866C21.8756 16.5401 21.3678 17.7778 21.2465 19.2609C21.2019 19.5391 21.1363 19.6977 20.9688 19.9219C20.7194 20.0466 20.4582 20.0402 20.1875 20C19.9976 19.8539 19.9031 19.7437 19.7969 19.5313C19.7818 19.3985 19.7671 19.2656 19.7544 19.1326C19.5837 17.4059 18.8125 16.2729 17.6005 15.0705C16.7363 14.1992 16.0367 13.1672 15.4219 12.1094C15.3854 12.0509 15.349 11.9924 15.3114 11.9321C15.1188 11.5999 15.0688 11.3458 15.1356 10.9653C15.3412 10.236 15.7542 9.65013 16.4033 9.25235C17.5399 8.66041 18.6375 8.84117 19.7041 9.48733ZM16.8379 10.7373C16.6446 10.9684 16.6446 10.9684 16.5938 11.25C17.1509 12.521 18.2082 13.6687 19.1963 14.6289C19.6447 15.065 20.0038 15.5312 20.3093 16.077C20.3464 16.1341 20.3836 16.1912 20.4219 16.25C20.4734 16.25 20.525 16.25 20.5781 16.25C20.6595 16.1295 20.7349 16.0049 20.8076 15.8789C21.4941 14.7788 22.5284 13.9004 23.4437 12.9926C23.5035 12.9332 23.5634 12.8738 23.625 12.8125C23.6933 12.7451 23.7616 12.6777 23.832 12.6082C24.0124 12.4252 24.1713 12.2346 24.3281 12.0313C24.2439 12.0231 24.2439 12.0231 24.1581 12.0147C22.1648 11.817 20.3438 11.5667 18.6088 10.5185C17.9823 10.1514 17.3799 10.2778 16.8379 10.7373Z" fill="white" fill-opacity="0.8"/>
<path d="M20.8125 21.3282C21.0444 21.5006 21.1116 21.6005 21.2031 21.875C21.2144 22.0277 21.2204 22.1809 21.2227 22.334C21.2247 22.4144 21.2267 22.4947 21.2288 22.5775C21.1994 22.8469 21.1298 22.9872 20.9688 23.2032C20.6757 23.3985 20.5345 23.4013 20.1875 23.3594C19.9017 23.1438 19.8071 23.0274 19.745 22.6709C19.744 22.5619 19.745 22.4528 19.748 22.3438C19.7465 22.2892 19.745 22.2346 19.7435 22.1784C19.7463 21.8739 19.7884 21.7298 19.9754 21.4872C20.2932 21.2489 20.424 21.2727 20.8125 21.3282Z" fill="white" fill-opacity="0.8"/>
<path d="M20.8125 24.6875C21.032 24.8655 21.1132 24.9646 21.2031 25.2344C21.2426 25.7185 21.2627 26.1531 20.9687 26.5625C20.7622 26.7322 20.6539 26.7187 20.3828 26.709C20.0716 26.6312 19.9844 26.5843 19.7969 26.3281C19.7512 26.1057 19.7532 25.8904 19.7578 25.6641C19.7566 25.6047 19.7554 25.5454 19.7542 25.4843C19.7562 25.193 19.7628 25.0457 19.9409 24.8071C20.2485 24.5887 20.4562 24.593 20.8125 24.6875Z" fill="white" fill-opacity="0.8"/>
</g>
<defs>
<clipPath id="clip0_1196_646">
<rect width="40" height="40" fill="white" transform="translate(0.5)"/>
</clipPath>
</defs>
</svg>
