<svg width="50" height="50" viewBox="0 0 50 50" fill="none" xmlns="http://www.w3.org/2000/svg">
<path d="M40.9056 2.79624C38.5319 5.17206 38.0826 5.66091 37.9946 6.00311C37.9067 6.29642 37.9067 6.7755 37.9849 7.77276C38.0337 8.52559 38.0826 9.17087 38.0826 9.21976C38.0826 9.25887 37.7407 9.01444 37.3304 8.68202C32.1922 4.59521 25.0711 2.92334 18.4774 4.26279C13.8472 5.20139 9.66631 7.51855 6.37436 10.9699C-1.41104 19.1435 -2.15344 31.8047 4.63559 40.829C5.54405 42.0315 6.21807 42.7257 6.50135 42.7257C6.86278 42.7257 7.08746 42.5693 7.20468 42.2271C7.33167 41.8555 7.27306 41.7284 6.34506 40.6236C2.84798 36.4097 1.02129 30.5044 1.53901 25.0292C2.48654 15.0567 9.80307 7.20569 19.718 5.52403C20.9879 5.30894 23.9965 5.22095 25.286 5.3676C29.8673 5.88578 33.9896 7.66521 37.2816 10.5397L37.9067 11.0774L36.2559 12.7297C35.3572 13.6292 34.5952 14.3723 34.5659 14.3723C34.5366 14.3723 34.1654 14.079 33.7356 13.727C31.694 12.0551 29.1249 10.8428 26.3605 10.2561C25.4813 10.0606 25.032 10.0313 23.1858 10.0313C21.32 10.0215 20.8902 10.0508 19.9329 10.2464C14.6384 11.3218 10.2915 14.6265 7.91777 19.4074C4.68443 25.8896 5.98363 33.7699 11.1218 38.9127C15.7129 43.5176 22.5117 45.082 28.6463 42.9506C32.3778 41.66 35.6209 39.0006 37.7114 35.52C38.571 34.0926 39.4501 31.8341 39.6943 30.4066C39.7823 29.9275 39.4697 29.5267 39.0203 29.5267C38.5319 29.5267 38.3952 29.7027 38.1412 30.6511C37.7797 31.9807 37.4379 32.89 36.8517 34.0241C33.8431 39.8317 27.5327 43.1363 21.066 42.2857C12.6359 41.1809 6.62834 33.3495 7.74194 24.9315C8.62109 18.3515 13.476 13.1208 19.9915 11.7227C21.2321 11.4685 23.6449 11.3707 24.9538 11.5369C27.943 11.9084 31.0298 13.2675 33.1495 15.1349L33.5207 15.4673L31.8699 17.1098L30.219 18.7622L29.5841 18.2733C28.7244 17.6085 27.0052 16.7774 25.8232 16.4548C24.9245 16.2006 24.7096 16.181 23.0881 16.1908C21.5056 16.1908 21.2321 16.2201 20.3822 16.445C16.553 17.4911 13.6518 20.4243 12.6164 24.3253C12.3917 25.1661 12.3624 25.4594 12.3624 26.9358C12.3624 28.4219 12.3819 28.6956 12.6164 29.5756C13.1927 31.7363 14.5994 33.9361 16.2795 35.2951C17.3638 36.1653 19.1123 37.055 20.4506 37.4168C21.3298 37.6514 21.6033 37.671 23.0881 37.671C24.5631 37.671 24.8562 37.6416 25.6865 37.4265C27.0052 37.0648 27.9625 36.6444 29.0175 35.9502C31.2252 34.5032 32.876 32.2154 33.5598 29.644C33.7942 28.7934 33.8235 28.5099 33.8235 26.9358C33.8333 25.303 33.8138 25.1075 33.5598 24.1982C33.2374 23.0054 32.4071 21.2944 31.7429 20.434L31.2545 19.7985L32.9053 18.1462L34.5464 16.4939L34.8785 16.8654C35.9726 18.0973 37.2229 20.2972 37.7797 21.9788C38.19 23.2107 38.4733 24.6871 38.5417 25.9092C38.571 26.4763 38.6589 27.0531 38.7273 27.1998C38.9129 27.5615 39.3915 27.6593 39.7334 27.4051C39.9679 27.2291 39.9874 27.1411 40.0167 26.4371C40.046 25.5768 39.8311 23.9049 39.5381 22.7316C38.9617 20.4536 37.77 18.0973 36.2852 16.2788C35.9335 15.8486 35.6405 15.4771 35.6405 15.4477C35.6405 15.4184 36.3829 14.6558 37.2816 13.7563L38.9324 12.104L39.3818 12.6124C41.0522 14.47 42.6639 17.2174 43.504 19.6519C46.4443 28.1481 43.9827 37.4852 37.2523 43.2928C34.1166 45.9912 30.3753 47.712 26.214 48.3671C24.905 48.5724 21.447 48.6017 20.2552 48.4062C16.3088 47.7804 13.0657 46.4508 10.0473 44.202C9.15836 43.547 8.89461 43.4785 8.53318 43.8501C7.97638 44.4074 8.29874 44.8278 10.2915 46.1672C12.4015 47.5751 14.8631 48.6702 17.4224 49.3252C19.464 49.8532 20.7437 49.9998 23.1369 49.9998C26.1261 50.0096 28.4998 49.599 31.0493 48.6408C41.7359 44.6518 47.8998 33.7504 45.7996 22.5752C45.1256 19.0164 43.4454 15.3206 41.2378 12.5733L40.6907 11.9084L41.3647 11.9671C43.5529 12.1529 43.7189 12.1431 44.1585 11.9476C44.4516 11.8107 45.3698 10.9601 47.2942 9.02422C49.6874 6.60929 50 6.26709 50 5.99333C50 5.81735 49.9512 5.57292 49.8828 5.43604C49.6776 4.96674 49.3748 4.86897 47.8314 4.75165L46.3759 4.6441L47.3137 3.71528C48.144 2.88423 48.2417 2.75713 48.2417 2.43449C48.2417 1.99452 47.9975 1.75987 47.5481 1.75987C47.2649 1.75987 47.0988 1.87719 46.2685 2.70824L45.3112 3.66639L45.3014 3.22643C45.2916 2.05318 45.1353 0.703949 44.979 0.4693C44.7837 0.175988 44.432 1.58361e-06 44.012 1.58361e-06C43.7385 1.58361e-06 43.3966 0.312867 40.9056 2.79624ZM43.885 3.76417L43.9534 5.03518L41.7457 7.23502C40.2218 8.76024 39.5478 9.37619 39.5478 9.23931C39.5478 9.13176 39.499 8.44737 39.4501 7.72387L39.3427 6.41375L41.521 4.23346C43.4454 2.30739 43.7092 2.08251 43.758 2.26828C43.7873 2.39538 43.8459 3.06022 43.885 3.76417ZM47.597 6.22798L47.9779 6.27687L45.7898 8.4767L43.6017 10.6668L42.9668 10.6179C42.6151 10.5885 41.9411 10.5299 41.4624 10.5006L40.6028 10.4321L42.7812 8.24205L44.9693 6.05199L46.0926 6.11066C46.7081 6.13999 47.3821 6.18887 47.597 6.22798ZM25.4325 17.8627C26.4191 18.1462 27.269 18.5177 28.0602 19.0066C29.3399 19.8083 29.3887 19.603 27.5034 21.49L25.8623 23.1325L25.0906 22.7512C24.397 22.3992 24.2212 22.3601 23.4007 22.3112C22.6387 22.2721 22.3555 22.3015 21.7987 22.4677C20.1673 22.9663 18.9756 24.2178 18.5946 25.831C18.2137 27.454 18.6532 29.0183 19.8352 30.1915C22.3359 32.7042 26.5168 31.6288 27.5522 28.2263C27.7183 27.6691 27.7476 27.3855 27.7085 26.6229C27.6597 25.8016 27.6206 25.6256 27.269 24.9315L26.888 24.1591L28.5291 22.5165C30.1604 20.8838 30.1604 20.8838 30.3655 21.0695C30.6781 21.3531 31.401 22.5557 31.7136 23.328C32.2704 24.6675 32.3681 25.2248 32.3583 26.9847C32.3583 28.4512 32.329 28.6761 32.0945 29.4583C31.2642 32.1567 29.4961 34.2294 27.0247 35.3831C24.0845 36.7715 20.6069 36.4977 17.9108 34.6792C14.1012 32.1078 12.7043 27.1313 14.6384 23.0152C15.9181 20.2678 18.2234 18.4395 21.2907 17.7453C22.1894 17.54 24.5143 17.6085 25.4325 17.8627ZM24.1431 23.9147C24.397 24.0027 24.6315 24.1102 24.6608 24.1689C24.6901 24.2178 24.1919 24.8044 23.5374 25.4594C22.2382 26.7793 22.1405 26.9749 22.5997 27.4246C23.049 27.8841 23.2444 27.7864 24.5631 26.486C25.2176 25.831 25.8037 25.3323 25.8525 25.3617C26.0772 25.4985 26.2823 26.4176 26.2433 27.1118C26.1847 28.3143 25.5204 29.292 24.4264 29.8004C23.6742 30.1524 22.5411 30.172 21.8182 29.8396C21.1832 29.5462 20.4702 28.8423 20.1869 28.2166C19.8645 27.5028 19.8743 26.2416 20.1966 25.6159C20.6655 24.7262 21.2223 24.208 22.0526 23.9049C22.5411 23.7191 23.596 23.7289 24.1431 23.9147Z" fill="white" fill-opacity="0.8"/>
</svg>
